<mxfile host="app.diagrams.net" agent="Mozilla/5.0 (Windows NT 10.0; Win64; x64) AppleWebKit/537.36 (KHTML, like Gecko) Chrome/128.0.0.0 Safari/537.36" version="24.7.12">
  <diagram name="Page-1" id="5f0bae14-7c28-e335-631c-24af17079c00">
    <mxGraphModel dx="1500" dy="851" grid="1" gridSize="10" guides="1" tooltips="1" connect="1" arrows="1" fold="1" page="1" pageScale="1" pageWidth="1100" pageHeight="850" background="none" math="0" shadow="0">
      <root>
        <mxCell id="0" />
        <mxCell id="1" parent="0" />
        <mxCell id="qRXKXqMlxCZ7JL6eJb9L-2" value="VPS" style="verticalAlign=top;align=left;spacingTop=8;spacingLeft=2;spacingRight=12;shape=cube;size=10;direction=south;fontStyle=4;html=1;rounded=0;shadow=0;comic=0;labelBackgroundColor=none;strokeWidth=1;fontFamily=Verdana;fontSize=12" vertex="1" parent="1">
          <mxGeometry x="30" y="20" width="1050" height="770" as="geometry" />
        </mxCell>
        <mxCell id="39150e848f15840c-1" value="Frontend" style="verticalAlign=top;align=left;spacingTop=8;spacingLeft=2;spacingRight=12;shape=cube;size=10;direction=south;fontStyle=4;html=1;rounded=0;shadow=0;comic=0;labelBackgroundColor=none;strokeWidth=1;fontFamily=Verdana;fontSize=12" parent="1" vertex="1">
          <mxGeometry x="100" y="60" width="390" height="280" as="geometry" />
        </mxCell>
        <mxCell id="39150e848f15840c-2" value="Backend" style="verticalAlign=top;align=left;spacingTop=8;spacingLeft=2;spacingRight=12;shape=cube;size=10;direction=south;fontStyle=4;html=1;rounded=0;shadow=0;comic=0;labelBackgroundColor=none;strokeWidth=1;fontFamily=Verdana;fontSize=12" parent="1" vertex="1">
          <mxGeometry x="530" y="70" width="330" height="220" as="geometry" />
        </mxCell>
        <mxCell id="39150e848f15840c-3" value="Base de datos" style="verticalAlign=top;align=left;spacingTop=8;spacingLeft=2;spacingRight=12;shape=cube;size=10;direction=south;fontStyle=4;html=1;rounded=0;shadow=0;comic=0;labelBackgroundColor=none;strokeWidth=1;fontFamily=Verdana;fontSize=12" parent="1" vertex="1">
          <mxGeometry x="370" y="410" width="260" height="150" as="geometry" />
        </mxCell>
        <mxCell id="39150e848f15840c-7" value="Module" style="shape=component;align=left;spacingLeft=36;rounded=0;shadow=0;comic=0;labelBackgroundColor=none;strokeWidth=1;fontFamily=Verdana;fontSize=12;html=1;" parent="1" vertex="1">
          <mxGeometry x="560" y="135" width="120" height="60" as="geometry" />
        </mxCell>
        <mxCell id="39150e848f15840c-8" value="&amp;laquo;interface&amp;raquo;&lt;br&gt;&lt;b&gt;Name&lt;/b&gt;" style="html=1;rounded=0;shadow=0;comic=0;labelBackgroundColor=none;strokeWidth=1;fontFamily=Verdana;fontSize=12;align=center;" parent="1" vertex="1">
          <mxGeometry x="720" y="140" width="110" height="50" as="geometry" />
        </mxCell>
        <mxCell id="39150e848f15840c-10" value="Module" style="shape=component;align=left;spacingLeft=36;rounded=0;shadow=0;comic=0;labelBackgroundColor=none;strokeWidth=1;fontFamily=Verdana;fontSize=12;html=1;" parent="1" vertex="1">
          <mxGeometry x="440" y="460" width="120" height="60" as="geometry" />
        </mxCell>
        <mxCell id="39150e848f15840c-17" style="edgeStyle=orthogonalEdgeStyle;rounded=0;html=1;labelBackgroundColor=none;startArrow=none;startFill=0;startSize=8;endArrow=none;endFill=0;endSize=16;fontFamily=Verdana;fontSize=12;" parent="1" source="39150e848f15840c-3" target="39150e848f15840c-2" edge="1">
          <mxGeometry relative="1" as="geometry">
            <Array as="points">
              <mxPoint x="695" y="485" />
            </Array>
          </mxGeometry>
        </mxCell>
        <mxCell id="39150e848f15840c-18" style="edgeStyle=orthogonalEdgeStyle;rounded=0;html=1;labelBackgroundColor=none;startArrow=none;startFill=0;startSize=8;endArrow=none;endFill=0;endSize=16;fontFamily=Verdana;fontSize=12;" parent="1" source="39150e848f15840c-3" target="39150e848f15840c-1" edge="1">
          <mxGeometry relative="1" as="geometry">
            <Array as="points">
              <mxPoint x="285" y="485" />
            </Array>
          </mxGeometry>
        </mxCell>
        <mxCell id="qRXKXqMlxCZ7JL6eJb9L-4" value="" style="shape=image;verticalLabelPosition=bottom;labelBackgroundColor=default;verticalAlign=top;aspect=fixed;imageAspect=0;image=data:image/png,iVBORw0KGgoAAAANSUhEUgAABLAAAASwCAYAAADrIbPPAAAAAXNSR0IArs4c6QAAIABJREFUeF7s3QmcZGV5L/7nrepZWd0QEESmu9lGcQEXYHpo9xiNuSZCFjX53yReTHI1kevGdA+WTDeLxiUmMS5JvNcYcwN6403i1evG0D0jwTBBVNbunkGILLIIAgMzXVXv/zYSNS5M93RXnVNV3/58/MTIOe/ze7/Pobv66apzUvgiQIAAAQIECBAgQIAAAQIECBAgUGKBVOJsohEgQIAAAQIECBAgQIAAAQIECBAIAywXAQECBAgQIECAAAECBAgQIECAQKkFDLBK3R7hCBAgQOCHAnM/sjIQAgQIECBAgAABAgR6UMAAqwebbssECBAgQIAAAQIECBAgQIAAgU4SMMDqpG7JSoAAAQIECBAgQIAAAQIECBDoQQEDrB5sui0TIECAAAECBAgQINAiAZ94bxGsZQkQ6HUBA6xevwLsnwABAgQIECBAgAABAgQIECBQcgEDrJI3SDwCBAgQIECAAAECBAgQIECAQK8LGGD1+hVg/wQIECBAgAABAgQIECBAgACBkgsYYJW8QeIRIECAAAECBAgQIECAAAECBHpdwACr168A+ydAgAABAgQIECBAgAABAgQIlFzAAKvkDRKPAAECBAgQIECAAAECBAgQINDrAgZYvX4F2D8BAgQIECBAgAABAgQIECBAoOQCBlglb5B4BAgQIECAAAECBAgQIECAAIFeFzDA6vUrwP4JECBAgAABAgQIECBAgAABAiUXMMAqeYPEI0CAAAECBAgQIECAAAECBAj0uoABVq9fAfZPgAABAgQIECBAgAABAgQIECi5gAFWyRskHgECBAgQ+IHA3E/tzIMAAQIECBAgQIBA7wkYYPVez+2YAAECBAgQIECAAAECBAgQINBRAgZYHdUuYQkQIECAAAECBAgQIECAAAECvSdggNV7PbdjAgQIECBAgAABAgQIECBAgEBHCRhgdVS7hCVAgAABAgQIECBAgAABAgQI9J6AAVbv9dyOCRAgQIAAAQIECBAgQIAAAQIdJWCA1VHtEpYAAQIECBAgQIAAAQIECBAg0HsCBli913M7JkCAAAECBAgQIECAAAECBAh0lIABVke1S1gCBAgQIECAAAECBAgQILAYgbkxQF7MAs4lUIiAAVYh7IoSIECAAAECBHpcwO9PPX4B2D4BAgQIEFiYgAHWwrwcTYAAAQIECLRIwDyjRbCWJUCAAAECBAh0gYABVhc00RYIECBAgAABAgQIECBAgAABAt0sYIDVzd21NwIECBAgQIAAAQIECBAgQIBAFwgYYHVBE22BAAECBAgQIECAAAECBAgQINDNAgZY3dxdeyNAgAABAgQIECBAgAABAgQIdIGAAVYXNNEWCBAgQIAAAQIECBAgQIAAAQLdLGCA1c3dtTcCBAgQIECAAAECBAgQIECAQBcIGGB1QRNtgQABAgQIECBAgAABAgQIECDQzQIGWN3cXXsjQIAAAQIECBAgQIAAAQIECHSBgAFWFzTRFggQIECAAAECBAgQIECAAAEC3SxggNXN3bU3AgQIECBAgAABAgQIECBAgEAXCBhgdUETbYEAAQIECBAgQIAAAQIECBAg0M0CBljd3F17I0CAAAECBAgsWGDu5WFe8FlOIECAAAECBAi0UsAAq5W61iZAgAABAgQIECBAgAABAgQIEFi0gAHWogktQIAAAQIECBAgQIAAAQIECBAg0EoBA6xW6lqbAAECBAgQIECAAAECBAgQIEBg0QIGWIsmtAABAgQIECBAgAABAgQIECBAgEArBQywWqlrbQIECBAgQIAAAQIECBAgQIAAgUULGGAtmtACBAgQIECAAAECBAgQIECAAAECrRQwwGqlrrUJECBAgAABAgQIECBAoGUCc7/Q5patbmECBMokYIBVpm7IQoAAAQIECBAgQIAAAQIECBAg8BMCBlguCgIECBAgQIAAAQIECBAgQIAAgVILGGCVuj3CESBAgAABAgQIECBAgAABAgQIGGC5BggQIECAAAECBEom4K42JWuIOAQIECBAoHABA6zCWyAAAQIECBAgQIAAAQIECBAgQIDAIwkYYLk+CBAgQIAAAQIECBAgQIAAAQIESi1ggFXq9ghHgAABAgQIECBAgAABAgQIECBggOUaIECAAAECBAgQIECAAAECBAgQKLWAAVap2yMcAQIECBAgQIAAAQIECBAgQICAAZZrgAABAgQIECBAgAABAgQIECBAoNQCBlilbo9wBAgQIECAAAECBAgQIECAAAECBliuAQIECBAgQIAAAQIECBAgQIAAgVILGGCVuj3CESBAgAABAgQIECBAgAABAgQIGGC5BggQIECAAAECBAgQIECAAAECBEotYIBV6vYIR4AAAQIECBAgQIAAAQIECBAgYIDlGiBAgAABAgQIECBAgAABAgQIECi1gAFWqdsjHAECBAgQIECAAAECBAgQIECAgAGWa4AAAQIECBAgQIAAAQIECBAgQKDUAgZYpW6PcAQIECBAgAABAgQIECBAgAABAgZYrgECBAgQIECAAAECBAgQIECAAIFSCxhglbo9whEgQIAAAQIECBAgQIAAAQIECBhguQYIECBAgAABAgQIECBAgAABAgRKLWCAVer2CEeAAAECBAgQIECAAAECBAgQIGCA5RogQIAAAQIECBAgQIAAAQIECBAotYABVqnbIxwBAgQIECBAgAABAgQIECBAgIABlmuAAAECBAgQIECAAAECBAgQIECg1AIGWKVuj3AECBAg8LME5n6AZTwECBAgQIAAAQIECPSEgAFWT7TZJgkQIECAAAECBAgQIECAAAECnStggNW5vZOcAAECBAgQIECgKwS8p7Qr2mgTBAgQINBSAQOslvJanAABAgQIECBAgAABAgQIECBAYLECBliLFXQ+AQIECBAgQIAAAQIECBAgQIBASwUMsFrKa3ECBAgQIECAAAECBAgQIECAAIHFChhgLVbQ+QQIECBAgAABAgQIECBAgAABAi0VMMBqKe+eFnfDzj0J+ecECBAgQIAAAQIECBAgQIAAAQMs1wABAgQIECBAgAABAgQIECBAgECpBQywSt0e4QgQIECg6wS8+bbrWmpDBAgQIECAAAECrRcwwGq9sQoECBAgQIAAAQIECBAgQIAAAQKLEDDAWgSeUwkQIECAAAECBAgQIECAAAECBFovYIDVemMVCBAgQIAAAQIECBAgQIAAAQIEFiFggLUIPKcSIECAAAECBAgQIECAAAECBAi0XsAAq/XGKhAgQIAAAQIECBAgQIAAAQIECCxCwABrEXhOJUCAAAECBAgQIECAAAECBAgQaL2AAVbrjVXoGoG5f11y1+zGRggQIECAAAECBAgQIECAQKcIGGB1SqfkJECAAAECBAgQIECAAAECBAj0qIABVo823rYJECBAgAABAgQIECBAgAABAp0iYIDVKZ2SkwABAgQIECBAgAABAgQIECDQowIGWD3aeNsmQKDbBNyjrds6aj8ECBAgQIAAAQIECPxQwADL1UCAAAECBAgQINB9Aub63ddTOyJAgACBnhYwwOrp9ts8AQIECBAgQIAAAQIECBAgQKD8AgZY5e+RhAQIECBAgAABAgQIECBAgEBJBbzptz2NMcBqj7MqbRHwbaMtzIoQIECAAAECBAgQIECAAIE2CxhgtRlcOQIECBAgQIAAAQIECBAgQIAAgYUJGGAtzMvRBAgQIECAAAECBAgQIECAAAECbRYwwGozuHIECBAgQIAAAQIECBAgQIAAAQILEzDAWpiXowkQIECAAAECBHpJwC02e6nb9kqghAK+CZWwKSIVJGCAVRC8sgQIECBAgAABAgQIECBAgAABAvMTMMCan5OjCBAgQIAAAQIECBAgQIAAAQIEChIwwCoIXlkCBAgQIECAAAECBAgQIECAAIH5CRhgzc/JUQQIECBAgAABAgQIECBAgAABAgUJGGAVBK8sAQIECBAgQIAAAQIECBAgQIDA/AQMsObn5CgCBAgQIECAAAECBAgQIECAAIGCBAywCoJXlgABAgQIECBAgAABAgQIECBAYH4CBljzc3IUAQIECBAgQIAAAQIECBAgQIBAQQIGWAXBK0uAAAECBAgQIECAAAECBAgQIDA/AQOs+Tk5igABAgQIECBAgAABAgQIECBAoCABA6yC4JUlQIAAAQIECBAgQIAAAQIECBCYn4AB1vycHEWAAAECBAgQIECAAAECBAgQIFCQgAFWQfDKEiBAgAABAgQIECBAgAABAgQIzE/AAGt+To4iQIAAAQIECBAgQIAAAQIECBAoSMAAqyB4ZQkQIECAAAECBAgQIECAAAECBOYnYIA1PydHESBAgAABAgQIECBAgAABAgQIFCRggFUQvLIECBAgQIAAAQIECBAgQIAAAQLzEzDAmp+TowgQIECAAAECBAgQIECAAAECixaYG8TkRa/SewsYYPVez+2YAAECBAgQIECAAAECBAgQINBRAgZYHdUuYQkQIECAAAECBAgQIECAAAECvSdggNV7PbdjAgQIECBAgAABAgQIECBAgEBHCRhgdVS7hCVAgAABAgQIECBAgAABAgQI9J6AAVbv9dyOCRAgQIAAAQIECBAgQIAAAQIdJWCA1VHtEpYAAQIECBAgQIAAAQIECBAg0HsCBli913M7JkCAAAECBAgQ6EoBD2Zvf1uZt99cRQIEelXAAKtXO2/fBAgQIECAAAECBAgQIECAAIEOETDA6pBGiUmAAAECBAgQIECAAAECBAgQ6FUBA6xe7bx9EyBAgAABAgQIECBAgAABAgQ6RMAAq0MaJSYBAgQIECBAgAABAgQIECBAoFcFDLB6tfP2TYAAAQIECBAgQIAAAQIECBDoEAEDrA5plJgECBAgQIAAAQIECBAgQIAAgV4VMMDq1c7bNwECBAgQIECAAAECBAgQIECgQwQMsDqkUWISIECAAAECBAgQIECAAAECBHpVwACrVztv3wQIECBAgAABAgQIECBAgACBDhEwwOqQRolJgAABAgQIECBAgAABAgQIEOhVAQOsXu28fRMgQIAAAQIECBAgQIAAAQIEOkTAAKtDGiUmAQIECBAgQIAAAQIECBAgQKBXBQywerXz9k2AAAECBAgQIECAAAECBAgQ6BABA6wOaZSYBAgQIECAAAECBAgQIECAAIFeFTDA6tXO2zcBAgQIECBAgAABAgQIECCwNAJz05W8NEtZ5acLGGC5MggQIECAAAECBAgQIECAAAECBEotYIBV6vYIR4AAAQIECBAgQIAAAQIECBAgYIDlGiBAgAABAgQIECBAgAABAgQIECi1gAFWqdsjHAECBAgQIECAAAECBAgQIECAgAGWa4AAAQIECBAgQKB0Au6FW7qWCESAAAECBAoVMMAqlF9xAgQIECBAgAABAgR6TsCEtudabsMECCxewABr8YZWIECAAAECBAgQIECAAAECBAgQaKGAAVYLcS1NgAABAgQIECBAgAABAgQIECCweAEDrMUbWoEAAQIECBAgQIAAAQIECBAgQKCFAgZYLcS1NAECBAjsjYAbg+yNmnMIECDQDgHfoduhrAYBAgQI/DQBAyzXBQECBAgQIECAAAECBAgQIECAQKkFDLBK3R7hCBAgQIAAAQIECBAgQIAAAQIEDLBcAwQIECBAgAABAgQIECBAgAABAqUWMMAqdXuEI0CAAAECBAgQIECAAAECBH6WgHvz9c61YYDVO722UwIECBAgQIAAAQIECBAgQIBARwoYYHVk24QmQIAAAQIECBAgQIAAAQIECPSOgAFW7/TaTgkQIECAAAECBAgQIECAAAECHSlggNWRbROaAAECBAgQIECAAAECBAgQINA7AgZYvdNrOyVAgAABAgQIECBAgAABAgQIdKSAAVZHtk3opRHwvIqlcWzfKjrWPmuVCBAgQIAAAQIECBAgUCYBA6wydUMWAgQIECBAgAABAgQIECBAgACBnxAwwHJRECBAgAABAgQIECBAgAABAgQIlFrAAKvU7RGOAAECBAgQIECAAAECBAgQIEDAAMs1QIAAAQIECBAgQKAVAm7e2ApVaxIgQIBAjwoYYPVo422bAAECBAgQIECAAAECBAgQINApAgZYndIpOQkQIECAAAECBAgQIECAAAECPSpggNWjjbdtAgQIECBAgAABAgQIECBAgECnCBhgdUqn5CRAgAABAgQIECBAgAABAgQI9KiAAVaPNt62CRAgQIAAAQIECBAgQIAAAQKdImCA1SmdkpMAAQIECBAgQIAAAQIECBAg0KMCBlg92njbJkCAAAECBAgQIECAAAECBAh0ioABVqd0Sk4CBAgQIECAAAECBAgQIECAQI8KGGD1aONtmwABAgQIECBAgAABAgQIECDQKQIGWJ3SKTkJECixwNy30lzifKIRIECAAAECBAgQIECgswUMsDq7f9ITIECAAAECBAgQIECAAAECBLpewACr61tsgwQIECBAgAABAgQIECBAgACBzhYwwOrs/klPgAABAqUW8PHSUrdHOAIECBAgQIAAgcULtOklrwHW4ltlBQIECBD4CYE2/RQjT4AAAQIECBAgQIBATwgYYPVEm22SAAECBAgQIECAAAECBAgQINC5AgZYnds7yQkQIECAAAECBAgQIECAAAECPSFggNUTbbZJAgQIECBAgAABAgQIECBAgEDnChhgdW7vJCdAgAABAgQIECBAgAABAgQI9ISAAVZPtNkmCRAgQIAAAQIECBAgQIAAAQKdK2CA1bm9k5wAAQIECBAgQIAAAQIECBAg0BMCBlg90WabJECAAAECBAgQIECAAAECBAh0roABVuf2TnICLReY+waRW15FAQIECBAgQIAAAQIECBAg8MgCBliukJ4TMJTpuZbbMAECBAgQIECAAAECBAh0uIABVoc3UHwCBAgQIECAAAECBEoq4C+nJW2MWAQIdKKAAVYndk1mAgQIECBAgAABAgQIECBAgEAPCRhg9VCzbZUAAQIECBAgQIAAAQIECBAg0IkCBlid2DWZCRAgQIAAAQIECBAgQIAAAQI9JGCA1UPNtlUCBAgQIECAAAECBAgQIECAQCcKGGB1YtdkJkCAAAECBAgQIECAAAECBAj0kIABVg8121YJEOgkAY8t6qRuyUqAAAECBAj0qoDXbL3aeftuv4ABVvvNVSRAgAABAgQIECBAgAABAgQIEFiAgAHWArAcSoAAAQIECBAgQIAAAQIECBAg0H4BA6z2m6tIgAABAgQIECBAgAABAgQIECCwAAEDrAVgOZQAAQIECBAgQIAAAQIECBAgQKD9AgZY7TdXkQABAgQIECBAgAABAgQIECBAYAECBlgLwHLoIwt4/oYrhAABAgQIECBAgAABAgQIEGiFgAFWK1StSYAAAQIECBAgQIAAAQIECBAgsGQCBlhLRmkhAgQIECBAgAABAgQIECBAgACBVggYYLVCtSfX9AHCpW07z6X1tBoBAgQIEOhEAa8HStc1LSldSwQiQKB3BAyweqfXdkqAAAECBAgQIECAAAECBAgQ6EgBA6yObJvQBAgQIECAAAECBAgQIECAAIHeETDA6p1e2ykBAgQIECBAgAABAgQIECBAoCMFDLA6sm1CEyBAgAABAgQIECBAgAABAgR6R8AAq3d6bacECBAgQGCBAu5WvEAwhxMgQIAAAQIECLRIwACrRbCWJUCAAAECBAgQIECgeAGj+OJ7IAEBAgSWQsAAaykUrUGAAAECBAgQIECAAIGOEzDe67iWCUyghwUMsHq4+bZOgAABAgQIECBAgAABAgQIEOgEAQOsTuiSjAQIECBAgAABAgQIECBAgACBHhYwwOrh5ts6AQIECBAgQIAAAQIECJRbwAc9y90f6donYIDVPmuVCBAgQIAAAQIECBAgQIAAAQIE9kLAAGsv0JxCgAABAgQIECBAgAABAgQIECDQPgEDrPZZq0SAAAECBAgQIECAAAECBAgQILAXAgZYe4HmFAIECBAgQIAAAQIECBAgQIAAgfYJGGC1z1olAgQIECBAgAABAgQIEJingJuXzxPKYQR6RMAAq0cabZsECBAgQIAAAQIECBAgQIAAgU4VMMDq1M7JTYAAAQIECBAgQIAAAQIECBDoEQEDrB5ptG0SIECAAAECBAgQIECAAAECBDpVwACrUzsnNwECBAgQIECAAAECBAgQIECgRwQMsHqk0bZJgMA8BHKkdVPnHZmqjadHM9ZFiqflFIekHCsjYmdEfCtHXJ5S+ud6PX/t0qNHvz2PVR1CYOkE3M126SytRIAAgYIEXjL1/hX39t33tEq9cWJO6ZQUMZhzPCanqEROd6TI10bKlzVz+pf9Y/8rPjv4hl0FRVWWAAECpRIwwCpVO4QhQKAggXTKtbVDUrXvQynFy+aZoZlSfLSyauXbNh/6pjvmeY7DCBAgQIAAgR4VOO6q2vLHrlz+smZufjRF7D9PhltTJZ9x/103fXbbiR+enec5DiNAgEBXChhgdWVbbarsAt5EUZ4OnXTTe1b1PbjzzyLFKyNiv71I9t2I9PHqTbNnbn5urb4X5zuFAAECBAgQ6HKBoR3nnhqN/IGIfNyCt5pSIyJflevN39hy9NlXLvh8JxAgQKBLBAywuqSRtkGAwMIFhqfHn9yM+Ksc+ZkLP/vHz8hbl+X4zS8PbpxZ/FpWIECAAAECBLpBYPji2srGYcveGCmfHfHQLQkW8ZV25ZzP3DI4+oFFLOJUAgQIdKyAAVbHtk5wAgQWI7D+hk1H5nplIiIftph1/uO5+cbG7rT+K8eNfmvp1rQSAQIEflLAO3ldFQTKL3DC5R9atvrA28+NiDctadocI5MDI+dFSnlJ17UYAQIESi5ggFXyBolXEgG/KZSkEUsT44Sba6tX7+y7OiKOWJoVf7hKznHtloHR4yKFF5VLjWs9AgQIECDQQQLrpzf9UY50ZkQs9e9cjdRovGri6Lf/XQdxiEqAAIFFCyz1N9NFB7IAAQIEWikwvKO2slGvfi5SOrWFdb64b77tZZ8d/BNPDWohsqUJECBAgEBZBYamzjk1UuWzEbGqJRlz1HNqPmfLwNnbWrK+RQkQIFBCAQOsEjZFJAIEWiewfmbsVTnHx1tX4aGVc6URv3zJ0aN/3+I6lidAgAABAgRKJjB8Xe2x9WrfzA+fNNiat/KnHBdX/q3+Ig+RKdkFIA4BAi0TMMBqGa2FCRAonUDOaWhm7MaItIT3vfqZu7y7vmL1oZcefuYDpXMQiAABAgQIEGiZwND0+Jsj8jtbVuBHFk45Xj0xOPo37ailBgECBIoWMMAqugPqEyDQNoF1U+f8VkqVv2xbwZzPmxzcuKFt9RQiQIAAAQIEChU4+erxJ1eX56+27KODP7m7zZMDo88tdNOKL0KgNe/OW0QgpxIotYABVqnbIxwBAkspMDQ99rmIePFSrvmIa+W4s7li2fFbn/jWm9tWUyECBAgQIECgMIH102P/M0f8StsC5LivvnL1Qd7x3TZxhQgQKFDAAKtAfKUJEGivwND0+E0RuR0fH/zBxlKkiyf6Z18QqdZs725VI0CAAAECBNopMDwzdmIj4rLIUWln3VyJ39iyZvSv21lTLQIECBQhYIBVhLqaBAi0XWD4ivce2Njv/jsj2vuiMiJ2Rz09c/KYka+3fdMKEiBAgAABAm0ROOmm96zq27XzaxFxVFsK/kiRFPF/JgZGX9ruuuoRIECg3QIGWO0WV48AgUIEhmbGnx85f7GQ4hHXrNp3xTM/f/Cb7y+ovrIECBAgQIBACwWGpsZfnVP+H6n9fyib29V3JvtHDo6Ucgu3aGkCBAgULmCAVXgLBCBAoB0Cbb+B+49tqhn5dVsHNn6oHXtVgwABAgQIEGifwNAN44fEbHN7pLSyfVV/pFKK++9cU3/01am2u5D6ihIgQKBNAgZYbYJWhgCBYgXWT286I0f6YGEpctx+5+76YVev9eKysB4oTIAAAQIEWiCwfmbT+Tmnt7Zg6fktmdL91crsYzcfWXtwfic4igABAp0pYIDVmX2TmgCBBQqsn9n08zmnzyzwtCU9PEX68MTAyBlLuqjFCBAgQIAAgcIEhqfHn9zI+Z8jxT5FhUgR90z0jzzKRwiL6oC6BAi0S8AAq13S6hAgUKjAydO1g6qp75Z2PxnoxzZ9d/Sl4yafNHJLoRiKEyBAgAABAosXyDkNbR//fOR4weIXW8QKKb402T9abIZFxHcqAQIE5itggDVfKccRINDxAkPTm26LSAcVuZGU0tcev+1rJ150+kWNInOoTYAAAQIECCxOYGj7+PG5ma8o6MbtPwifc/qvWwZH/mxxu3E2AQIEyi9ggFX+HklIgMASCQxNjV0cKYaXaLm9XqZZSS/aumbkC3u9gBMJECBAgACBQgVeMHP+Abua9e2R4tGFBonYtXP14x697dAzdhacQ3kCBAi0XMAAq+XEChAgUBaBdTNjv5dyFP4XyhTpmwesnn32Px5a82KzLBdHT+aYewngies92XqbJkBg0QLrpzb9fk7pTxe90CIXSJEunRgYOXmRyzidAAECHSFggNURbRKSAIGlEBjeUVvZqC+biZQPXYr1FrNGSpWzJvo3nL+YNZxLgAABAgQItF9geEft4Eajbyoi9m1/9R+rmNNrJwdH/qLwHAIQIECgDQIGWG1AbmkJf0BvKa/Fu0/g1JlN/7mZ018VvbMUcdvj+496wkXpdPfCKroZ6hMgQIAAgQUIDE2PfTQi/r8FnNKSQ3PE5Yf0H/UcryVawmtRAgRKKGCAVcKmiESAQOsETrn2gv0qfbNfj4gnta7KPFdO+X9Ormm8KlKtOc8zHEaAAAECBAgUKDC849xjGvXm5ZFinwJjPFQ6VfKLJ9Zs/HzROdQnQIBAuwQMsNolrQ4BAqURGJoaf0ak/JWIWFFwqAejkp49uWZkbqBUiV6OAAAgAElEQVTmiwABAgQIECixwEum3r/ivvS9r0bE8UXHTJX4/MSR9Zf4I1jRnVCfAIF2ChhgtVNbLQIEyiGQa5WhmeqXI9KpRQeae/v/loHRZ7mbdtGdUJ8AAQIECDyywMnTm55XTekLkaNSsNX3dqZ7n7it/4J7Cs6hPAECBNoqYIDVVm7FCBAoi8ApV53/xMqK+jcjYr/CM+X0msnBkY8XnkMAAgQIEPi+gHuMuhJ+TGDdt857VKo3r4qcDykaJ6X0xxNrRt4YyaNki+6F+gQItFfAAKu93qoRIFAigaHpsfGI2FCCSFdXq/UTNh9Ze7AEWUQgQIAAAQIEfkxgaGbs7MjxjqJhUsT07IrVx196+JkPFJ1FfQIECLRbwACr3eLqESBQGoEX3/SeR+/ctXN7RBxQdKiU8wUTgxvP8lHCojuhPgECBAgQ+I8Cw9fVHtuo9s1ExP5F2+RU+a0t/RvmnoLoiwABAj0nYIDVcy23YQIEflRg3cy5L0vR/N+F388ixV27m/sfedngG76nQwQIdKKAz5x1YtdkJrBHgVqtsu7Vff+UIl6yx2NbfkDatrP/sSdtS2fMtryUAgQIECihgAFWCZsiEgEC7RM44fLa6tUH9s09UWht+6r+9Eo50v96Qf/sabVUaxadRX0CBAgQIEAgYv3M+U/JuX5ZRKwq0iPn2B2pefKWgbO3FZlDbQIECBQpYIBVpL7aBAiUQmB4evzJjcj/EhEriw7UjPS8rQMjFxedQ30CBAgQINDrAg//kevKiBgogcVnnt9ff7k/cpWgEyIQIFCYgAFWYfQKEyBQJoF102OfSBG/VnSmFPnSiYGNJxedQ30CBAgQINDrAuunzntVTo3CnxKcc9x1yBX1Qy46vba713ti/wQI9LaAAVZv99/uCRB4WGB4x3lPajQa34iIfYtGqaT4/Uv6Rz9QdA71CRAgQIBArwoM76gd2Ggs+0ZEPqxog5TyOyb6N9aKzqE+AQIEihYwwCq6A+oTIFAagXXT4/8tRf6jEgSauXNX/bir1/pLawl6IQIBAgQI9KDAuunx96XIf1D41lNMVR+sP2Pz2tp9hWcRgAABAgULGGAV3ADlCRAoj8D3/9rad3PRN2qdE0kp/fHEmpE3RopcHiFJCBAgQIBA9wsMf6e2b+OevpsjxX5F7zal/NKJ/o3/p+gc6hMgQKAMAgZYZeiCDAQIlEZg+LqxdfVqXJIiKgWH2p1T/Slb+mvXF5xDeQIECBAg0DMCwxfX+hqH9W2NFM8qetMp4pt37Kqf4B3ZRXdCfQIEyiJggFWWTshBgEA5BHJOQ9NjF0dKpxYdKEf6X1s+Pnta1GrNorOoT4AAAQIEekFg/fSm5+VU+XzkXC10vznubVZmn7y1/x03FppDcQIECJRIwACrRM0QhQCBcgicvGP8adVG/ueIWFF0ombOv7h1cOM/FJ1DfQIECBAg0O0CJ930nlV9u3Zui4hjS7DXv54cGP2NEuQQgQABAqURMMAqTSsEIUCgTAJDM2PvjRx/WHSmHHH5loHRZxadQ30CBAgQINDtAuunx/9bLsfDXO6s7qo/yY3bu/2Ksz8CBBYqYIC1UDHHEyDQEwInXz12RHV5uiYiryp6w6nZfPPEUWeX4emIRVOoT4AAAQIEWiJwyrUX7Ffpq18dkQ9rSYEFLZrfMDmw8U8WdEoHHjz3i6gn1XRg40QmUKCAAVaB+EoTIFBugaGp8d+JlD8Uxd/Q/fZds5Vjv3rshjvLLSYdAQIECBDoPIFarlW+PFP9aI5U/Ef2cuxoNr731K3HvPPezpOUmAABAq0VMMBqra/VCRDoYIETLq+tXn1g39URcUTR20gR758YGP2DonOoT4AAAQIEuk1g/fTY4Tniuogo+l3XjUazfuJXjqp9rduM7YcAAQJLIWCAtRSK1iBAoGsF1k1tGk4pfakE78Jq5mbz5C1HnX1Z12LbGAECBAgQaLPAafnC6q3br9saOT27zaV/olxKMVFZU3/+5lSrF51FfQIECJRRwACrjF2RiQCBUgmsnxn/VM75lwoPlfM/TQ5sfHkkt4wovBcCECBAgEBXCKybGjstpbiwBJu5e3a2/vR/PrZ2QwmyiECAAIFSChhglbItQhEgUCaBdded89RUrXw1IpYXnqtSOW1yzYZPFp5DAAIECBAg0OECL5l6/Yr70sH/GpGPK3orOcV7tvSP/reic6hPgACBMgsYYJW5O7IRIFAagfUz42/POddKEOiayf7Rtd6FVYJOiECAAAECHS0wNLPp3MjprBJs4u68rLpmyxFnfbcEWUQgQIBAaQUMsErbGsEIECiTwPBVtYObK/umc459is2Vcor8lomB0T8qNofqBAgQIECgcwV+4fLa6nse1bc953h8wbvIKaVXT/SPfKLgHMoTIECg9AIGWKVvkYAECJRFYN3U2GtSJX00cq4WnSn15TUTT9q4o+gc6hMgQIAAgU4TmLtx+y0z112YIhV/f8tIN6zad/mTP3/wm+/vNEd5CRAg0G4BA6x2i6tHgEBHCwxNj381Ij+z8E2k+OBk/+jvFp5DAAIECBAg0GECQ9eNPSuqUYan+tbTA7Fm4imjN3UYobgECBAoRMAAqxB2RQkQ6FSBU6bHn1uJ+FJELvr7Z72a8ws3D27c3KmWchMgQIAAgbYL5FplaKZvMiJObnvtHy+Y8icn+zeeVngOAQgQINAhAkX/AtYhTGISIEDghwJD02P/PSJ+swQmmycHRp9bghwiECBAgACBjhAYmt702oj04RKEvTs36ydsOaq2vQRZRCBAgEBHCBhgdUSbhCRAoEwCwzvOPabRaH4zIgq/F1bkymmTgxs+WSYfWQgQIECAQBkFhnOtrzHTd3VEDJYg31snB0bfWYIcIhAgQKBjBAywOqZVghIgUCaBoe3jb45mLsMLz1vru+prL11bu6tMPrIQIECAAIGyCQxNj78/Ir++BLnuy8uqT9xyxFnfLUEWEQgQINAxAgZYHdMqQQkQKJPACZfXVq9+1LKrIucnFZsr5ch5dHJw9Nxic6hOgAABAgTKKzC847wnNeqNb0aKfQpNmaOeU/UXtgyc9blCcyhOgACBDhQwwOrApolMgEA5BNZNjb0mpZi7H1al4ES5Wq0ct/nIDdcWnEN5AgQIECBQOoHTLjytetvTn/q3OUXxN0zP8dWd99y4btuJH54tHZRABAgQKLmAAVbJGyQeAQIlFsiR1k2P/d+U4oWFp0z545P9G19TeA4BCBAgQIBAyQROmR5/SSXiMyV4gnAzp8qxW/o3XF8yInEIECDQEQIGWB3RJiEJECirwCkzY+sqOeYex13sV47ZtKz6cxNPOuvLxQZRnQCB9grMvZTL7S2pGoHOEkjrp8a+klM8pwSxPzg5MPq7JcghAgECBDpSwACrI9smNAECZRJYPzP+wZzzGSXI9I2dd994go8llKATIhAgQIBAKQTWTY+9IUX8ceFhctybc/1pW46qbS88iwAECBDoUAEDrA5tnNgECJRH4KTrxp7QV425+0/tW3iqauUVk0du+HThOQQgQIAAAQIFC5xwc231Pjv7rs8RTyg4SqRK/p2JNRv/sugc6hMgQKCTBQywOrl7shMgUA6BHGloZvxNEfmdrQm0gI8Ipbh/2fI4+suHj367NVmsSoAAAQIEOkNg3dTYn6UUv1d02hRxW6O+bHDrMW+9t+gs6hMgQKCTBQywOrl7shMgUCaBNDQ99rWIOL7wUCmfN9m/cUPhOQQgQIAAAQIFCQzvGH9ao5GvKKj8j5adzSn//Jb+jV8sQRYRCBAg0NECBlgd3T7hCRAok8D66bFfyRF/GxGFfm/NEc2UK0+ZHNxwdZl8ZCFAgAABAm0RyLXK+pm+T+aIV7Sl3iMWyf9ncmDjS4vPIQEBAgQ6X6DQX7I6n88OCBAg8CMCcy+Yp5f9fU755SVw+dzkwOhLSpBDBAIECBAg0FaBU7ePndZsxt8V/QeluUeENnPzKVsHz76qrQCKESBAoEsFDLC6tLG2RYBAMQIl+sjC7ko0fu6SgbdfXIyEqgQIECBAoBiBoemxK8vwkf5KSudd0j/iI/3FXAaqEiDQhQIGWF3YVFsiQKBYgXXT4x9Mkc8oNsVD1b+zO9cHLxusfa8EWUQgQIAAAQItFxiaGX9j5Pyelhfac4Gd1Vw/evNg7d/2fKgjCBAgQGA+AgZY81FyDAECBBYgcNxVteWPXdG3vQyP7Y5I/3lyYOS/LyC+QwkQIECAQEcKDE9dcFgjzU5FxMqiN1CtVE7bvGbDJ4vOoT4BAgS6ScAAq5u6aS8ECJRGYGhq7A8jxXtLEOh71dn6UzcfW7uhBFlEIECAAAECLRMYmtr0gUjpd1tWYL4L57jy4IGjTrgond6Y7ymOI0CAAIE9Cxhg7dnIEQQIEFi4QK5VhqaXfSVSfvbCT17aM3Izf2jLURtft7SrWo0AAQIECJRHYGj63FMi5cnIueDfb9Jss1l/6daj3v6F8uhIQoAAge4QKPgbfHcg2gUBAgR+msAp142/pFKNz0QU/GI6R726snrs5sPPmtYpAgQIECDQdQI5p6Ht45+LHC8qfG8pfXyyf+Q1hecQgAABAl0oYIDVhU21JQIEyiFw2oUXVm95xvUXpYhXFJ8obdvZ/9iTtqUzZovPIgEBAgQIEFg6gXXXj/96VPJfp4jK0q26dyulvmXHTTzprdfs3dnOIkCAAIFHEjDAcn0QIECghQKnzJz/xEqufzMi9mthmT0vnaOe+/IvbDly4+f2fLAjCBAgQIBAZwgMX1Xbt7Gy75uR44hCE6eUU46NEwMj44XmUJwAAQJdLGCA1cXNtTUCBMohMDQ99icR8V+LT5Pvzsv61mw54qzvFp9FAgIECBAgsHiBdTNjZ6Yc7178SotcIaebq32zazcfWbt7kSs5nQABAgR+hoABlkuDAAECLRY4LV9YvWX6+utSiv4Wl9rj8pWovPWSgQ3v3OOBDiBAgAABAiUXeO72C46ebc5eXYaPDuZm/PqWo0b/tuRk4hEgQKCjBQywOrp9whMg0CkCQ9vHfyea+SPF5813V2cbT998bO2G4rNIsCeBuR/SeU8H+ecECBDoUYGh6fGPRuT/r+jtp4iLJwZGn+9bdtGdWKr6fvoulaR1CCy1gAHWUotajwABAj9FYPjiWl/z8L7JHPGcwoFyfGpycPSVhecQgAABAgQI7KXA0NS5p0ZqfjmKv3F7oxLphZcMjFy8l1txGgECBAjMU8AAa55QDiNAgMBiBdZNn3NCisq/RETR33tnV9aXPekLx7z15sXuyfkECBAgQKAIgaHpTZdHpBOKqP2jNXPEh7cMjJ5RdA71CRAg0AsCRf8S1QvG9kiAAIGHBObuhXXrzHWfjEj/qQQkN+28u37MthNrO0uQRQQCBAgQIDBvgaHpc341UvXjkXN13ie14sAUjWqlOrD5yLN8LL8VvtYkQIDAjwkYYLkkCBAg0EaBucd9N1f0TeeIx7ex7E8tlVN61Zb+kU8UnUN9AgQIECAwX4HhHe88uNHYvT0iVs33nFYdl1J620T/yAWtWt+6BAgQIPAfBQywXBEECBBos8DQ1KZzI6Wz2lz2J8vlfEe1rzHokd+Fd0IAAgQIEJinwND0+MaIfM48D2/lYVdPDoyubWUBaxMgQICAAZZrgAABAoUKHHdVbfljVvZ9PXIcXWiQueIpv3eyf+OZhecQgAABAgQI7EFgeHr8yY3I/xoRy4rGShG/OjEw+ndF51CfAAECvSTgHVi91G17JUCgNAJD2899ZTSbFxUeKMV3q81lx28efOu/FZ5FAAILFPCg8wWCOZxAhwusmx7/VIr8S4VvI8c/TQ6MvDxSyoVnEYAAAQI9JGCA1UPNtlUCBMojcMLl/2XZ6gOP2BqRn1l8qnTJzru/9cJtJ354tvgsEhAgQIAAgZ8UOOW6c4Yq1crFEVH0jdubUY+TJo8e/ao+ESBAgEB7BQyw2uutGgECBH4gUKIb0TZSbj5zYvDsK7SHAAECBAiUTeCEy2urVx+4bCoiH1p4tpz+fHJw5PcKzyEAAQIEFiLQJW9bN8BaSNMdS6ClAl3yXaWlRl22eK1WWfeq6n9PKb2m8J3l2H7gPo97yj8eesbOwrMIQIAAAQIEfkRg/cz4b+WcPxIRlWJh8nfquxrHXrq2dlexOVQnQIBAbwoYYPVm3+2aAIGSCAxfUTuwsd+yb0Tkw4qOlJvxB1uOGn1/0TnUJ0CAAAEC/y5wysz5T6zm+lU5Yt/iVdJbJgdG3lV8DgkIECDQmwIGWL3Zd7smQKBEAuumxs5MKd5dgkjfqe6q929eW7uvBFlEIECAAAECsX56/H058h8UTZEiLp8YGC3BfSuLllCfAAECxQm0ZIDlg1DFNVRlAgQ6T2B4x0dXNhvf/kaOGCg8fUofn1wz8huRwpOVCm+GAAQIEOhtged+6/y19dn6tohYUbREM+df3Dq48R+KzqE+AQIEelmgJQOsXga1dwIECOyNwLqpTcMppS9ERN/enL+E59zbTH1P3tr/thuXcE1LESBAgACBBQmcduFp1VuffvyXI6X1CzqxBQenSP9ron/2tEi1ZguWtyQBAgQIzFPAAGueUA4jQIBAKwWGc62vMbNsIiKf1Mo681s7b7tzV+Pkq9fWds/veEcRKEbAO76LcVeVQDsEhmfG1jVybI6IajvqPUKNBxvLlz/5K098y0zBOZQnQIBAzwsYYPX8JQCAAIGyCLzo1nft88B9u26NMtyoNqWXTfaPfKYsNnIQIECAQO8IvGDmrQfsyvvN/TxcWfSuc0p/tqV/5PURPlpfdC/UJ0CAgAGWa4AAAQIlEhiaGXtv5PjDEkSaqq9Y/dRLDz/zgRJkEYEAAQIEekhg3czYmSmX4OEmOWb2jf3XfnbwDbt6iN9WCRAgUFoBA6zStkYwAh0q4DM9i2rcSTe959HVXTu/niKesKiFluDklFJton/kHUuwlCUIECBAgMC8BE6ZOf+JlebsNyKl/ed1QgsPqqT4/Uv6Rz/QwhKW7mABL3k7uHmid6yAAVbHtk5wAgS6VWD99ef8eq5U/qYE+7v9lnzb4dODf/KIf3n2Aq4EnRJhYQK5Vjktjkvbt323suaEW9LtN0Tl3juj8pjD9km7K/en2btWpXr1gbRfZWWqV1akeuXB1KjsSrt3RmW/fVat3P3A7hUp8sqoVFZVcvOhp6OlZqUalepDD2FoVJrVaNb7qrH8oX93mrneTCnPzv333Ix6M5q7KtXlO3PsenDlzuW77u1L9Wpzd67uuyL3NXflvubKfG/zwdzXWJWXNR7I9z4qmstvuCcf+Lgjm98ZWNHcb/MteXg4mrWoZU8MXVjrHV1+gaHpTX8bkX618KQ5vjo5OPrswnMIQIAAAQI/EDDAcjEQIECgZAIn3fSeVX27dl4TEUeUINpnJvtHfiFSyiXIIgKBRxQ4LZ9Wvf2GZz6umR48JBp9hzQbjcdXKpVH54jHR+QDI9JBKZoH5UhzQ6dlDz/1c27otCwi9eXIy9LcDaNTVCNHNUf0PfT/54f+t0rEQ/9pxdfcv19zTzdrPPSfHI2oRP2h//vQ/5bqMTcAy1FPKc02c577Z/XvD8XSvSnSHTnyXSml26IZt+dKvjXluCXq+ZbZffa51UeBW9Eya7ZCYN3MuUel3LyyDPe+ilwZnhzccEkr9mlNAgQIENg7AQOsvXNzFgECBFoqMDw9/uRG5K9GxKqWFtrT4jlmc2qetGXg7G17OtQ/J7CUArVcq3x+Jh6bcuVxfal6UI58UG40HxfV6qMi5UennB8dkR7XjHhcyvGYSHFgjjggtW7ItJTba+NaKUfKOyOn70Y0vxuR7kwR382R74gcd0SlcnvKjTsbUb29LzXuSLubt997QHxn26G1nW0MqRSBOOHy2urVB/bN/dxbWzxH+vTB/YOvvCidPjdE9kWAAAECJREwwCpJI8QgQIDAfxDIOQ1tH/+HyPGyomVSTpfesXt2+Oq1td1FZ1G/CwRyrTJ8dax+oLlsnxX7NVc3ZvPqvmrfo5uNfHRKcUyOvDYiHRWRn/jwO6S6YNMduYXvROSplNJ1Een63MzX5mbzhr7qsvt3NRoPVHdVd95V3XW/7wsd2dtShl4/tenluZL+PnLL3uk4v33nuGvVfiue+PmD33z//E5wFAECBAi0S8AAq13S6hAgQGCBAsPX1R7brPTdkFPss8BTl/zwSsq/dUn/xo8u+cIW7HqBddfX1lQqfc+MnJ/ejHR8Sg8NqFZHxPKH/zP3Ub5q10N0xwabEWk24qH7ec3miN0p55sjVa6MlC/Lufovff27rtycavXu2K5dtEvgBTPnH7Arz94QkQ5sV82fXSe/a3Jg41uKzyEBAQIECPy4gAGWa4IAAQIlFhiaHt8Ykc8pQcSpW/JtT9nTDd1LkFOENgucPF07qJqXHxuVOC7n5jEpp0MjNQ+JSAdHjsdHin3bHEm5AgVSSo2c83dyjttSJW5Ozbi1Gfn6FOnaZiNfu+zoxowBV4ENKmnp9dObxnKkkRLEu3rn3fVnbjvRR2hL0AsRCBAg8BMCBlguCgIECJRY4FnXnPuYFcua34yIg5c25l48OzDFeybXjLzJDd2XthOlXy1HGr6hdsDsrurj+5ZXD2o0mk9KlfT0yPkpKeIp379Bui8C8xbYnVK6OjebV0SqXJGjOVXJ+ba8rHprdcfs7Zuf691b85bskgOHpy44rFGZ/UbkKPzdVyk1XzXRf/YnuoTWNggQINB1AgZYXddSGyJAoNsEhqc2DTdS+lILn4A2X7J7lq+s9H/psA13zvcEx3WYQK1WOe3tx6Wb79ixuvq9xgtz5FdEzi+KiIM6bCfidqDAQx9JTDGRUv5cc1f1H/tu3b19eDiatajlSOFJqB3Y0z1GzrXK0HTfxZFi/R6PbfEBKeKKiYHRZ7S4jOUJECBAYBECBliLwHMqAQIE2iHwkqn3r7gvfW/uyUzHt6PeI9VIKT47sWbkpd6FVXQnlqb+8I7agc16dX2upFNTjqfn7w+qHhcRjy3BwHRpNmmVTha4N3LcnlLM3VD+upwrW5rV5uTWI0ev9z2ok9v6w+zrp855ek6VSyNiRaE7SumBao5nbR4YmXvHsy8CBAgQKKmAAVZJGyMWAQIEflTglKlz1laiclmU4IbuqZJfPLFm4+d1qHMEHhqCxn39qRLHNFM+NhrN41NKT4sUA4U/8atzGCUtj8B3I+LKyPmKlKpXNnLzuubK+vWXHl67qzwRJdmTwCnXXrBfpW92W0QM7unYJfnnj/zJ+b97fn/912up1lySWhYh0CkCe3FHiU7ZmpzdKWCA1Z19tSsCBLpQYGh6/CMR+XcK31pOl1UHZte5EXPhnfipAV4y9foVD+xzxH71B3Y/OiKvS83mK6JSeW7kXPjTLMspJlWXCMx9xPCaiPh0mo3P5FVpR/X+2Xs3H/f2+71bq5wdHpre9NqI9OGi06UUt93xYP2JV6+t7S46i/oECBAg8MgCBliuEAIECHSIwNAN44dEPc9ExKqiI+fIb9oysPHdRedQ//sCJ1xeW73vo/p+sdlMvxSVfGJEHBA59o+IKiMCPSiQI8fOSOmeyHFTyvmfIvKnJo7aeG2Ee2mV4Xp4+N1Xcz/P5j6yXOxXzhsmBzeeV2wI1QkQINBZAkW9ec8Aq7OuE2kJEOhxgXVTY7+XUvxZ8Qz5xmp/o9+7sNrfiRNurq3e98HlJzSbzZNy5BNSpKdGxFER4Wd6+9uhYicJpLglclwdKa6MZr60Go1/3jxY+7dO2kK3ZF03Pf7BFPmMEuznququ+nM2r63dV4IsIhAgQIDAHgS82HWJECBAoIME5m663Wj0XV+Gv1qnFB+Y+Ov666PmniEtvITSs7ePH7Qq58MbOZ4TES+NiFPL8C68Fu7Z0gTaJ5DzNTnS/06V9MVGs3nD3bsbN/koWWv5n719/PHLm3nu59jcu0QL/Eq5mpov2ty/8YsFhlCaAAECBBYgYIC1ACyHEiBAoAwCQ9fWjo++vq8V/Y6bHNHMuXn81sGzryqDSzdlGJo693Gpkn8rcn5djjg0R/SliEo37dFeCJRLIOXIuRGV2JVy/lQ95w9+ZfDsuafj+VpKgVyrrN/ed1XOccxSLruXa1198L9eefxFp1/U2MvznUaAAAECbRYwwGozuHIECBBYCoF1M+OfTzm/cCnWWuQan5kcGH3ZItfo+dOfO3XO2npUXx4pTk0pjs45H+7+VT1/WQAoWCBFujPnPBOV9K+50fxM32Djcz42vbimrN++6UW5mT5X9B9gIuLu3ZV0zGVrRm5b3I6cTYAAAQLtFDDAaqe2WgQIEFgigaHt48fnZr40RaxeoiX3fpkUr5zsH/3U3i/QY2fmWuWkmVjTl6tPi0rledHMPxcpjuwxBdsl0HkCKXZGji+knL/QiLTtwX0e9/Vth56xs/M2Ukzi4e/U9m3c0/fVSHFsMQn+Q9UPTg6M/m4JcohAgAABAgsQMMBaAJZDCRAgUCaBdTPnnpdy820lyHTF8/vrJ9aSe2H91F7knE7Y9o5VK/dddWClb/bVEfn3ItIRJeibCAQILE6gnnO+sBrVP30wdl/1xIHj7r8one7jaD/D9NSpsQ3NFOOLI1+Ss2+vr7jziEsPf+8DS7KaRQgQIECgbQIGWG2jVogAAQJLKzB0w/ghMdu8IVJavrQrL3S1lKOSRifXbDh3oWd28/HDudZX3953WmrGb0aK4yLi4IhY1s17tjcCPSqQI+KuiPh2RPxTtVr/yOYjazf0qMVP3fZJN71nVd+unXMmBxXuktNrJwdH/qLwHAIQIECAwIIFDLAWTOYEAgQIlEdg/dTYq5opPlb4Db5TfLeR68d8ZaD2nfLotDlJrVY55VfjGZW+vueluScF5jg1p9inzSmUI0HgXOAAACAASURBVECgaIEUzYj4Zsrp4qg0v9zYvfzirce89d6iYxVV/7QLT6ve9oynfSJHPr2oDP9eN+V0bWX37DM3r63dV3QW9QkQIEBg4QIGWAs3cwYBAgRKIzC8o7ay0ei7PCLWFh4qpz+f/JvZ/xq13vko4Qtmzj+gnhuHN3KeuwH76yJi7ubrvggQIPADgZyimXJclFP+i0Y9XXPYlUfdetHpvfNRw6Gpc4+L1Jz7ObWqyMsi59hdqTRPnOg/+xtF5lCbAAECBPZewABr7+2cSYAAgVIIDF039qzoS/8cORf7PX3uXQe5uX5y4OytpYBpYYjnbj//qfVmoxaRhyPHvpGir4XlLE2AQHcI5Ji7EXwz3xip+t7n9+/+y66/d2CuVYZm+q6IiOOLbmGK+PJEf/2F4X6NRbdCfQIECOy1QLG/7Ox1bCcSIECAwI8KDE2PfSIifq1wlRyfnxwcfXHhOZY4wEP3b9m98+dTM/9SjvSch58a6Gfoop3nCOduH+SLQE8KzH2s8F8ipS8uazYv/PLgxpluU5j7mHtO8fHC95Xirmqz/tTNg7V/KzyLAAQIECCw1wJefO81nRMJECBQHoHh6fEnNyJ/teiPaMyJpBSvnugf/Zvy6OxdkqGpcx8XkZ8RKf9yRPxKROy/dys5iwABAnsUaESOramaPxaV+MrEEaPXRkodPd190ZXv2mfnvrsuTzmO2ePuW3xAijQ+MTAy2uIylidAgACBFgsYYLUY2PIECBCYv8Di3o0yNH3uWyKaF8y/XmuOTJGm77/7W8dtO/HDs62p0LpV554c2LyueniupndFildERKV11axMgACBny6QUny7GdU391V2/f3m/xG7O/HegkMzY++OHGcW3eMUcc/d+654wtcPfvP9RWdRnwABAgQWJ2CAtTg/ZxMgQKA0As//t3Mfs/vB5o6I2K/gUDkivX1yYGRTwTnmWz6det05J+ZK+sMc6aRIcYTB1XzpHEeAQIsFvptS+maO/IlV+6z46893yBBm+Kravs0VfTfkiMe02OeRl5+7N2M9//Lk0Rs/XWgOxQkQIEBgSQQMsJaE0SIECBAoh8D6qXNOz5XqJyLnasGJckr56In+jVMF5/ip5YcvrvU1Du17RlTziyPSK8twg+EyOslEgECpBO5Okf8h5/jHFZVlX/hi/9vuKVW6h8PMfX9tHr7sUznyy0uQ76qdd9efte3E2s4SZBGBAAECBBYpYIC1SECnEyBAoGwC66Y3TaRIQ0Xnyin+csua0ddGKsldumu1ysmv3uex1dj9vJzz21Mq/r4sRfdIfQIEOlZgNjXjz/tSfv8Dt+9z86Unn/lAWXYyNHXOqZEqmwvPk2NXta96zOYjz7qh8CwCECBAgMCSCBhgLQmjRQgQIFAegfXTYyfniK2FJ0rRyJF/bkv/xi8WnWXdzHkviNzYlCKOjZT2j5z9/Cu6KeoTILB4gRyzkdJtkfJf7b69/u7LnlP73uIXXdwK66bH/iVFnLi4VZbk7L+dHBj99SVZySIECBAgUAoBL+BL0QYhCBAgsLQCQzNjfx45Xre0q+7Namnr5MDIur05c5HnpHXT5z0jRfM3I+eXRoo1i1zP6QQIECi7wH0RcUmO5oWzufnpywbbP8xaP7Xp93NKf1o4VIq7mg/2PX3r2rfdWHgWAQgQIEBgyQQMsJaM0kIECBAoj8Dw9HkDjWhcFRHLi06VUnrVRP/IJ1qeI0canq49oVHpe3bK8aYc8ZyW11SAAAECZRTIcVek+GCu9F24X+Pb13528E92tTrm8I7aykaj75sR0d/qWntcP8cbJwdH37fH4xxAgAABAh0lYIDVUe0SlgABAvMXGLp+0+ujkt4//zNadWS6p9qYHdh8dO2OVlU46bqxJyyrpg/kyC+NiKJvYN+qbVqXAAECCxNI0Uw53dzM+cwtA6OfbOU9CYe2j304mvHahQVsydG7qvvXH7v5oNrcO9J8ESBAgEAXCRhgdVEzbYUAAQI/KjAw9foVh6aD5x6/PlCsTMo58viWgdGNS5njlGvfsl9l2f6/HTn/ekR6ahnebbaU+7MWAQIElk4g5cjNb+eULs4p3r+1f/TypVs74nk3buqf3Z3m3n21cinXXfhaaTYiPXdyYEPx94FceHhnECBAgMAeBAywXCIECBDoYoH1U+ec3kyVv00RlSK3mVJq5BTPmFwz8vXF5Djh8v+ybN8DDjuxmdKvRUqvihyPXsx6ziVAgEAPCjQj58lU6ftIbubPTw5uuH0xBqflC6u3zlz/qYj4xcWss0Tnbj64/6gXXJRObyzRepYhQIAAgRIJGGCVqBmiECBAoBUCQ1Nj/xgpXtaKtReyZkpx0UT/6OkLOeffj33Rre/a54H7dz8n53hfivzkvVnDOQQIECDwEwIPRuR3NaLxp0/oP+7OvRn8DE2N/WKk+HQJbHdXV1TXbj78rOkSZBGBAAECBFogYIDVAlRLEiBAoEwCQ9vHnhXNuKzwTDnqEellk4Mj/3e+WU66qvbovhXLahH5P0XEE6Lgd5LNN7fjukFg7iVS7oaN2AOB+Qh8L3J8rZJS7ZKBkYvnc8K/HzM0PbYtIp6xkHNacmyO900Ojr6xJWtblAABAgRKIWCAVYo2CEGAAIHWCgzNjL03cvxha6vMa/Wr9837P+Ozg2/4mU/EOu3C06o3P+Np6yuRfzMiXhER+89rZQcRIECAwGIFmpHj8lTNH6usXPV3mw990yM+fGNoeuwtEXHBYov+rPPnRsjz+WUlRdzT2DV7/Na177ixVVmsS4AAAQLFC8znZ0LxKSUgQIAAgUUJnDz9roOqadc1pbhnVG6+ZnLw7I//+IZeMHP+ATubs8/uq6TxnOPERW3YyQQIECCwWIHvRYp350b144d87V+/ddHpF/2H+0qt+9Z5j6rMNq7JEY9fbKFFnZ+imXP6z1sGRj62qHWcTIAAAQKlFzDAKn2LBCRAgMDSCKy7fuwNqRJ/vDSrLWKVHPWUYs3EwOhND62ScxqaGn9zVGIkIvab5x/cFxHAqQQIECCwAIEHI2JLI+fXfWVw48y/nzc0PfbhiHjtAtZp1aG37Ly7PrDtxNrOVhWwLgECBAiUQ8AAqxx9kIIAAQKtF8i1yvqZvstylODdTSnes6yZP1BPlTfniF+IyIe2HkAFAgQIENhbgZxjdyXF1oj4UCPHtyopfSUiF/u7xEN/EOk7dWLgbV/Z2305jwABAgQ6R6DYHzqd4yQpAQIEukLg4adF/X0J3uVUfzhDtStgbYIAAQI9JZB2ReQVhW85xacm+0dfWXgOAQgQIECgLQIGWG1hVoQAAQLlERiaGb8ocvaCv6iWeLhdUfLqEiDQRQI5orkiVY79Uv+G67toW7ZCgAABAo8gYIDl8iBAgECPCZwydc7aSqp8s8e2bbsECBAg0BUC3/8rQIrYODEwOtYVW7IJAgQIEJiXgAHWvJgcRIAAge4SGJoae3ekOLO7dmU3BAgQINATAjnur/YtH9h85Ftu7Yn92iQBAgQIPCRggOVCIECAQC8KzD35b2Z8e0Q8qRe3b88ECBAg0JkCcx8drEa88pKB0bn7OfoiQIAAgR4SMMDqoWbbKgECBH5UYGjH2OuiEX9OhQABAgQIdIxATtsmB0aeGSlyx2QWlAABAgSWRMAAa0kYLUKAAIHOEzgtX1i9dfr6L0eK9Z2XXmICBAgQ6EGBRqXSfO4la86e7MG92zIBAgR6XsAAq+cvAQAECPSywPrpTc/LqfLFyNnPg16+EOydAAECHSCQUvzVRP/ob3dAVBEJECBAoAUCfmFpAaolCRAg0EkCQ1Njn4wUv9xJmWUlQIAAgd4TqK6oDm4+/Kzp3tu5HRMgQIDAnIABluuAAAECPS5wyo0XHFqZnf1mRDzKHUV6/GKwfQIECJRVIMUbJ/tH31fWeHIRIECAQOsFDLBab6wCAQIESi+wfmbT+Tmnt5Y+qIAECBAg0IsC36ruX3/y5oNq9/Xi5u2ZAAECBL4vYIDlSiBAgACBhwSGpseujYijcRAgQIAAgRIJNHOOX90yOHpRiTKJQoAAAQIFCBhgFYCuJAECBMoosG7q3Nek1PxYGbPJRIAAAQI9K/C5yf7Rn4/kQ+49ewXYOAECBB4WMMByKRAgQIDAQwLrvnXeoyqzjWtyxOORECBAgACBUgjk9NrJwZG/KEUWIQgQIECgUAEDrEL5FSdAgEDxAi+Zev+K+6v3n5qbjT+PiDXFJ5KAAAECBAj8QGD2/z1k5I/rjXjfpUePfpsLAQIECPSugAFW7/bezgkQIBDrrzn/KXl5/R8jx+ERUUFCgAABAgRKKvBgJSpvv2RgwztLmk8sAgQIEGixgAFWi4EtT4AAgTIKrL/pnYN51653RqSfi4iVZcwoEwECLRSYewWYW7i+pQm0TuCanNIf9d04+7HNz63VW1fGygQIECBQNgEDrLJ1RB4CBAi0UODZU7XDlqW+M1KkkYjsZ0ALrS1NgAABAq0TyBEXp6hsnBzYsLV1VaxMgAABAmUS8MtLmbohCwECBFokcMLlH1q2+sA7fjkifyQi9m1RGcv2kMDcm3e8iOihhtsqgdIK5E/XdzV++9K1tbtKG1EwAt0u4F293d7h0uzPa8/StEIQAr0m4Cdduzp+6vbxFzab+X2R4pjI7nPVLnd1CBAgQKBNAjnfEREfOfiKozdedPrpjTZVVYYAAQIE2ixggNVmcOUIECDQLoGTdpx7TF+jeXZEOj0iV9tVV512ChgEt1NbLQKtE/Dv8hLZXpNzvP2Be2789LYTPzz39EJfBAgQINBFAgZYXdRMWyFAgMCcwPCO2oH1xrLfTpH/iAgBAgQIEOg5gZQ+kxuVN2w56qztPbd3GyZAgEAXCxhgdXFzbY0Agd4TGNox/uJozN3nKh3mJu291387JkCAAIGHBVLsjGb6H/vGfm/87OAbdnEhQIAAgc4XMMDq/B7aAQECBGJo+/jx0cznRoqXuM+VC2KxAm7QvlhB5xMgUCKBa1KK8Yn+0b8pUSZRCBAgQGAvBAyw9gLNKQQIECiLwLOnavsvT9UzIqe3R4p9ypJLDgIECBAgUCaBFOl/VxrpbZuP3nBtmXLJQoAAAQLzFzDAmr+VIwkQIFAqgVNmxk6sRLokcl5dqmDCEOgAAe8y64AmiUigBQIp0psmBkbeExFz3wZ8ESBAgEAHCRhgdVCzRCVAgMCcwAtmzj9gd278VY788xGxkgoBAgQIECCwAIEUV1ZS8/WXrDl7cgFnOZQAAQIEChYwwCq4AaUv76nOpW+RgL0jMLyjtjI3lv1G8/tPF9yvd3ZupwQIECBAoCUCf1rN9Qs2D9b+rSWrW5QAAQIEllTAAGtJOS1GgACBFgjkSKfcdMEh1V2zn8opntOCCpYkQIAAAQK9KnBHivwrj+8/+pKL0umNXkWwbwIECHSCgAFWJ3RJRgIEelbghMv/y7LVBxz+jkjp9RGxb89CdPDG3Wupg5snOgECvSLQiMhbYnfl1yaPG7mlVzZtnwQIEOg0AQOsTuuYvAQI9IzAuplNL6jkdF6OOLFnNm2jBAgQIECgOIFbohLnTn6s/oGo1ZrFxVCZAAECBH6agAGW64IAAQIlE1j3rfMeVanX/yDnyoaIvKxk8cQhQIAAAQIFCrThBq05fzlXGr+7pb92fYEbVZoAAQIEfkzAAMslQYAAgRIJnDIzdmIlx2ci4qASxRKFAAECBAj0msDuiPSmyYGRP+m1jdsvAQIEyipggFXWzshFgEBPCTx7qrb/suh7b0rxqxGxuqc2b7MECBAgQKCMAik1IufJalRfu3ngrOkyRpSJAAECvSRggNVL3bZXAgRKKTA0M/78//eOqw9EzkeVMqBQBAgQIPB9gTZ8eg11KQV2RspvuvPBxl9evba2u5QJhSJAgEAPCBhg9UCTbZEAgXIKnPSVN65a9vjHvivn/PvlTCgVAQIECBAg8EOBtG35yvTiLx224U4qBAgQINB+AQOs9purSKBYAX89Ltb/4erDU2PPaaT4eESsefhv+qXIJQQBAgQIECDwiAJ3RG6eNTl49l9wIkCAAIH2ChhgtddbNQIEelxg+OJaX/PwZbUc+cyIWNXjHLZPgAABAgQ6UCDllPInl6X0+i+tGbmtAzcgMgECBDpSwACrI9smNAECnSgwvOPcYxqN5j9ExGAn5peZAAECBAgQ+KFAithVSfllj1tz9MUXpdMbbAgQIECgtQIGWK31tToBAgQeEjh1euwNzYjzPGHQBUGAAAECBLpKYDal+P/Zu/c4t+o6/+Ofz0mmLS3ITaQgtzaZFqkCWldtO5kOoLIq4m2L6wVZXQVdf6sugtBOBgOTtKCI62VVVtcbXth2hVVZUQSZTqYFlYuAxdJJWm5CAZV72+kk5/PbKboqFMjMJCfne76veTz2n/Wc7/fzfn4O0+QzyTkXDWby/5ioVIRBAAEEYijAACuGTaEkBBBIjkDPpk/MrNdHLxSV14lZKjnJSIIAAggggAAC/yegclMgqfetziz9JSoIIIAAAq0RYIDVGldWRQAB3wVMtLvS/3pT/bqI7Ok7B/kRQAABBBDwQMDE7KOpu+tfHDiqsM2DvEREAAEEIhVggBUpN5shgIAPAktWLkltfvHhXxbVd/uQl4wIIICA8ThVLgIE/ixg8ovfb6/lbp1X2A4LAggggEDzBBhgNc+SlRBAAAHJDS8/TILwYjF5Ie/nuCAQQAABBBDwVuBeC+3koTl9l3krQHAEEECgyQIMsJoMynIIIOCvQHel/xQTPU9EdvdXgeQIIIAAAgggsENApW4mn9ot85yzLtcPjaCCAAIIIDA5AQZYk/PjbAQQQEB6NhX2qNfSF4nKcXAggAACCCCAAAJPEhjuCORVP5udvwMZBBBAAIGJCzDAmrgdZyKAQCsFxn47jd1UJeY/ueHSS0Tl+yJ2QMxLpTwEEEAAAQQQaJuAPWSmJw915le1rQQ2RgABBBwXYIDleAMpHwEE2iPwxxu1f0gC7RPjKYPt6QK7IoAAAggg4JTAdhX50u9Gaqe39wbvjvyV0KnWUiwCCEQhwAArCmX2QACBRAnkhpfvo1o/3yQ4UcT4PZqo7hIGAQR8FOApij52vX2ZTeS69NTU2wYOXFppXxXsjAACCLgnwBsv93pGxQgg0EaBrjtWzNbRsCxi+7exDLZGAAEEEEAAAbcFtklK31ie1fsTt2NQPQIIIBCdAAOs6KzZCQEEXBawQpDbOOUUkbAoJnu5HIXaEUAAAQQQQCAGAipbRORLu4bPWXZ5J08pjEFHKAEBBGIuwAAr5g2iPAQQaL9A1x0r9gxq9bPM5MM7HorNDwItFOCrTC3EZWkEEEAghgIqcmld0x9ZkznzzhiWR0kIIIBAbAR4IxabVlAIAgjEUWDBusJeHVPSV5nKkXGsj5oQQAABBBBAIAkCek9qarB44IClVVEXnsOcBHMyIICAawIMsFzrGPUigEBkAt0bz+22sDb2uOvnRbYpGyGAAAIIIICAnwImj6vYhwc7+/7DTwBSI4AAAs8swACLKwQBBBB4skChEOTenj5NAlkuIimAEEAAAQQQQACB6AT0c7Wpu5xxzYGnbo1uT3ZCAAEE4i/AACv+PaJCBBCIUKBnXWHXcEr6K6by1gi3ZSsEEEAAAQQQQOAvBdbWZeqb1mZPvx8WBBBAAIEnBBhgcSUggAACfxToGS4cUA/SvxDTmSLG70euDAQQQAABBBBop8Cj6XqYu3ruWTe1swj2RgABBOIiwBu0uHSCOhBAoK0CizcWXx+G9gURPaCthbA5AggggAACCCDwJwGVh7RuZw7O6bsQFAQQQMB3AQZYvl8B5EfAc4H5153cMX33A04SDT4rIrt4zkF8BBBAAAEEEIifQF1USqmgtmJgVmFb/MqjIgQQQKABgbHpkzVw3DMcwgBrcn6cjQACDgssWbkkde+LD/+Mqn7Q4RiUjgACCCCAAAJ+CFyVStWOY4jlR7NJiQACTxVggMVVgQACXgrMr56x+y7hbpeqylFeAhAaAQQQQAABBFwUuHk0lXrDtbOW3u5i8dSMAAIITEaAAdZk9DgXAQScFDhq+Jx5NQ0uFZFOJwNQNAIIIIAAAgj4K6CyOUjp21cf0nu1vwgkRwABHwUYYPnYdTIj4LHA4krpqFDsShEJPGYgOgIIIIAAAgg4LmAqbx+aXftP0ULoeBTKRwABBBoSYIDVEBMHIYBAEgS6q6UPm9kKbtaehG6SAQEEEEAAAc8FTEZV7bOD2b7TPJcgPgIIeCLAAMuTRhMTAZ8FejYVptVrHctFbexm7VN8tiA7AggggAACCCRIQLWuohePhNv/6eedhUcSlIwoCCCAwFMEGGBxUSCAQKIFFqwr7JWelv6smLwj0UEJhwACCCDghMDYE8R5Ae5Eq1wr8mdhrePENYeecY9rhVMvAggg0KgA/342KsVxCCDgnMASW5naXNnwS1F5sXPFUzACCCAQa4Gxl5Bjoxh+EEAgNgIqt4ejjxy+5tBPPBqbmigEAQQQaKIAA6wmYrIUAgjER6Bn04pD6vX6T0RkTnyqohIEEEAAAQQQQKCVAnqPmLy+3Nl7Qyt3YW0EEECgHQIMsNqhPuE9+WvnhOk40SuBnuH+nnqgl4jJnl4F9zEsvxZ97DqZEUAAAQSeWWBENXj7YGbZJUAhgAACSRJggJWkbpIFAQSke2P/8Rbq90QkDQcCCCCAAAIIIOCngJpY+MFyZ98X/cxPagQQSKIAA6wkdpVMCHgq0LWh+CEN5DwRmeYpAbERSK4An7ZLbm9JhgACrRLYLqr/Vp49eppoIWzVJqyLAAIIRCXAACsqafZBAIGWCYzdrP2+jbf1menHW7YJCyOAAAIIIIAAAg4KmNq/pYP6aQOzCtscLJ+SEUAAgf8TYIDFxYAAAk4LzLcLO6ZX7v+MqH7A6SAUjwACCCCAAAIItEhAxVY+Pr3+7uv3L2xp0RYsiwACCLRcgAFWy4nZAAEEWiXwmuHPTn1MH/6JiHaLCL/PWgXNugi0UMD4j7eFuiyNAAII/ElATdRuSW2rLRqYV3gMFwQQQMBFAd7wudg1akYAAckNL99HJLxYVI8SMX6XcU0ggAACCCCAAALPIqAi19U1/ZY1mTPvBAsBBBBwTYA3fa51jHoRQEAWrS/sH6Q7viNii+FAIFoB7iQerTe7IYAAAgg0W8BMfhWK/d3azr5qs9dmPQQQQKCVAgywWqnL2ggg0HSBRevP2y1I124WsUOavjgLIoAAAggggAACHgiYyH0zptYO+8mBhT94EJeICCCQEAEGWAlpJDEQ8EGgZ9PyQ+v18AoROdCHvGREAAEEEEAAAQRaKPBAqPLaNZn8dS3cg6URQACBpgkwwGoaJQshgEArBXo2FV9Rr8t3RYRPXrUSmrURQAABBBBAwCeB+0X17eVM71U+hSYrAgi4KcAAy82+UTUCXgl0VQtz1NJDIrKPV8EJiwACCCCAAAIItF7gYU2njho8eOmvRGXs4bD8IIAAArEUYIAVy7ZQFAII/Emgq7Jivkp4tYjthgoCCCCAQKsEeEBBq2RZFwFHBLaa2WuHOvsGHKmXMhFAwEMBBlgeNp3ICLgi0F1d/lqz8FsisqcrNVMnAggggAACCCDgooCJbQlE3zOYzf+ni/VTMwIIJF+AAVbye0xCBNwTMNFFm0qvDEL7nojwySv3OkjFCCCAAAIIIOCmwLZQ7R1rZucvFVW+TuhmD+NTNR/ujU8vElIJA6yENJIYCCRJIHdb8WWSkrKITElSLrIggAACCCCAAAIOCNTVUq8d7Fw69uRnfhBAAIHYCDDAik0rKAQBBMYEFt9efFNYk++IyDREEEAAAQQQQAABBNohoKMq8t7BbO8327E7eyKAAAI7E2CAxXWBAAKxEchVi29RkW+YyYzYFEUhCCCAAAIIIICAnwLbNdD3Dc5miOVn+0mNQPwEGGDFrydUhIB/AmbaXT1vgUntZyIy1T8AEiOAAAIIIIAAAnEU0FGT4Pihb41cIYVCGMcKqQkBBPwRYIDlT69JikBsBbqH+4831f8SkY7YFklhCCCAAAIIIICAnwJ1UzlxKJP/rp/xSY0AAnERYIAVl05QBwKeCnQNF5doIF8Xk+meEhAbAQQQQAABBBCIu8B2E33fEPfEinufqA+BRAswwEp0ewmHQIwFTLSnsmJxXeqXiXLPqxh3itIQQAABBBBAAIExgW2qwVsGZy+9XFTtr0nG3lY+6f+FGQIIINBkAQZYTQZlOQQQaEygq3LOfNVUWcx2aewMjkIAAQQQQAABBBBor4COBIG+avXsZeX21sHuCCDgowADLB+7TmYE2izQVen/WxVdKSK7tbkUtkcAAQQQQAABBBAYj4DKFrHgHeXssv8ez2kciwACngs04YOaDLA8v4aIj0DUArnK8kWi4Q/EZK+o92Y/BBBAAAEEEEAAgaYIPCKqby5neq9qymosggACCDQgwACrASQOQQCB5gjkbi3tJ1PsVhHZozkrsgoCCCCAAAIIIIBAmwQerQfyorWz83e0aX+2RQABzwQYYHnWcOIi0C6BRcPnzAskGBTlk1ft6gH7IoAAAggggAACTRZ4WNPhUYOHnHVjk9dlOQQQQOApAu0dYDXhO5D0FAEE4i+QGy4cJtrxfRHLxr9aKkQAAQQQQAABBBBoWED1dtP6G4dmn3VTw+dwIAIIIDABgfYOsCZQMKcggIBbAgvuumCv9MiWtSIy163KqRYBBBBAAAEEEECgQYGqWLCg3LnsgQaP5zAEEEBg3AIMsMZNxgkIINCowIJ1hb3S0zpuFLODGj2H4xBAAAEEEEAAAQRcFNB7UtOnHjGw/2m/c7F6akYAgfgLMMCKf4+oEAEnBbruWLGnbq9dKqqLnQxA0QgggAACCCCAAALjElDVtRbqG/kk1rjY62hjGwAAIABJREFUOBgBBBoUYIDVIBSHIYBA4wI9mwrTavWOb6vYmxs/iyMRQAABBBBAAAEEXBdQlR+OTpn+1msOPHWr61moHwEE4iXAACte/aAaBNwXsEKQq3b8QMRe534YEiCAAAIIIIAAAgiMV0BVf7rv7M7XrNIT6uM9l+MRQACBpxNIxgCLpxlyhSMQC4HC/w6vrqp0fF4CO1lMUrEoiiIQQAABBBBAAAEEIhUwkTBQ+dq+1990yqoTVjHEilSfzRBIrkAyBljJ7Q/JEHBKILeh+DEJ5DyniqZYBBBAAAEEEEAAgZYIqGh+MNtbasniLIoAAt4JMMDyruUERqA1At2V0rtM7ButWZ1VEUAAAQQQQAABBJwUMH1fubP3K07WTtEIIBArAQZYsWoHxSDgpkBXZcV81fpqMZnhZgKqRgABBBBAAAEEEGiJgMoWTcmrBg/Jr23J+iyKAALeCDDA8qbVBEWgNQI7hldSL4vILq3ZgVURQAABBBBAAAEEHBfYJnVZXJ6b/4XjOSgfAQSeJBDlLckZYHH5IYDAhAW67lgxOxitrzGRmRNehBMRQAABBBBAAAEEfBB4ICWphQPZpRUfwpIRAQSaL8AAq/mmrIiAHwImmqsWfyUih/sRmJQI+CgQ5d/UfPQlMwIIIOCdwLpypvdFomreJScwAghMWoAB1qQJWQAB/wQW3HXBLumRLZeJyNH+pScxAggggAACCCCAwIQFzFZvebj+2utfWtgy4TU4EQEEvBRggOVl2wmNwMQFDltXmPLcqelPmug/ixi/QyZOyZkIIIAAAggggICXAqryhRnhfade3vm5ES8BCI3AOAX4TPwTYLz5HOeFw+EI+C6Qq5ROF7FP+O5AfgQQQAABBBBAAIGJC6jK0sFM/tyJr8CZCCDgmwADLN86Tl4EJiHQVV3+brXwiyIydRLLcCoCCCCAAAIIJFGAjwgksautzDQidfvn8ty+L7dyE9ZGAIHkCDDASk4vSYJASwVy60uHS9oGRGTPlm7E4ggggEAMBcbuNsyLphg2hpIQQMBtAZUHNUwdM9i59Ea3g1A9AghEIcBrsSiU2QMBxwUWbiwenAplvYhMczxKDMvnz9UxbAolIYAAAggggEBEAmayPajboYOH9m2KaEu2QQABRwUYYDnaOMpGICqBJesKUzZPSf9CVI6Iak/2QQABBBBAAAEEEPBIQPXmmbNH/2aVFrZ7lJqoCCAwTgEGWOME43AEfBPIVYoXi8hbfctNXgQQQAABBBBAAIHoBMxs5VBnH685oyNnJwScE2CA5VzLKBiBaASW2MrUvZXhvKoVotmRXRBAAAEEEEAAAQR8FlCzs/fNzu1fpSfUfXYgOwII7FyAARZXBgII7FSgp9r/yroEPxazFEQIIIAAAggggAACzy7AAx+e3egZj1AdG1wdW870XjXJlTgdAQQSKMAAK4FNJRICkxVYNFx8RSByhajsNtm1OB8BBBBAAAEEEEAAgXEIPBqavHpNZ/7acZzDoQgg4IEAAywPmkxEBMYj0HPb+c+tp7b9TEReNJ7zOBYBBBBAAAFXBfjUjKudo+6kCqjIr82Co8udyx5IakZyIYDA+AUYYI3fjDMQSKzAYesKU/aekr5aVBYmNiTBEEAAAQQQQAABBGIvoCJrfzdSO+rWeTyZMPbNokAEIhJggBURNNsg4IJAd7X0eRP7gJgELtRLjQgggAACCCCAAAIJFVAJxfTfytneDyU0IbEQQGCcAgywxgnG4QgkVaC7Wnq7mX07qfnIhQACCCCAAAIIIOCegIb6jsE5vd9xr3IqRgCBZgswwGq2KOsh4KBAbn3hcEmn14jIrg6WT8kIINAEAe4B1ARElkAAAQQQaIGAPiq10a7yoYWbW7B4k5cce3s99i8qPwgg0AoBBlitUGVNBBwT6KoWf6MmhzpWNuUigAACCCCAAAII+CBg8ptyZ/4wH6KSEQEEnl6AARZXBwIeC/RcXZhWPyj9QzF5pccMREcAAQQQQAABBBCIuYCZ/DR9d+34gaMK22JeKuUhgECLBBhgtQiWZRFwQSBX6T9dJDhPxPhd4ELDqBEBBBBAAAEEEPBXwEzltKFM/gJ/CUiOgN8CvGn1u/+k91ggN1w6VtR+7DEB0RFAAAEEEEAAAQR2KhDfezmFob56zZzen9I4BBDwT4ABln89JzECsmj9ebsF6dF1InIgHAgggAACCCCAAAIIOCRwR2qk9sKBeYXHHKqZUhFAoAkCDLCagMgSCLgksOCuC3ZJb3v8p6K6yKW6qRUBBBBAAAEEEEAAgR0CJoOpdO3YgVncD4srAgGfBBhg+dRtsiJghSBXSZ8pKiUwEEAAAQQQQAABBBBwVSAQOWN1pna+aCF0NQN1I4DA+AQYYI3Pi6MRcFogt774BknLJSISOB2E4hFAAAEEEEAAAQR8FwgttDcMzem7zHcI8iPgiwADLF86TU7vBborxQNFdK2JHeA9BgAIIIAAAggggAAC7guo3lmbYguvOTD/W/fDRJQgvvfnjwiAbVwWYIDlcveoHYFGBZ746uDVotLd6CkchwACCCCAAAIIIIBA3AVU5OrBTO2VfJUw7p2iPgQmL8AAa/KGrIBA3AW0u1LsNZH+uBdKfQgggAACCCCAAAIIjFdARU4fzOY/teP27vwggEBiBRhgJba1BEPgCYHcpuWLJQx/JsZ9r7gmEEAAAQQQQAABBJInYCKhqSxek8kPJS8diRBA4E8CDLC4FhBos0Arv4beM3zeAXUZHRSVWW2OyfYIIIAAAggggAACCLRMQEUrlpbu8iG997ZsExZGAIG2CjDAais/myPQQgETzVVLl4jYG1u4C0sjgAACCCCAAAIIIBAPAbP/Knf2LYlHMVSBgGMCrfxkRZMoGGA1CZJlEIibQPfG0gfN5DNilopbbdSDAAIIIIAAAggggEALBOoi9oFytu/LLVibJRFAoM0CDLDa3AC2R6AVAovW989NdQTXm9mMVqzPmggggAACCCCAAAIIxFLA5PGUpo4cyC6txLI+ikIAgQkLMMCaMB0nIhBPgUXrz9stSI+uFpEXx7NCqkIAAQQQQAABBBBAoIUCKr9IbasdMzCv8FgLd2FpBBCIWIABVsTgbIdAqwW6KsXzVORjrd6H9RFAAAEEEEAAAQQQiKuAipUGs335uNZHXQggMH4BBljjN+MMBGIrkBsuHStq/y0i02JbJIUhgAACCCCAAAIIINBqAZUtgelxq7O9V7d6K9ZHAIFoBBhgRePMLgi0XKDn/sKu9UfSt4jIIS3fjA0QQAABBBBAAAEEEIi/wMZdHp96+BVHnP54/EulQgQQeDYBBljPJsT/joADAktWLknd+5IjLlKRtzlQLiUigAACCCCAAAIIIBCJgJp89ehs7X0FLYSRbMgmCCDQMgEGWC2jZWEEGhMY+4/QGjv0aY9aXCm+KRS5ZJLLcDoCCCCAAAIIIIAAAokTMJPjhzrzP0xcMAIh4JkAAyzPGk7c5Al0V4oHmthaET0geelIhAACCCCAAAIIIIDApAXukLQuKB/Se++kV2IBBBBomwADrLbRszECzRHIDRd/KCrHNWc1VkEAAQQQQAABBBBAIHkCJuGlQ9mz3vznZM34HkTynEiEQJwFGGDFuTvUhsCzCOSqxbeIyUoRCcBCAAEEEEAAAQQQQACBnQuYSJhK63GrD+m9HCMEEHBTgAGWm32jagRkUfXcgwKrrRORXeFAAAEEEEAAAQQQQACBZxZQkYcDq71woLNwN1YIIOCeAAMs93pGxQjI/Osu7Jix1wPftlCWwIEAAggggAACCCCAAAINCph8O3V37R8GjirUGjyDwxBAICYCDLBi0gjKQGA8Arnh0ntF7cvjOYdjEUAAAQQQQAABBBBAYOwJ4HrSULb3m1gggIBbAgyw3OoX1SIgPZs+vUc9fPxWMdkPDgQQQAABBBB4ZgETEV7wcpUggMBfCqjo3fXaw4etOfQTjyKDAALuCPDvuTu9olIEnvjq4B4PfN9EXgMHAggggAACCCCAAAIITFRAf5DKjL5lQPkq4UQFOQ+BqAUYYEUtzn4ITEKgu7LiaJP6FSKSmsQynIoAAggggAACCCCAgN8CJrUwkKPWZPJDfkOQHgF3BBhgudMrKvVcYNH6wv5BR8cGMZvhOQXxEUAAAQQQQAABBBBohsCjdall12YL9zdjMdZAAIHWCjDAaq0vqyPQNIHuSvFCEzm5aQuyEAIIIIAAAggggAACvguE+rnynN4P+c5AfgRcEGCA5UKXqNF7ga5K/9+qBD8SMf6b9f5qiAXAVjHZKmrbRYKaWBiYakpFponodBHriEWVFIEAAggg0GYBHRWxLSayTc3qokEoEqbFdIqo7CKy4//4QaDdAqFZ6pihzqUD7S6E/RFA4JkFeDPMFYJA3AVMNFct3iYinXEvlfqSKmB3iAQ/CKR2eb1jyrVDXxt5WD7+8bEHe/31z9ln65KPr9N7Nh2eTYl0SV2ON9VX8QYlqdcFuRBAAIGnCGxVkSvE7If1ugztP/fmyqqz59nT/ZvR9e6pu6csfEVYG3s4TXi8iB6MKQJtETD5TTmbnycqT31905aC2BQBBHYmwACL6wKBmAt0Vfr/VSX4EJ++inmjElOemqjcohJ+1VSvqYdTb1+bOe0BUZ3QC7qxJ2futvcfnh/WanNMg+PE7B2isldiuAiCAAIIeCygIg+byEVq9sPQ0pU/jI7cfeu8wvYJkZhoz4bC3vWO9Gw1XWAmJ4rYS0SE9ysTAuWkcQqMfc2hNJjN943zPA5HAIEIBfgHIUJstkJgvAK54dJLRO368Z7H8QhMQOB2EblMTL9W7uy9YQLnN3RKz6bCtLCefoOZvl3UjhaRXRs6kYMQQAABBOIisEVFrwzVLt4tfM4ll3d+aKRVhY29DlK1k0zkOBGZ3ap9WBeBPwmohocPZs66BREEEIinAAOsePaFqhCQnqsL6foB6atEpRsOBFokMPapqvvUrBhk6xcOaKHWon12uuzCmz75vNSM7f8uYmNfM5we5d7shQACCCAwboEtInpFKjX6gYFZhc3jPnsSJyyxlal7N244RU36RHRfPpU+CUxOfWYBkytmZue8dpWeUIcKAQTiJ8AAK349oSIEdgjkqsWPiMmn4UCgJQIqoYThKal0+F8DswoPtWSPBhddeGvx4GCKrFCRtzV4CochgAACCEQooCaraik5fe3s/J0i7btHUM+NhT3C3aa8wTT8qpgEERKwlUcCgQb/tDqz7IseRSYqAs4IMMByplUU6pNAz6bCHmE9/WsTeb5PuckaiUBdVL4pKe0tH9J7byQ7NrKJFYKuaurVavopUTmskVM4BgEEEECg5QK3BqKnrc6M/kS0ELZ8twY3yN1e2k9HrWgqJ4lIqsHTOAyBRgXuSI3UXjgwr/BYoydwHAIIRCPAACsaZ3ZBoGGBsY/Jb64OXyJixzd8Egci0JCAbVaVDw5m+i5p6PA2HGRm2l0tXWgmJ6nKlDaUwJYIIIAAAqIjYnbRYLb3ZJ3gQzyiQOyqrHiTSu0LIjoziv3YwycBvXjmDb9656oTVvFVQp/aTtbYCzDAin2LKNA3ge7quS8yq18vYh2+ZSdvSwVutY5U19DBSx9s6S7NWLxQCHpOnHp0Xeo/4SsizQBlDQQQQGAcAiphSlLHDlw08jMpxOdTV0+XoOuOFXvq9voQn94dR485tBGB7bVUcMQ1s5atb+RgjkEAgWgEGGBF48wuCDQk8OrNn5yx5dGR61Tl0IZO4CAEGhP4Smqk9i+ufRQ+N7z8MNHwUhGZ01hMjkIAAQQQmIyAigzXLXzTms6z1k1mnajPff09hekPb+n4tImdHPXe7JdgAZObUunaKwZmFbYlOCXREHBKgAGWU+2i2KQLdA0XT1WVTyU9J/kiEwjN5BOvzNZ6CzG6d8l40h99W/H5oym7VET/ZjzncSwCCCCAwPgETOS6el3eeM3c/G/Hd2Y8ji5YIbiqkiqK6hki3OA9Hl1xvwpT+eBQJv8F95OQAIFkCDDASkYfSZEAgZdfW3jO1Oem7zSR3RMQhwjtFwhVbMVgti/f/lImV8Erq+fuPiKjN4vpQZNbibMRQAABBJ5G4K5UasbhA7P+pa1PpW1Gd3KV/nNEtJchVjM0WUNFfrdvZvpBq/TUrWgggED7BRhgtb8HVICASKEQdL8zdamJcuN2roemCJjJuUOd+aVNWSwGixxz9/K9t2+tXyOqnTEohxIQQACBJAlsSNVriwbmFn6XlFBdw/3n6hOfxOIHgUkLmNnKoWz+7yXGDzSYdEgWQMARAQZYjjSKMpMt0P2bc15kU4JrxWR6spOSLiKBrxyTqZ3i6tcGn86o5zeFQ+od6StFJBORI9sggAACSReoplKpVw7MWnp7koLu+DphNf0lEXlfknKRpW0Cj5kG84cyyza0rQI2RgCBHQIMsLgQEGizwIK7LtglPfL4ehG+HtXmViRiezVZH2yv/Y1rN2xvFH/x7aWjwlG7XFSmNnoOxyGAAAII7FRgWyD62tXZ3quT6NOzrrBrfWr6OhGZm8R8ZIpWYOz11Qy578jLOz83Eu3O7IYAAn8pwACL6wGBNgt0DRdPVJVvtrkMtk+AgIncVx+pHXbNvMIfEhDnaSP88b+Zb/BHmCR3mWwIINBiAZNA31We3futFu/T1uUXrCvslZqavlVF9m1rIWyeCIHA5ITVnflViQhDCAQcFWCA5WjjKDsZAmP39RndFt5kIs9PRiJStFEgVNO3DXb2rmxjDZFs3bOpMC2sp39kIkdFsiGbIIAAAgkTUJGfBana6wZmFbYlLNpT4nQPl04wte9yU/ekdzqSfLdv0fSR12fOfDiS3dgEAQSeIsAAi4sCgTYKdFVLn1ezD7axBLZOjsBF5Wz+XcmJ88xJXj5ceE6HpjfwV3VfOk5OBBBolsDYp3Wt9kjnmkM/8Wiz1oz7Ornh/otE9Z1xr5P64i+gYp8azPadFv9KqRCBZAowwEpmX0nlgMCCtRfskn7elrEn/nDjdgf6Fe8S1ULdfsiazNl3xrvO5lbXXS2eaSYrmrsqqyGAAALJFlCTpYOd+XOTnfKv0y2qnntQYPXbRYz3Pj41vjVZH9ny0D7Pvf6lp4y2ZnlWRQCBZxLglzjXBwJtEOi5upCuH5QaENNFbdieLRMloKYp/cDgrGUXJipWA2EWrP2XXVL77H2NqhzRwOEcggACCCAgcmMqVVvow1cHn9zsXHX5B8TCL3ARIDB5AbvymEz92KQ97XnyLqyAwNMLjA2erAlADLCagMgSCIxXYFG12BWYjD31Jz3eczkegScJPGAdqblDBy990EeZrkrxTSpyiY/ZyYwAAgiMXyB4Uzm77L/Hf577Z4zd0D09Nb1eRPZxPw0J2ipgUpNQFpXn5n/R1jrYHAEPBRhgedh0IrdXYP51J3dM3/2gXwqfGmlvIxKzu36snO39ZGLijDPI2A3d6/X0vSKyxzhP5XAEEEDALwHVB3cNd9vv8s4PjfgV/M9pu6ulM8zMq69P+trrCHKvTd1VWzxwVKEWwV5sgQACfxRggMWlgEDEArlK//tE9N8j3pbtkilw15aH9sn4fh+G7tv6X2sp/Z9ktphUCCCAQHMEUqnUawZmLf1xc1Zzc5X5dmHH9Or9G0X0ADcTUHWsBAI9sTy791uxqoliEEi4AAOshDeYePESOGxdYcre09I3i8nceFVGNS4KmOiFQ9ne97tYezNrfs3wP099TJ5XEeUNSTNdWQsBBBIlcNeudl/n5Z2fc+/TV826ccof29ldKV5oIicnqruEaZfALTMzc168Sk+ot6sA9kXANwEGWL51nLx/JdDk10TPrGuiuU39Z0uofbQBgWYIaFoWDR6SX9uMtVxfI1cpXiwib3U9B/UjgAACrRGwi8vZvre1Zm23Vl10W7ErSEnZraqpNrYCgX6sPNvfWznEti8UllgBBliJbS3B4ibQs6mwR72e3sDNQ+PWGVfr0Q3lTO+hok15oIerCP9Xd3eluNBE1jgfhAAIIIBACwQCCxeu7jzrmhYs7d6SY39QrBbHXo9l3SueiuMmYCL3bdX03OszZz4ct9qoB4EkCjDASmJXyRRLge5K//km+tFYFkdR7gmY9JY788vdK7xFFZtprlKqisqsFu3AspMSiPTzrpOqlJMRSKBAtZzJd/IHjz93trtSzJtIfwJ7TaTIBdTM5Oyhzt6zI9+aDRHwUIABlodNJ3L0Ark7lh8mo/ZrEeO/uej5E7pj0FXOLuMTR3/R3a5q8Stq8o8JbTixEEAAgYkKfKWczb9voicn8bxF1WJXYHyNMIm9bUcmEwnTkpo7kF1aacf+7ImATwK8mfap22Rtm0B3pXShiXHD0LZ1IHkb1+pywDVz879NXrKJJ8ptLL1XQvvyxFfgTAQQQCB5AhrYewdn9/1H8pJNPNHRtxWfP5qSuye+Amci8NcCJvqZoWzvR3BBAIHWCjDAaq0vqyMgR1XOmV+TYOxG21PgQKBJAg+WM7XnihbCJq2XiGW6Nix/uQbhtYkIQwgEEECgWQKBvLw8O/+LZi2XhHUKVgiuqqZ+L6J7JCEPGWIgoLJNwmB+uXPZrTGohhIQSKwAA6zEtpZgcRHorhR/ZCKviUs91OG+gKp9ZzDT9w73kzQ3wYJ1hb3SU9O/b+6qrIYAAgi4LWAdqb2GDl76oNspml99rlL6roj9ffNXZkVvBcz+u9zZ9yZv8xMcgQgEGGBFgMwW/gr03H3eAeG2WsXEpvqrQPJmCwQm71rdmb+o2esmYb3uSukuEzsgCVnIgAACCDRB4K5yNn9QE9ZJ3BLdleJJJvL1xAUjUDsFttaldsjabOH+dhbB3ggkWYABVpK7S7a2CiyxlanN1eENIja7rYWweeIEbDSYO/SCZWOPAOfnSQK5aukyMXsdMAgggAACImJyWbkz/3osniqwaON5c4NwdD02CDRZ4Jbyt2pHSoHbPDTZleUQ2CHAAIsLAYEWCeQ2LV8sdbuaJw+2CNjfZeupu2rTBo4q1PwlePrkueHSBaL2L9gggAACCOx4BXLBUCb/USyeKtBjhXS9mt4mIil8EGiegFpg9UWrO8+6pnlrshICCPxJgAEW1wICLRAYe1FUq3b8TMVyLVieJX0WMHms/O3a7vxlb+cXQVel9FEVO9/nS4TsCCCAwP8JqJ5azvR+GpGdCBQKQe6d6YdFZFd8EGiqgMkVM2+86bWrTlhVb+q6LIYAAnwCi2sAgVYILB4uLglVVrZibdb0XEDlD+XZvc8VVfNcYqfxu4bPeY9qwOPiuTgQQACBsW8QhvaeoTl9XwNjJwJmmttY+p2Y7IUPAk0XUD2unOn9n6avy4IIeC7AJ7A8vwCI3xqBrkr/oIry6avW8Pq+6gPlTO++DLB2fhnkKqW/F7Hv+n6RkB+BnQqMvepj9O3ZxRG+rZw962LPQjcWd2yAVS3dJyL7NHYCRyHQuICq/HQwk39142dwJAIINCLAAKsRJY5BYBwCizaUXhUE9mMRCcZxGoci0KjA78qZ3ucxwNo5V9dw8URV+WajmByHAAIIJFog0BPLs3u/leiMEw33xADrARHZe6JLcB4CzyBQ01FZPPiC/FqUEECgeQIMsJpnyUoIyGuGPzv1seCR34jJLDgQaJHAQ+VM714MsHaum9tQfL8E8sUW2bMsAggg4JSAhvb+wTl9FzpVdFTFPvEVwj+IyR5Rbck+3gls2JLZ54XX6ymj3iUnMAItEmCA1SJYlvVTYEGluDAtMsgTbfzsf0SpR8qZ2nRRHs+8M+/uaqlgZh+PqBdsgwACCMRawFQLQ5nes2NdZLuKs0KQq6a3iMjUdpXAvokXqGk69bLBQ5bemPikBEQgIgEGWBFBs03yBcY+ffWoPnKdirww+WlJ2D4Btama2vPKzJljT07i50kCuUrpayL2D8AggAACCOy459nXyp3592DxVIGeTZ/eox5u+YOY8X6IC6RlAiZy3daH7lx4/Uv/nU9htUyZhZ0UmOB9OfmF7WS3KTqOAt3V5W82C78Xx9qoKVkCoejRa7K9VycrVXPSdFeKvzSRlzZnNVZBAAEE3BZQ0V8OZntf5naK1lSfq559jFjqytaszqoI/IVAqMeV5/BEQq4JBJohwACrGYqsgYCI5CqlK0XsGDAQaLWAqhYG+UrIU5iX2MrU5urwVhHraHUPWB8BBBBwRGC0fMNNu8gJq+qO1BtZmblK/zki2hfZhmzks8D/lLP543wGIDsCzRJggNUsSdbxWmDRxtKrNLQfK08e9Po6iCq8iV4/lO3lU0ZPAl9QWZFNS304qj6wDwIIIOCCQN0su7azr+pCrVHWmKsUbxCRF0e5J3t5K1CTWthTPvSsNd4KEByBJgkwwGoSJMv4K7Bk5ZLU5pccMXbj9oX+KpA8YgFLjdSeMzCv8FjE+8Z6u+7h/uNN9fuxLpLiEEAAgYgFApPjV3fmfxjxtrHeruf+wq71R9KPiAjvhWLdqeQUZyJXD2Vqr+QhPMnpKUnaI8Av7fa4s2uCBF4+fN4BU2R0o6jwtaUE9TX2USyYV+5cdmvs64ywwNzGUp+Edk6EW7IVAggg4ICAnlXO9vY7UGhkJS4aPmdeoMGvI9uQjRAQ2VZ/vHbw2iMK94OBAAITF2CANXE7zkRApFAIcu/s+IWIzYcDgUgFgmBJefay/4p0z5hvlqsUrxKRo2NeJuUhgAACUQtcVc7mXxn1pnHer2tjcYmGsjLONVJbAgXMVpc7+3oSmIxICEQmwAArMmo2SqJAbmPxZRLKz5OYjUzxFjCxlUPZvrfGu8roqltwV2Gv9Ej6bhHZZee7TvBZvdFFYCcEEECgVQJbrCN1wNDBSx9s1QaurdtdLa40kyWu1U297gvUQ33x2jm9v3I/CQkQaI8AA6z2uLNrQgRyleKXReS/TXcWAAAgAElEQVS9CYlDDJcETGo2JfU83pA80bSu4eKpqvIpl1pIrQgggEBkAmqnljN9n45svxhvtGDdBXulp2y5T1TSMS6T0hIqoGKfGcz2fSSh8YiFQMsFGGC1nJgNkipw9HB/ZlT1NhFJJTUjueItoKb/b7Cz99/iXWXrq3viQQpH/pyv8rbemh0QQMBRAbPrZ95488tXnbCq7miCppWd21j8fxLK55q2IAshMC4BHa3VbdY1c/O/HddpHIwAAjsEGGBxISAwQYHuSulLJnbKBE/nNASaITBQzuaPasZCLq+xsFJ4XkrSm0Rkuss5qB0BBBBoocAWseCQcueyB1q4hxNL5yr9AyK62IliKTKRAir6mcFsL5/CSmR3CdVqAQZYrRZm/UQKLFh7wS7p523ZKCIzExmQUG4ImNRS6eBFA7OWrXej4BZUaaLdlf5vmerbW7A6SyKAAALJETD5djmbP1FULDmhxpekZ9PyQ+u18Ba+Pjg+N45uusBdWzL7ZK7XU0abvjILOijAfVrH0zQGWOPR4lgE/iiQG+5fLqpLAUGg/QL6y3Jm9BWihbD9tURfQVe1MEctPfZVXn4QQAABBJ5FQNXmDGb6hr2EskLQtTH9czV5qZf5CR0rAVU9czDTe16siqIYBBwQYIDlQJMoMV4Cx9y9fO/t28KqiOwer8qoxk8BHZGR0ZeU5xVu9TF/rlr8lJic6mN2MiOAAALjFVDRTw1me08b73lJOD43XDhMtOMGEZuahDxkcFtARX4fpGZkB2b9y0NuJ6F6BKIVYIAVrTe7JUAgt3H530kYruQecgloZlIimAz+fnvtVbfOK2xPSqRGcvRsKB0ZBnKt8WakES6OQQABBMZufjsSBumXD80+8yafOA5bV5jy3GmpK80051NussZaIDQN3jCUWXZZrKukOARiJsAAK2YNoZx4C8y/7uSO6XsetE5MOuNdKdV5J2B6Yrmz91s+5c5Viz8Rk1f7lJmsCCCAQBMEflLO5v+2Ces4s0TXcPFEVfmmMwVTqB8CJjfNzM6Zv0pP8P7poH40nJTNEGCA1QxF1vBGIFfpf6OIXupNYIK6I2B2T23ajOw1B5661Z2iJ15p93DxHRboN8QsNfFVOBMBBBDwUEC1rlJ/12DmrO/4kH7JXRfssnlka0XE9vchLxndEjCx1wxl+37sVtVUi0D7BBhgtc+enR0UyFX6vy+ixztYOiX7IfD9mTfc9JZVJ6xK9F/yutf3z7KU3iwqu/rRVlIigAACTRd4zMLaEUNzCmNPVE7sz5KVS1KbX3zE90TlDYkNSTCnBUx05VC2961Oh6B4BCIUYIAVITZbuS1wzB0rZm8fra8XkQ63k1B9YgVU6xbau4eyvd8S1UQ+Jn3R+vN2C9KjPxKRrsT2kWAIIIBABAImVrbalNetOfSMRyPYLvotzLSrunzsq4Nf5dO60fOzY8MC22p1yV4zN//bhs/gQAQ8FmCA5XHziT4+ge5K6fsmxqevxsfG0ZELqGk61TV4yJlrI986gg27qqXPq9kHI9iKLRBAAIHEC5jJF4Y684n8ndpdOXehSX1IxHi/k/gr2fWAdnE52/c211NQPwJRCPALPQpl9nBeoOfGwh713dLDIvJc58MQwAeBe3U0PHbwBWfdkpiwY4+O2ljqk1D6RCWdmFwEQQABBNorUFPV4uDsZeck6ZO7PZXSC+tiV4jIfu3lZXcEGhGw+7dbvfPnnYVHGjmaYxDwWYABls/dJ3vDArnh0ntF7csNn8CBCLRfYEPKascMdBbubn8pk6xgbHg13H+SBMGXRGTqJFfjdAQQQACBvxYYEdH3lzPLvpGEIVbPcOGAuqavEpE5NBoBdwT0beVs78Xu1EulCLRHgAFWe9zZ1SGB+dcVps/YM32/mcxwqGxKRWBM4JFQ0y9akznzTmc5xoZX1eUnidjXnM1A4QgggIADAhbae4Y68193eYi1qHruQSmr32xiuztATokI/KXAg7vafftd3vm5EVgQQODpBRhgcXUg8CwC3cP9x5vq94FCwFGBe200fP3QC8663sX6u6v9BTM9k09eudg9akYAAbcEdEQ1PHcw01dwq+4nqu2qnDNfJfghXxt0sXvUPCZgYq8Zyvb9GI3xCoyNNBL57KLxQnhxPAMsL9pMyMkI5Cql7ws3b58MIee2X2Czmn54MLtslSt/WX/5cOE5UzR9noi8V4R7XrX/EqICBBDwRKAmIl/ZbrUznLkfz9jTBiulv9NAPismMz3pEzETKKBiKwezfW9NYDQiIdA0AQZYTaNkoSQKdFWXz1EL14sI/60kscF+ZaoFIr21WscX4/7I9IV39mdS2/WbIrLQrxaRFgEEEIiLgF5Tk+Bd12SXVuJS0c7q6FlX2LU2reODalbkjx1x7hS1NSKgqvW6pGY7feuHRoJyDAKTEOBN+STwODX5At3Dxf8wlfckPykJfREw0V9PCey4n83O3xG7zCaaq5ZOUrPPm3LPudj1h4IQQMAvAdXHVcMPD87q+6po/L6f8/LhwgFTteNyE3uhX40hbZIFzOQLQ535DyY5I9kQmIwAA6zJ6HFu4gX+9830JjE7JPFBCeibwCMq8vUgVfv4wKzCQ3EI/8S9S1LnmdhRKhLEoSZqQAABBHwXMJFQxQYk0KXl2flfxMFjx1fMg46CmI39gZGbtcehKdTQNAEVqQxm851NW5CFEEiYAAOshDWUOM0TyFVLrxOzy5q3IishEDcBvVNM+m1K8L2hg5c+GHl1hUKQe8eUQ0Xt/SJj/ycdkdfAhggggAACjQiMmuq/a6hfKGeX/qYd91PsumPFnjJSe6Oqni0qBzZSNMcg4J6AmobWMzgnP+he7VSMQOsFGGC13pgdHBToubqQrh+YvldEnutg+ZSMwHgFRsz0o1sfHv3a9fM/vrXVb0yW2MrU7+/eMHN0xD4vom8cb7EcjwACCCDQPgE1/UE6tH8K76ndN3BUYeym7637MdEFd18wLTX6+Hs01E/xRNrWUbNyrATuKmdqh4gWwlhVRTEIxECAAVYMmkAJ8RNYuKl0ZKpuN3Dz9vj1hopaKvA7Vb3R6nbh70drP7x1XmF7M3fL3bpsP01P/0dT+TtRmSsi05q5PmshgAACCEQmsE1Ehk31e+lg9MKBWYXNzdz5sHWFKXt3pF8vaXmvhDJfRPZp5vqshUDMBcKU6BED2d5fx7xOykMgcgEGWJGTs6ELArlK8ZMicpoLtVIjAi0S+J2orDaRtVbXW1JhWDl6bv2OQoN/DeyxwrTRSpARkXkpCV4saovN9KWifE2wRf1iWQQQQKA9Aiajonadma6WlNygorftMn1K9YqZpz/eUEFm2l0tHRCqzU2JHl43XaRi3XwKviE9DkqqgMk55c78x5Maj1wITFSAAdZE5TgvsQKL1p+3W5AeHftL4vTEhiQYAhMRUN1qZuvU5DYTuzul+odQZIuYpFV1honsqxYebKIvFJXZE9mCcxBAAAEEEiJgslHEfi0a3KEi95nZ46JSC0Sm1832UtEDTGWuiow9RZBP5Cak7cRomsDDtanT97vmwFO3Nm1FFkIgAQIMsBLQRCI0V6CrUjpZxS5s7qqshgACCCCAAAIIIIAAAgg0JhAE8q7Vs/MXNXY0RyHghwADLD/6TMpxCOSGiz8RlVeP4xQORQABBBBAAAEEEEAAAQSaJ2B2Wbmz7/XNW5CVEHBfgAGW+z0kQRMFFlYKz0tJ+g4+yt5EVJZCAAEEEEAAAQQQeFYB4+lBz2rk0wFq8ni4NXXg0OFLH/QpN1kReCYBBlhcHwj8hUB3tfQlMzsFFAQQQAABBBBAAAEEEECgnQJmcsFQZ/6j7ayBvRGIkwADrDh1g1raKvDy4cJzpmjqNhGd2dZC2BwBBBBAAAEEEEAAAQS8FzCR36ZHaocOzCs85j0GAAjwKVWuAQT+LLC4uuJvQqtfIyIpXBBAAAEEEEAAAQQQQACB9groaCqUlw3M6f1Ve+tgdwTiIcAnsOLRB6qIgUBXpfQ9FXtzDEqhBAQQQAABBBBAAAEEEEBgTOCicjb/LigQQECEARZXAQIisnBj8eCUSVWMT19xQSCAAAIIIIAAAggggEBMBExqYb128JpDC/fEpCLKQKBtAgyw2kbPxnES6KqUTlaxC+NUE7UggAACCCCAAAIIIIAAAiL67nK29+tIIOC7AAMs368A8u8QyFWLPxWTV8KBAAIIIIAAAggggAACCMRLwH5Uzva9Ll41UQ0C0QswwIrenB1jJnD0xuLBoyYbxSSIWWmUgwACCCCAAAIIIIAAAgiEqZHa8wfmFTZDgYDPAgywfO4+2XcI5KrFT4vJR+BAAAEEEEAAAQSiExh7GW7RbcdOCCDgtICZnDvUmV/qdAiKR2CSAgywJgnI6W4LLLGVqc2VDTeLymFuJ6F6BBBAAAEEEEAAAQQQSK6A3TLzhptfvOqEVfXkZiQZAs8swACLK8Rrga47Vuypo/X7RKTDawjCI4AAAggggAACCCCAQGwFVGRkj9079vnBPmc8GtsiKQyBFgswwGoxMMvHWyA33P8FUf1AvKukOgQQQAABBBBAAAEEEPBdQEXOH8zmT/fdgfz+CjDA8rf33ifv2fTpPer1x8c+fTXFewwAEEAAAQQQQAABBBBAIO4C27Zbbd+fdxYeiXuh1IdAKwQYYLVClTWdEOiurDjapH6VE8VSJAIIIIAAAggggAACCCBgYU+586zVQCDgowADLB+7TuYdAt2V4mdM5ENwIIAAAggggAACCCCAAAKOCJxf5muEjrSKMpstwACr2aKs54RAz6bCtHo9fZeIPNeJgikSAQQQQAABBBBAAAEEEBDZvCWzz0HX6ymjYCDgmwADLN86Tt4dAl2V4ptU5BI4EEAAAQQQQAABBBBAAAGXBFSD1w1mlv3IpZqpFYFmCDDAaoYiazgnkKsWvyMmb3OucApGAAEEEEAAAQQQQAABrwVU9JuD2d6TvEYgvJcCDLC8bDuhc9XiRjGZhQQCCCCAAAIIIIAAAggg4JjAcDmbn+NYzZSLwKQFGGBNmpAFXBNYtKn4iqAu17hWN/UigAACCCCAAAIIIIAAAiJqqVBeMjCn91doIOCTAAMsn7pN1jEBzW0s/khC+Vs4EEAAAQQQQAABBBBAAAEXBUz1kqFM71tcrJ2aEZioAAOsico5ft5Y483xDBMpf8G6wl7pqemNIrL7RM7nHAQQQAABBBBAAAEEEEAgBgIPpVK1WQOzCg/FoBZKQCASAQZYkTCzSVwEeqrFl9ZNrhWRVFxqog4EEEAAAQQQQAABBBBAYJwCtXqof7OWrxGOk43DXRZggOVy96h93ALdldL5JvbRcZ/ICQggEB8BXz9CGp8OUAkCCCCAAAIIxEBARYqD2XxfDEqhBAQiEWCAFQkzm8RBoMcK6Xo1/aCI7BqHeqgBAQQQQAABBBBAAAEEEJi4gD1UztT3Fi2EE1+DMxFwR4ABlju9otJJCuRuO/sYSaWunOQynI4AAggggAACCCCAAAIIxEIgCILu1bOXlWNRDEUg0GIBBlgtBmb5+Ah0VYsr1OTM+FREJQgggAACCCCAAAIIIIDAZASsv5ztO2syK3AuAq4IMMBypVPUOWmB3HDx56LyskkvxAIIIIAAAggggAACCCCAQBwEVNeUM71dcSiFGhBotQADrFYLs34sBHK3l/aTUbtTVNKxKIgiEEAAAQQQQAABBBBAAIHJC4xOmRbsd9UBy34/+aVY4a8EeHBQ7C4IBlixawkFtUKgu1LqNbFiK9ZmzaQI8C9UUjpJDgQQQAABBBBAwCcBDfS0wdm9n/IpM1n9FGCA5WffvUq9ZOWS1L3zj7hOTY70KniMwpqI8MsmRg2hFAQQQAABBBBAAIEECej15czoy3gaYYJaSpSdCvCekgsj8QIvHy48Z4qmN4rI3okPS0AEEEAAAQQQQAABBBDwTeCBsNaRWXPoGY/6Fpy8fgkwwPKr316mzQ2fs1g0uJoPAXnZfkIjgAACCCCAAAIIIJBsAZUwFcqigc78tckOSjrfBRhg+X4FeJC/q1L6noq92YOoREQAAQQQQAABBBBAAAEfBVS+Xc7k3+ljdDL7I8AAy59ee5l00frzdgvSo494GZ7QCCCAAAIIIIAAAgi4LsBzdhrsoNqW6aO7Xr9/YUuDJ3AYAs4JMMByrmUUPB6BRdViV2BSHs85HIsAAggggAACCCCAQFsEGNa0hT0pm6ZSsmBgFl8jTEo/yfFUAQZYXBWJFujeWPqohXZ+okMSDgEEEEAAAQQQQAABBLwXULWPDGb6PuM9BACJFWCAldjWEmxMIFcpjt28vQcNBBBAAAEEEEAAAQQQQCDRAipXlDP5YxOdkXBeCzDA8rr9yQ5/7F0X7LVlZMt9IpJOdlLSIYAAAggggAACCCCAAAI6un3P0ef+fO8C9wDmYkikAAOsRLaVUGMC3ZXlJ5mEX0cDAQQQQAABBBBAAAEEEPBBQFXfMZjp/Y4PWcnonwADLP967k3iXKV4sYi81ZvABEUAAQQQQAABBBBAAAG/BVS+Xc7k3+k3AumTKsAAK6mdJZd0V4q3mMgLoUAAAQQQQAABBBBAAAEEPBG4uZzNH+FJVmJ6JsAAy7OG+xK35+rCtPqB6QdFZJovmcmJAAIIIIAAAggggAAC3gtsSWUW7T6gR9W8lwAgcQIMsBLXUgKNCeQqpX8Qsa+hgQACCCCAAAIIIIAAAgj4JGAqbx/K5L/rU2ay+iHAAMuPPvuWUrurpRvM7EjfgpMXAQQQQAABBBBAAAEEPBcw+3m5s+8VnisQP4ECDLAS2FTfI+WGl+9jEt6tKlN8tyA/AggggAACCCCAAAIIeCcwUps6ff9rDjz1D94lJ3CiBRhgJbq9fobLDZdeYmq/VJGg3QImIvxH1u4usD8CCCCAAAIIIIAAAv4ImEgoQfolQ7PPvMmf1CT1QYD31j502bOM3cP9/2iqX/EsNnERQAABBBBAAAEEEEDAdYGxd+hjfwV/8s/T/f+fJm9g8q7VnfmLXOegfgT+UoABFtdD4gRyleJlIvK6xAUjEAIIIIAAAggggAACCCDQkID+dznb+6aGDuUgBBwRYIDlSKMoszGBV2/+5Iytj408ICK7NHYGRyGAAAIIIIAAAggggAACCRMwebw27ff7XHPgp7cmLBlxPBZggOVx85MYfXGldFQo9rMkZiMTAggggAACCCCAAAIIINCoQBAE3atnLys3ejzHIRB3AQZYce8Q9Y1LIFctniUmZ4/rJA5GAAEEEEAAAQQQQAABBJImYNJb7swvT1os8vgrwADL394nMnluuP/7onp8IsMRCgEEEEAAAQQQQAABBBBoUEBFLh3M5t/c4OEchkDsBRhgxb5FFDgegVy1uFFMZo3nHI5FAAEEEEAAAQQQQAABBJImoCKVwWy+M2m5yOOvAAMsf3ufuOS520v7Sc3uSVwwAiGAAAIIIIAAAggggAAC4xZQk0d03/JLlo095IofBJwXYIDlfAsJ8CeBrmr/h9X0XxFBAAEEEEAAAQQQQAABBBAQEQ3+qZxZ9kUsEEiCAAOsJHSRDPK/N27X7mpptYnl4EAAAQQQQAABBBBAAAEEENjxNunqoWzv0VggkAQBBlhJ6CIZ5NWbPzlj66PbNojq/i5w2NgfQ1wolBoRQAABBBBAIDkCYy8+xl6E8IMAAt4ImMlvt86ozbl+/8IWb0ITNLECvIdObGv9CrZofWH/IJXeICoz/EpOWgQQQAABBBBAAAEEEEDgaQUek+06p3xY770YIeC6AAMs1ztI/TsEFm88JxeGqdUixjXNNYEAAggggAACCCCAAAIIPCFgqVTHwoFZZ1wLCAKuC/Bm3/UOUv8Oge5K8ZMmchocCCCAAAIIIIAAAggggAACfyGguqKc6V2GCQKuCzDAcr2D1D8moF2V/mEVzcCBAAIIIIAAAggggAACCCDwZwFVXT+Y6X0BJgi4LsAAy/UOUr/0bCrMrIcd94jx9UEuBwQQQAABBBBAAAEEEEDgrwXU6jJl5trs6fcjg4DLAgywXO4ete8QWFwpHRWK/QwOBBBAAAEEEEAAAQQQQACBnQhY0FPuXLYaGwRcFmCA5XL3qH2HQPfG0gcttM/DgQACCCCAAAIIIIAAAgggsBMBtX8qZ/q+iA0CLgswwHK5e9S+QyA3XPyqqLwbDgQQQAABBBBAAAEEEEAAgZ0KfKWczb8Pm3gIjA1iLB6lOFUFAyyn2kWxOxPIDRd/JSpHoIMAAggggAACCCCAAAIIILAzAb2hnO2djw0CLgswwHK5e9Qur978yRlbHx15UFQ64EAAAQQQQAABBBBAAAEEEHiqgJlsr0+bvsc1B566FR8EXBVggOVq56h7h8CiDWe/KghSV8CBAAIIIIAAAggggAACCCDw9AKB6NGrs71XY4SAqwIMsFztHHXvEOje2F+0UHvhQAABBBBAAAEEEEAgeQJPf6ecsfvn8GYueR1vaSKTc8qd+Y+3dA8WR6CFAvzOayEuS7deIFcp/lREXtn6ndgBAQQQQAABBBBAAAEEEHBYQOWKciZ/rMMJKN1zAQZYnl8ATse3QpCrpH8tKi9wOgfFI4AAAggggAACCCCAAAKtF1hXztQOFy2Erd+KHRBovgADrOabsmJEAj1XF9K1A1L3qepeEW3JNggggAACCCCAAAIIIIDAEwJP/w3PuAr9bmZmzsxVekI9rgVSFwLPJMAAi+vDWYHcraX9ZIrdLSKBsyEoHAEEEEAAAQQQQAABBBCIRiAUC2aWO5c9EM127IJAcwUYYDXXk9UiFOgaLr1H1f4jwi3ZCgEEEEAAAQQQQAABBBBwVsBETxrK9n7T2QAU7rUAAyyv2+92+K7h4g9U5fVup6B6BBBAAAEEEEAAAQQQQCAaARO9ZCjb+5ZodmMXBJorwACruZ6sFpHA2P2v6gemHxGRXSLakm0QQAABBBBAAAEEEEAAAacF1OTxfbM37b5KV3EfLKc76WfxDLD87LvzqRfded7+wfbR3zofhAAIIIAAAggggAACCCCAQJQC23X/8mG990a5JXsh0AwBBljNUGSNyAW6KufMVwmui3xjNkQAAQQQQAABBBBAAAEEXBYwnV/u7L3B5QjU7qcAAyw/++586ly19Doxu8z5IARAAAEEEEAAAQQQQAABBCIUULXXDWb6fhThlmyFwP8JjA2hbIIeDLAmCMdp7RXorpbOMLNz21sFuyOAAAIIRCEw9iKHFyxRSLMHAggggIAfAvaxcrbvk35kJWWSBHg9mKRuepQlN9y/SlT/zqPIREUAAQQQQAABBBBAAAEEmiHwn+Vs/u+bsRBrIBClAAOsKLXZq2kCueHiRlGZ1bQFWQgBBBBAAAEEEEAAAQQQ8ENguJzNz/EjKimTJMAAK0nd9CRL1x0r9tRa/XdiEngSmZgIIIAAAggggAACCCCAQLMEwqma3uvKzJkPN2tB1kEgCgEGWFEos0dTBRZVi12BSbmpi7IYAggggAACCCCAAAIIIOCJgIosGszm13oSl5gJEWCAlZBG+hQjVy2+X0y+6FNmsiKAAAIIIIAAAggggAACzRIIxE5ene37crPWYx0EohBggBWFMns0VaC7UvpXE/twUxdlMQQQQAABBBBAAAEEEEDAFwHVT5czvaf6EpecyRBggJWMPnqVIlfpv1RE3+hVaMIigAACCCCAAAIIIIAAAk0SMNFLhrK9b2nSciyDQCQCDLAiYWaTZgrkhos/F5WXNXNN1kIAAQQQQAABBJoiMPbq2pqyEosggAACLRNQkWsHs/kFLduAhRFogQADrBagsmRrBbqGi3eryvNbuwurI4AAAggggAACCCCAAAKJFbirnM0flNh0BEukAAOsRLY1uaFeM/zZqY/JI4+JSjq5KUmGAAIIIIAAAggggIA/AmMfWuSNaeT9Hp05Utt11bzC9sh3ZkMEJijA74kJwnFaewS6K8WFJrKmPbuzKwIIIIAAAggggAACCCCQDAFLBa8YmrXs58lIQwofBBhg+dDlBGVcXC2eGpp8KkGRiIIAAggggAACCCCAAAIIRC9gemq5s/fT0W/MjghMTIAB1sTcOKtNAt2V0n+a2Alt2p5tEUAAAQQQQMAbAe7G7k2rCYqArwIq3y1n8m/3NT653RNggOVez/yt2ExzldIGUcn6i0ByBBBAAAEEEEAAAQQQQKApAhvKmfyhojw7tSmaLNJyAQZYLSdmg2YJzL+nMH36lvTtIrJPs9ZkHQQQQAABBBBAAAEEEEDAU4EHtjxUO+T6lxa2eJqf2I4JMMByrGE+l7uwUnheStLDIvIcnx3IjgACCCCAAAIIIIAAAghMVkBFHq5Jbc7abOH+ya7F+QhEIcAAKwpl9miKQPft/bOspreKyLSmLMgiCCCAAAIIIIAAAggggICvAqpbNRXOGzykb5OvBOR2S4ABllv98rra3MbS4RbajSoSeA1BeAQQQAABBBBAAAEEEEBgsgKqdRmVl5QP7b15sktxPgJRCDDAikKZPZoisHi4+PpQ5QdNWYxFEEAAAQQQQAABBBBAAAHfBUI9rjyn9398ZyC/GwIMsNzoE1WKSPdw8UxTWQEGAggggECLBMZeFViL1mZZBBBAAAEEEIijwBnlbP4TcSyMmhB4sgADLK4JZwRy1f6LxPSdzhT8tIXyDtH9HpIAAQQQQAABBBBAAAH3BVT0m4PZ3pPcT0ICHwQYYPnQ5YRkzFWKN4jIixMShxgIIIAAAggggAACCCCAQHsFTG4od+bnt7cIdkegMQEGWI05cVS7Bcw0Vy1t4QmE7W4E+yOAAAJPFuBTpVwTCCCAAAIIOCywtZzpnSGq3ETA4Sb6UjoDLF867XjOV2/+5PO2PjZyn+MxKB8BBBBAAAEEEEAAAQQQiJVAXWr7rs0W7o9VURSDwE4EGGBxWTghsGpiXvoAACAASURBVHBD6chUYDc6USxFIoAAAggggAACCCCAAAKOCFgQHjk0+6ybHCmXMj0WYIDlcfNdip7bVDpW6vZjl2qmVgQQQAABBBBAAAEEEEAg7gIa2LGDs/uuiHud1IcAAyyuAScEuiuld5nYN5woliIRQAABBBBAAAEEEEAAAUcEzORdQ535ixwplzI9FmCA5XHzXYqeq5ROF7FPuFQztSKAAAIIIIAAAggggAACcRdQkdMHs/nz414n9SHAAItrwAmBrkrpfBX7qBPFUiQCCCCAAAIIIIAAAggg4I7A+eVs/nR3yqVSXwUYYPnaecdy56rFb4nJOxwrm3IRQAABBBBAAAEEEEAAgXgLqH2rnOk7Md5FUh0CIgywuAqcEMhVileKyDFOFEuRCCCAAAIIIIAAAggggEDMBEyedgBwZTmbf1XMyqUcBJ4iwACLi8IJge5K8RYTeaETxVIkAggggAACCCCAAAIIIOCOwC3lbP5wd8qlUl8FGGD52nnHcndViptVZF/HyqZcBBBAAAEEEEAAAQQQQCDmAra5nO3bL+ZFUh4CfIWQa8ABASsEuWp6m4h0OFCt4yWOzbTHPlzMDwIIIIAAAggggAACCHgiMFrO1KaJFkJP8hLTUQE+geVo43wqe9Gdhf2D7enf+pSZrAgggAACCCCAAAIIIIBAZAJp3b98SO+9ke3HRg4LtO9DDwywHL5sfCl98fA5C0IN1vqSl5wIIIAAAggggAACCCCAQJQCqZQsGJiVvzbKPdkLgfEKMMAarxjHRy6Qq5T+XsS+G/nGbIgAAggggAACCCCAAAIIeCEQvq2cPetiL6IS0lkBBljOts6fwrurpTPM7Fx/EpMUAQQQQAABBBBAAAEEEIhOwMzOHOrsOy+6HdkJgfELMMAavxlnRCywaP3Hdttenz4j4m3ZDgEEEEAAAQQQQAABBBDwQmBKasvjaw79xKNehCWkswIMsJxtHYUjgAACCCCAAAIIIIAAAggggAACfggwwPKjz6REAAEEEEAAAQQQQAABBBBAAAEEnBVggOVs6ygcAQQQQAABBBBAAAEEEEAAAQQQ8EOAAZYffSYlAggggAACCCCAAAIIIIAAAggg4KwAAyxnW0fhCCCAAAIIIIAAAggggAACCCCAgB8CDLD86DMpEUAAAQQQQAABBBBAAAEEEEAAAWcFGGA52zoKRwABBBB4NoGxf+Ts2Q7if0cAAQQQQAABBBBAAIHYCzDAin2LKBABBBBAAAEEEEAAAQQQQAABBBDwW4ABlt/9Jz0CCCCAAAIIIIAAAggggAACCCAQewEGWLFvEQUigAACCCCAAAIIIIAAAggggAACfgswwPK7/6RHAAEEEEAAAQQQQAABBBBAAAEEYi/AACv2LaJABBBAAAEEEEAAAQQQcEaAJ4g40yoKRQABtwQYYLnVL6pFAAEEEEAAAQQQQAABBBBAAAEEvBNggOVdywmMAAIIIIAAAggggAACCCCAAAIIuCXAAMutflEtAggggAACCCCAAAIIIIAAAggg4J0AAyzvWk5gBBBAAAEEEEAAAQQQQAABBBBAwC0BBlhu9YtqEUAgNgLcoTU2raAQBBBAAAEEEEAAAQQQSLwAA6zEt5iACCCAAAIIIIAAAggggAACCCCAgNsCDLDc7h/VI4AAAggggAACCCCAAAIItFKAD963Upe1EWhYgAFWw1QciAACCCCAAAIIIIAAAggggAACCCDQDgEGWO1QZ08EEEAAAQQQQAABBBBAAAEEEEAAgYYFGGA1TPX/2bsLaGuOKu3jz8IJCTZAcAIEl8E1uCS4BQ0wuPPh7jo4THAfCBrcIcDgDDK4Q4JD8BAgSALk6ydvXXLfm3vvsa5d0v9aKyvM5Jyq6l/17dO9u2oXH0QAAQQQQAABBBBAAAEEEEAAAQQQKCFAAKuEOm0igAACCCCAAAIIIIAAAtEC5HKKFqc9BBAYUYAA1oiYVIUAAggggAACCCCAAAIIIIAAAgggML4AAazxTakRAQQQQAABBBBAAAEEEEAAAQQQQGBEAQJYI2JSFQIIIIAAAggggAACCCCAAAIIIIDA+AIEsMY3pUYEEEAAAQQQQAABBBBAAAEEEEAAgREFCGCNiElVCCCAAAIIIIAAAggggAACCCCAAALjCxDAGt+UGhFAAAEEEEAAAQQQQAABBBBAAAEERhQggDUiJlUhgAACCCCAAAIIIIAAAggggAACCIwvQABrfFNqRAABBBBAAAEEEEAAAQQQQAABBBAYUYAA1oiYVIUAAggggAACCCCAAAIIIIAAAgggML4AAazxTakRAQQQQAABBBBAAAEEEEAAAQQQQGBEAQJYI2JSFQIIIIAAAggggAACCCCAAAIItC3gQMnRbR9Cl70ngNXlsHJQCCCAAAIIIIAAAggggAACCCCAQD8CBLD6GUuOBAEEEEAAAQQQQAABBBBAAAEEEOhSgABWl8PKQSGAAAIIIIAAAggggAACCCCAAAL9CBDA6mcsORIEEEAAAQQQQAABBBBAAAEEEECgSwECWF0OKweFAAIIIIAAAggggAACCCCAAAII9CNAAKufseRIEEAAAQQQQAABBBBAAAEEEEAAgS4FCGB1OawcFAIIIIAAAggggAACCCCAAAIIINCPAAGsfsaSI0EAAQQQQAABBBBAAAEEEEAAAQS6FCCA1eWwclAIIIAAAggggAACCCCAwDYCfhI8GiEEEECgHQECWO2MFT1FAAEEEEBgZQGeV1YmpAIEEEAAAQQQQACBAgIEsAqg0yQCCCCAAAIIIIAAAggggAACCCCAwPwCBLDmt+KTCCCAAAIIIIAAAggggAACCCCAAAIFBAhgFUCnSQQmI8BapckMNQeKAAIIIIAAAggggAACCOQUIICVU5e6EUAAAQQQQAABBBBAAAEEEEAAAQRWFiCAtTIhFSCAAAIIINCJALMmOxlIDgMBBBBAAAEEEOhPgABWf2PKESGAAAIIIIAAAggggAACCCCAAAJdCRDA6mo4ORgEEEAAAQQQQAABBBBAAAEEEECgPwECWP2NKUeEAAIIIIAAAggggAACCCCAAAIIdCVAAKur4eRgEEAAAQQQQAABBBBAAAEEEEAAgf4ECGD1N6YcEQIIIIAAAggggAACCCCAAAIIINCVAAGsroaTg0EAAQQQQAABBBBAAAEEEEAAAQT6EyCA1d+YckQIIIAAAggggAACCCCAAAIIIIBAVwIEsLoaTg4GAQQQQAABBBBAAAEEEEAAAQQQ6E+AAFZ/Y8oRIYAAAggggAACCCCAAAIIIIAAAl0JEMDqajg5GAQQQAABBBBAAAEEEEAAAQSmI+CgxtHTOdxJHykBrEkPPwePwKoC/FysKsj3EUAAAQQQQAABBBBAAAEEZgsQwJptxCcQQAABBBBAAAEEEEAAAQQQQAABBAoKEMAqiE/TCCCAAAIIIIAAAggggAACCCCAAAKzBQhgzTbiEwgggAACCCCAAAIIIIDApARIFDGp4eZgEWhCgABWE8NEJxFAAAEEEEAAAQQQQAABBBBAAIHpChDAmu7Yc+QIIIAAAggggAACCCCAAAIIIIBAEwIEsJoYJjqJAAIIIIAAAggggAACCCwhwFrAJdD4CgII1ChAAKvGUaFPCCCAAAIIIIAAAggggAACCCCAAAL/EiCAxcmAAAIIIIAAAggggAACCCCAAAIIIFC1AAGsqoeHziGAAAIIIIAAAggggAACCCCAAAIIEMDiHEAAAQQQQAABBBBAAAEEEEAAgQoESNpWwSBU2wUCWNUODR1DAAEEEEAAAQQQQAABBBBAAAEEELAAASzOAwQQQAABBBBAAAEEEEAAAQQQQACBqgUIYFU9PHQOAQQQQAABBBBAAAEEEEAAAQQQQIAAFucAAggggAACCCCAAAIIIIAAAggggEDVAgSwqh4eOocAAggggAACCCCAAAIIIIAAAgggQACLcwABBBBAAAEEEEAAAQQQQAABBBBAoGoBAlhVDw+dQwABBBBAAAEEEEAAAQTaEvBD5tFtdZneIoBAAwIEsBoYJLqIAAIIIIAAAggg0IgAT+6NDFR4N08l6YySLibpspLOLek0qRe/k/Q9SZ+R9H+SfibJ/z8KAggggMA6AQJYnA4IIIAAAggg0LLABdNDYcQxHC7psxEN0QYCCHQjcGZJT5V0bUm7SjrBjCP7u6Q/S/ofSXeS9NtuJDiQZQQc7NxtmS8u8Z0/pCDqEl/lKwjECBDAinHuqhVeLHY1nBwMAggg0LrAKyTdPugg/lfS5YLaohkEEGhbwDOsniJpb0m7LHkoDma9R9IjJH1jyTr4WtsCX5F04aBD8Oy/S7H6M0ibZpYSIIC1FBtfQgABBBBAAIFKBAhgVTIQdAMBBI4R8Cyruw5Bq6dJOt5IJn+U9CBJr5R05Eh1Uk0bAgSw2hgnehkkQAArCJpmEEAAAQQQQCCLAAGsLKxjV8r87bFFqa9KgRNK+tCw/O+KmXr3Tkn7DjOyjspUP9XWJ0AAq74xoUcFBQhgFcSnaQQQQAABBBBYWYAA1sqEVIAAAiMIOCH7RyQ5L1/O8uEhF9+1CGLlJK6qbgJYVQ0HnSktQACr9AjQPgIIIIAAAgisIkAAaxU9vosAAmMIeHdB56q6yBiVzVHHuyTdhCDWHFLtf4QAVvtjyBGMKEAAa0RMqkIAAQQQQACBcAECWOHkNIgAAusEvKvg69PSvkiYh0p6uqR/RjZKW+ECBLDCyWmwZgECWDWPDn1DAAEEEEAAgVkCBLBmCfHfEUAgp8Bjhl3b/E/0c5UDV1eW9ImcB0fdxQUIYBUfAjpQk0D0hbamY6cvCCCAAAIIINC+AAGs9seQI0CgVYFTSDpYkvNflSj/K+kKkv5RonHaDBEggBXCTCOtCBDAamWk6CcCCCCAAAIIbCZAAIvzAgEESggcT9KbJN24ROPr2txP0usK94Hm8wkQwMpnS80NChDAanDQ6DICCCCAAAII/EuAABYnAwIIlBA4t6TvlGh4Q5ufTLOwKugKXcggQAArAypVtitAAKvdsaPnCCCAAAIIICARwOIsQACBEgL3lrR/iYY3tPlnSbtL+lMFfaEL4wsQwBrflBobFiCA1fDg0XUEEEAAAQQQIIDFOYAAAkUEPivpUkVaPm6jD5H0tEr6QjfGFSCANa4ntTUuQACr8QGk+wgggAACCExcgBlYEz8BOHwECgg4afuvC7S7VZPfG/JgeUkjpT8BAlj9jSlHtIIAAawV8PgqAggggAACCBQXIIBVfAjoAAKTE9hb0vsrOuq/SDq9pD9U1Ce6Mo4AAaxxHKmlEwECWJ0MJIeBAAIIIIDARAUIYE104DlsBAoK3EPS8wu2v7Hpv0naU9JPK+oTXRlHgADWOI7U0okAAaxOBpLDQAABBBCYooB/xo+e4oGvP2YCWFM/Azh+BOIFHi3pcfHNbtniUZLOL+ngivpEV8YRIIA1jiO1dCJAAKuTgeQwEEAAAQQQmKgAAayJDjyHjUBBgSdIemTB9jc27QDWBSV9t6I+0ZVxBAhgjeNILZ0IEMDqZCA5DAQQQAABBCYqQABrogPPYSNQUOChkv6zYPsbmz5S0vkkfb+iPtGVcQQIYI3jSC2dCBDA6mQgOQwEEEAAAQQmKhAewGLh5kTPNA4bgWMFbifplRWBOAfWHpJ+UVGf6Mo4AgSwxnGklk4ECGB1MpAcBgIIIIAAAhMVCA9gTdSZw0YAgWMFLiPpfysCOWJIKn9aSd6NkNKXAAGsvsaTo1lRgADWioB8HQEEEEAAAQSKChDAKspP4whMUuAkkg6T5H/XUD4t6fI1dIQ+jC5AAGt0UipsWYAAVsujR98RQAABBBBAoGAAi8WEnH4ITFjg7ZJuUMnx31bSAZX0pe1u1HdZJ4DV9hlF70cWIIA1MijVIYAAAggggECoQMEAVuhx0hgCCNQlsK+kN1XQpcMlnVrSPyvoC10YX4AA1vim1NiwAAGshgePriOAAAIIIICACGBxEiCAQAmB00s6tETDG9r8oKRrVtAPupBHgABWHldqbVSAAFajA0e3EUAAAQQQQOAYAQJYnAgIIFBK4PGSHlWq8dTutSW9r3AfaD6fAAGsfLbU3KAAAawGB40uI4AAAggggMC/BAhgcTIggEApgeNLOljSHoU6cNCwG+Lehdqm2RgBAlgxzrTSiAABrEYGim4igAACCCCAwKYCBLA4MRBAoKTAfpJeU6gDl5T0f4XaptkYAQJYMc600ogAAaxGBopuIoAAAgggUI9AVds0EcCq58SgJwhMUcAXxP0l3Svw4I+WdG9JL5Dk/03pV4AAVr9jy5EtIUAAawk0voIAAggggAAC1QgQwKpmKOgIApMVOIWkN0u6epCAdz+8laS/B7VHM+UECGCVs6flCgUIYFU4KHQJAQQQQAABBOYWIIA1NxUfRACBjAInGwJYn5T075JyPmOR9yrjIFZYNQGsCgeFLpUTyHlxLXdUtIwAAggggAACUxEggDWVkeY4EahfwEGsl6TZUTl6+2pJ95T0pxyVU2eVAmUCWFVlCqhyXOhUIQECWIXgaRYBBBBAAAEERhEggDUKI5UggMBIAieUdDdJT5a060h1HibpCZKeL+nIkeqkmjYEygSw2rChlxMUIIA1wUHnkBFAAAEEEOhIgABWR4PJoSDQkcApJR0g6UqSdlvyuP4m6RMpIHbIknXwtbYFCGC1PX70fmQBAlgjg1IdAggggAACCIQKEMAK5aYxBBBYQOB4knYfZk09XNJdhllZJ5rzu95Z8I1pp8HfSfrnnN/jY/0JEMDqb0w5ohUECGCtgMdXEUAAAQQQQKC4AAGs4kNABxBAYA6BU0s6f/rnIpL2kORZWn4eO1zSjyR9VdI3JX19yHX16znq5CP9CxDA6n+MOcIkME/qNQJYnC4IIIAAAggg0LIAAayWR4++I4AAAghsJ0AAi/MDgXUCBLA4HRBAAAEEEECgZQECWC2PHn1HAAEEECCAxTmAwJwCBLDmhOJjCCCAAAIIIFClAAGsKoeFTiGAAAIIjCDADKwREKmiHwECWP2MJUeCAAIIIIDAFAUIYE1x1DlmBBBAYBoCBLCmMc4c5ZwCBLDmhOJjCCCAAAIIIFClAAGsKoeFTiGAAAIIjCBAAGsERKroR4AAVj9jyZEggAACCCAwRQECWFMcdY4ZAQQQmIYAAaxpjDNHOacAAaw5ofgYAggggAACCFQpQACrymGhUwgggAACIwgQwBoBkSr6ESCA1c9YciQIbCLgP/GjkUEAAQR6FiCA1fPocmwIIIDAtAUIYE17/Dn6DQIEsDglEEAAAQQQQKBlAQJYLY8efUcAAQQQ2E6AABbnRzUCNUyNIIBVzelARxBAAAEEEEBgCQECWEug8RUEEEAAgSYECGA1MUw5OllDuCjHca1WJwGs1fz4NgIIIIAAAgiUFSCAVdaf1rsU4MGpy2HloFoUIIDV4qjR52wCBLCy0VIxAggggAACCAQIEMAKQKYJBBBAAIEiAgSwirDTaK0CBLBqHRn6hQACCCCAAALzCBDAmkeJzyCAAAIItChAAKvFUaPP2QQIYGWjpWIEEEAAAQQQCBAggBWATBMIIIAAAkUECGAVYafRWgUIYNU6MvQLAQQQQAABBOYRIIA1jxKfQQABBBBoUYAAVoujRp+zCRDAykZLxQgggAACCCAQIEAAKwCZJhBAAAEEiggQwCrCTqO1ChDAqnVk6BcCCCCAAAIIzCNAAGseJT6DAAIIINCiAAGsFkeNPmcTIICVjZaKEUAAAQQQQCBAgABWADJNIIAAAggUESCAVYSdRmsVIIBV68jQLwQQQAABBBCYR4AA1jxKfAYBBBBAoEUBAlgtjhp9ziZAACsbLRUjgAACCCCAQIAAAawAZJpAAAEEECgiQACrCDuN1ipAAKvWkaFfCCCAAAIIIDCPAAGseZT4DAIIIIBAiwIEsFocNfqcTYAA1lK0Zjt6qW/yJQQQQGBpAS49S9Pxxa4FCGB1PbwcHAIIIDBpAQJYkx5+Dn6jAAEszgkEEFhYgDjKwmR8AQEE8gkQwMpnS80IIIAAAmUFCGCV9af1ygQIYFU2IHQHAQQQQAABBBYSIIC1EBcfRgABBBBoSIAAVkODRVfzCxDAym9MCwhsFDiZpFNLOqUk/2//c1JJx5d0EkknSGtU/yLpr5L87z9JOlzSYZJ+J+mfsCIwksAu6Xw81Ybz8YSSTpzOy79L+lv6x+fjnyX9QdLv0/l45Eh9oZoyAj4H/m3dNcn/t//Z7Jrk88Dj72uSzwFfj3xd+keZrh/TKgGsgvilm2ZG8L9G4HiSTp7+jk+R/ob9d7x2X3EiSf7Hf6u+Zh+V/vHf89o/a/cZ/r8pCPQisGv6jfPfhe+5/Xfh+27fb/s+x//2fbXvb9b/xvnvwb9xvtcped9NAKuXM5HjGEWAANYojFSCwKYC/vvyDaVvGK8maV9Je0s6/Ype/nH9mKR3S3qTpF+nH1YSs60IO4Gv+3z0jdqlJd1U0g2Gh/+zrnjcPu++JOkD6Xz8WjofS97srXhI3X597ZrkG/YrSLq5pH0knWHFI3aA8yOS3iPp9ZJ+G3xNIoC14gBW8nVfn3yOrt2brr9HXf/75v+9/p9Kuh/WjTUje11I0nXTP/+eHsbH6Mihkv5H0kHp2r72N811fQxd6sglsPYb54DV1SXdJP37tCs26Bc2/o17p6R3rHuRHHXfTQBrxQHk650IpDdWBLA6GU8OoxoB/035JvJWki4v6Szp4dBBgxzFP56/lPTj4UH0M5JeK+nz7DKQg7rZOn0jdwtJN5J0zhSw8pvHXMWzcn46BEe+JelASe9KbzVztUe92wv4mnTBdE1y0MrXpDOmQGYuu7Vr0mclvS5dm3Le6BPAyjWSeev176J/J/1i55KS/JC5NhPU1yjPAnVZC1Z51pBf4Hhm8hFpBuCvhuDN/w31fFDSp/J2t2jtDlbZyC8eLiXpTOnv2LOrchf7O4D1c0mHpIDWW9PLs9xtUz8C8wj4b8L33X4555dyu6cZxPN8d9HPeAbj2m/cx9NvnANMOQsBrJy61N2cAAGs5oaMDlco4BlWV5R07SF4dJ0hiHSudW+QS3T34CGI9rbhh/x9kj6dbvjH7Mdz02yyMevcqq5Pphv2iLY2a8OziU4T1PiThraeN1Jb7rMfCj3r75ppuvxIVS9cjaffvzedk36D6eVmlLwCvibtte6adJ7C1yQ/9L49nQe+JjkAMWaZSgDLwZ1vjgk3o65nD9eOp43c3pklXTWdm9dIy5fHaOI3KQA2Rl211OEH8Sula/lVUsCqlr75Id6BQ8+89Uytz/Gi4pihudMQOHlC0CD5WuDf95LLt4MO9TjN+MWcX8j4ntszEM9WqiMpwO6x8H33+9MLm7HHhABWwQGm6foECGDVNyb0qA0B/+34Dc9thqUyj5bkH9May4+Gh8WHpmUADhyMMQvi1em4I47XN8Zeflmq+C3b6YIaf9iQq+QpK7TlN/SeWXM/SfdIeU9WqC7LVz07y4G6V61b+pqloQlW6muSz9VbpmuSgx01lp8MQXWf677Rd3BzjGvSVAJYzlPmQE1U8YO4f99WLc6ldo4h39IjJP3HqpVt8f0eAlj+G3aOnkskqytnsspRrf+Wnz/M8Hy5JC8/nGpexP83zCL8rxzAm9TpoMbFJxTA8nXE9zh3Hl6E3SflewuiXqgZv7C5pyTPQHburDEKAawxFKmjGwECWN0MJQcSKHCB4UHxBcM6+ItK2i2w3WWb8gOiby6dL8vBLCelXKUQwFpFb+vvrhLA8nKSl6ZZNy2ck76pcw4334T63KSsJnC+IaD+wnRNchLn2svaNcn5RB44wjlAACvPiI8RwPLv5AGS9hwxP9NmR9t6AOvsw7LeJ6Z8PZ5B6xcSLRYnwf7hkCj76cOsmFe2eAAr9pkA1oqAW3z9sumccoqOWl8Yb+y689P62vcQSc4TuUohgLWKHt/tToAAVndDygFlEvDNpJdk+a3KtRq+uXSwwDlpPAvmF0taEcBaEm7G15YJYO2R3tTvl3bUydOzfLU6kOXgw5NTjpV8LfVXs69Jnp1473RNypVnL7ecr0lvSNck59hZphDAWkZt9ndWCWBdZJgZ8qi0UYRnTuQuLQawnOPLqQduP+Tv8nJK74zWU/lBut/wyxXPBp9CIYA13ij7GfWGw6zTe0nybMRWg7q+Nv33EHh7RsqdtYwQAaxl1PhOtwIEsLodWg5sJIG1pOx+M+obzV7+ZpwI98Hp7dCiOYkIYI10cm2oZpEAlh98bj3MAHxmSnqcp0dxtfpNpZc9Ok/Sqm8q43pdpiVfg7zz2GPTzX0v16Sj0gxRLy91wuhFCgGsRbTm/+wyASzPAPQSHwelnYstqrQUwPL128nrbeSZJb2XP6eHd/+d9h7IIoC1+tnslzGeuekcfP476aX4PserIPzCxn8TixQCWIto8dnuBXq58e1+oDjAYgJedufd2yLeIEcfpJfxeBaWE+p+e4HGCWAtgLXAR+cNYHl5iXMreMlJT9dwn4/eSdNbXy96c7cAc9Mf9Rto7zTqnch6vCZ5cHxN8jnwjQVGigDWAlgLfHTRAJavTd54w5sGRJdWAljnHRKzezML59Ds6fo9z3g7SP2s9BA/z+db/AwBrNVGzbMQfd+9T8MzrrYTWNvR05usfGcBKgJYC2Dx0f4Fpvbj2f+IcoRjCPjvwlP6PcPBW873Xrxbitfp33fO/FgEsPKcEfMEsG6WHgCc86rX4jf0Xqr7nl4PcMnjcvLrxxXebWnJri/8tX8OQZDXD7mx/DA4T440AlgLE8/1hUUCWN7C3smro3Zt3XgAtQewvKOgZ8x6x7STzKXf74e+n2bXvHhYAu+gVk+FANZyo+lZib4H9SY0Z1iuiqa+dUTKEec8oP69m1UIYM0SVgnMUQAAIABJREFU4r9PSoAA1qSGm4OdQ8Bb8foN4Y3n+GxvH/E2wHcZtmX2Nvfb7QxGACvPyG8XwPJSnPunAEbkspw8Rzq7Vj/UPDw98I2xS93sFuv9xJnTNcmzrqZWvjXMyLrbkOvrEzOuSQSw8pwZ8wSwvNzHy9GdV7FkqTWA5SWVDj4/bZ7AlW/KJ3TB+1CajfWFkifOyG0TwFoc1JuQ+L7bs66mVhyY8gvzL804cAJYUzszON5tBQhgcYIgsEPAS3MuN+Sj+ECHiVQXGWPPxnJuJU/h9v/erBDAWkR0/s9uFcBywOp5Ka/M/LX18ck3poc/52ybWvE16TKSPjzPg2/HOM6J5ht85w3ZKj8aAaw8J8CsAJbPUe9+6RcfpUuNASy/EHufJD+gUzYX8H2GZ7s7wHdkB0jlA1jtREF9/bh+SvR/0g7GftlDcMzaL6jeuk38mgDWsrp8r0sBAlhdDisHtYSAdwfxjYenMU+9eDqzHwidiHezQgArzxmyWQDL1+g3T3RG4Jrye9PxTy2I9VRJXl5w4jynW1O1+pr0Gkm32+IGnwBWnuHcLoDl30rvaFtLjsiaAlh+MPcM0ocMyct3zTM0XdXqB/ivSbr5gvk4a0QoH8CqUeW4ffIy2pdLclqEVnfQHVPa9zf28Pmz2ctjAlhjalNX8wIEsJYcwnZecCx5gNP52qnTTfje0znkuY/0HZL2k+S1+uvLggGslf5a/mdYPnS1uXs8/gd/Kel041e7aY0bA1hO0u1ZJ/sGtV9zM57F4O20e3hDP8v5VEOCfu/Ed71ZH5zgf3cw02+qNyb5J4CV52TYKoDla9N/SnpARYmWawlg7SHpuSnXVZ5R6bdWj6EDf36QnycvUI0SBLBmj8qeaYyvOPujk/qEz3nfX2+Wj5YA1qROBQ52lgABrFlC/PeeBbxTkndMKpV0tgXbL0q6xoZEygsGsFY6zKkGsLxs0A9BNSzNWWkAR/zyRyVde5jV8JcR66ytqnNK8nE67xVlcwHv3HSFIdG/tyRfKwSw8pwtWwWwnI/PCclrKqUDWL6fvmBaMtjzJhu5x9yzsfYfZqE8agiQ/jF3YxnqJ4C1Parvu31fd8YM9r1U6aWEzpv3p3UHRACrl9HlOEYRIIA1CiOVNCjgfFfvH27Cd2uw79Fd/sxww+E3ZWu7BRHAyjMC62dgeenYc/I002ytfrDxuedlZD2Wi6V8V6fs8eBGPqYvp5yFa8FMAlgjA6fqNgtgOXjo5Nu1bSZROoB1mzSrhDQE45yL/hu/0rB5yR/GqS6sFgJYW1NfVZJn0bIsfvbp+MFhQ6VrEsCaDcUnpilAAGua4z71o/ZywQMknXbqEAscv4N910qfJ4C1ANwCH10LYN1gSPrr5OXc5G2O94jh4fnJC7i28FEHiL1xQtRy1RZMZvXRQRRfy9dy9jnRe0T53xQ8i2hrYxv/JsmBmqiyMYDl5a3OVVTjDKOSAaynDLMlHijJSysp4wl4tqV/D/3vVgoBrM1HyukovOEDL43nO5P9ws5pPG457NT51yHXIDOw5nPjUxMRIIA1kYHmMP8l4CDM2wgOLHVGOC/FPYeHl5dK8tvmiDK1JYQvGnbl8bLNs0fgNtqG82B55yLvGNpD8VtWv5Xm4Xfx0XSOOM/I84MRAazF/WZ9Y30AyzOuHFh3LroaS4kAlndO8++hH84peQQ8y3IfSR/PU/3otRLA2pnUGxo4b+ErJU15p8FlT7THS3rcEMj90rBL4YWXrWTB7/3fcE9yqW12RFywOj6OwPgCBLDGN6XGegWcDNxv7SnLC3hd/tUJYC0PuM03PbPIgZlLZ6m9r0p/JelcDS4v2TgKe6UHM36Llz8/7zRc1+0YtbR0qjOwbpJ2RF1+pPJ+MzqA5YDeu1OOyLxHRu2ejeJAfwv3bwSwdj5frzLMWD2InQZX+iP2y5n7EcBayZAvdybATXNnA8rhbClw+TQd10swKMsL+G3oz4clmE42HVGmNAPrIynXGDNx5juzPpF2qFzLzTbft+r51EXTLDKWMq82Jt5+/GdDfrRzrFbN3N+eYgDLy5m/GWg892Cs+2BkAOsEkt65bln9Mv3lO4sJHJ5mWXoGfc2FANaxo+Pln6+TtEvNA9ZA33xt8+9c1NJtZmA1cFJMvYsEsKZ+Bkzj+L2ttR86Tj+Nw+3qKKcUwOpq4IIO5o6SnMC7tXK2YVmMN0fgmtTayO34LfEmICVKqRxYXsbiXeFqLscJYPkG11N3Ri4OXr055WYauWqqmyHgXdkcFPF9Qa2FANaOkbmEpPeQ17HW03TbfhHAanLYptVpAljTGu8pHq2TIn+dhO3NDj0BrGaHLqTjhw1veM8dnNh61QNzEMJ5zs66akV8v4jA1AJYzr9yyJDDxkHXmkvEDCzPRDswLfWu2aLnvjkm6Z0wP1XpQRLA2rFBkneRPGOlY0S3thcggMUZUr0AAazqh4gOrijwvpQAdMVq+HohAQJYheAbatZLFFpKovx2Zm80dHYdt6tTC2A539xzGxixiACWdxt8SAMWvXfRY+0ZPj+q8ECnHsDaNQWvotJMVHgKNN8lAljND2H/B0AAq/8xnvIRPj1tbT1lg9aPnQBW6yOYv/9/lHShSh9mNh79kyQ9PD8JLWQUmFIA6zkpOf4pM3qOVXXuANb9JT1j2BGM++axRmy1er4xLFG75BBQdF7OmsrUA1jeEfZuNQ0IfVlYgADWwmR8IVqAH+JocdqLErhySpDsnYIo7QoQwGp37CJ7/vmUl+jvkY0u2Ja3pf6YpJMs+D0+XpfAlAJYvv56F7EW7hVzBrC8CcwHJZ20rlNx8r35bNrI44iKJKYcwLqLpBdXNBZ0ZTkBAljLufGtQIEWbkoCOWiqE4EzSzpYkvNVtFZ+KulzwxKjL0n6Qdpd689pBxLfPHt6tnOReHr2xSRdRtIpWjvIBfpLAGsBrAU/6jfXzlPh88wPf34I8N+MZ1v4HPMueadesM5SH/9H+nv4aqkOzGjXuUB+Iul4lfZvu255hz9fk5y3y0t2fI3yueJdkRyM203SWSTtmcbg0pJO1eBxztvlKQWw/tnQOZsrgOWdv76dfnvnPUf4XJzAY4Zz1JsM1FKmGsDy/emhjd6P+h7IL8G+ku6HfBzeMMAvxPwb53ts56z0b5yXrnrmn3/3ei0EsHod2Y6OiwBWR4PJoRwjcPzhB+bdDeS9ciJSb0vu3Yw+LenH6cffW0UvWhxk8AOyt5G/uqQbB263u2hfF/08AaxFxTb//LdS8mGfaw6k+Abt93NUffLhjeoZJHknz2sOD3K3qDgx65uGv6mbzXFMJT7y1uHm+EYlGl6gTV+TviPJjj5PfjgsBfnFnOfJxmYcwPI16exphsS+kvxioYcypQBWS+OVI4B1MkkfTQ+tLVgcmYLNPke/IOmX6e/XD+N+YeH/7qCk7/19r+SH813SA7rvI86THs6v2NA9hIMM/zFs5uFciDWUKQawHMzxbLjz1TAAM/rgFzFvSf1duxdyGoJFiv9+vBmLf+Mc1Non/b6fZpFKKv4sAayKB4eu7RAggMWZ0JvA3Ydte19Q6UH5xtEzq94v6Q1pd8QcXfWNqbd5d7DBQQf/wLZaCGAtP3LfS8HcA9J5t3xNx37zhMON37WGgOsdhl2grpEefsaod4w6HIC5YAoMj1HfWHXccQjevGysykaux9ckz1rzNen16X+P3MQx1fma5Nmia9ck7xzZaiGAVefI5Qhg1Z6zzjNPPYvWAWdvWPOJNHNk1RHyTNFzSdo7BaA9q3L3VSvN+H3PDPUSbW84ULpMMYDlY3a+vBqfKf0b5xnE/o17TdpRNcc5coL0t3LTdG/U8i7DBLBynCHUOapAjRebUQ+QyiYl4Lel3x8CWKer7Ki91OZrkpwfwAGs6OKZH89LN6B+kGypEMBabLQcxPmtpPulm7XFvr3Yp32D5h31nEDdN281lGdWtnGDZzg4kFjb7CNfk74+PPDdI93cR4/ddYfrkZP9enZfa9ckAljjnS0OwHhmkM/HoyQdNly7PAvZ/9vLmT0ryMvmfX1x8Nz/P+e13Gwp7tgBLAdEPNa1Lfv1Nf4PKSfXvdMsyfFGZPOa/Dd662FJ1SPTUqoac4t6Zs1l0yyz3B7b1T+1AJZnXTmhfm3Pk39Nv3G3Sr/BkeeEr1e3HUwel2Zp1XYNmWVBAGuWEP+9uEBtF5ziIHSgWQHfYPkNpGeF1FQ+Lsk3NF4u6JvyUsU3nL65e/6wROgCpTqxRLsEsOZH8zR4n2teluolIxHFf3detvrqSgLHzn3nmQM1FN+0vnPIrXGdGjqzrg+fHIKcfvD1NclLikoVByOcx+9Fki5cqhNLtHucAJZvpBxVCChetuJATcvFVH6R88q0PM9BK1+7nOtxs00Y1i9181Kl0w7BGydVv7YkL3VzYMtlzACWl9U5H05ts5dtdd9httF7C50HDsifd8B+7JAT7/qVBS0808ZBg9cW/uOYWgDLKTtq+4172xAUf1gKXPm8KFV8vbrqEMR6SSX3R/M6EMCaV4rPFRMggFWMnoZHFnBiRT+Y1ZK43cty/PbFuW9qKp6ldvvhecuJT1tYr08Aa/bZ4xs05y16RMbp8bN64VxHDo46F0Tp3xX34QOzOhzw3x2c8dKeWq5JfkvuZMcHBhz7Ik04+a9z2LhvDk7UXpiBtdwIeYaM8xQ5qOtA8xgxP2844YTKDmhdZFhOd8PlurbTt3z9esqwUcGDKriWrXXMuXqelXZ484y1GoqDhw+uLHjhQOjFC8y4WT8eUwpgeXa/7z1qmUXrwItnCXrH0JKBq41/n55F6lnx/qeFDU4IYNVwhaUP2wqUftBgeBAYQ8APQH6j6wSkpYuXQjiXzL3STl2l+7NV+07O7RsPz56peXozAaztzyDfsPvB3w83pW/YPMvPD6i+qS15Tjnpst96jvGAvOzfr4NWDqg7sF66+JrkQPpd00yX0v3Zqn0H1x1cc96dWh6INusrAaz5zyBfkxw49YwdLzcufY2ap+fO1eYxrqF4hqQTTnvGpJeG11ic88e/P7Usk/YMLC93LFWmEsDy9dqbw3gH2tLFszf9Au0hhX/3Zzl49qLvkRxsr/n5mwDWrJHkvxcXqPkPqDgOHWhG4DZpCVPpDjsvhZOmO2FkyYfneR3W1uk7wXSt1wICWFuPpnM8+C24t3+upTjw4NxGdy7YISfydTB7nl0Wc3XTD1BOnl+6HDHsRna9tFSrlWuSc5a8qjTcNu0TwJpvcBysumUKXJVcqjpfb4/9lGdv+MVO6eLrmFMiOH9m7X+7XnLpZeQ3KY2WgqQev48U6ksHAay5FkV7Jv/LK7h39H2302M4mFb734lPSb/oe2Ka4VnoFJ3ZLAGsmUR8oLRArQ+tpV1ovx0BPzA7V0XpvE7estoPrd9uh+6YnvoasFfaFdFbAtdWCGBtPiLOhXLljLvGrXIe+GHGOR/2W6WSFb7rxNBeVlRiw4S1bvt64CWEJYsffB1A8AyYloqvSZ4F4xmiZ6qw4wSwZg+KZw3df9it9MezP1rVJ/wyzMHT0vfG9nvAsNzfu+u1Uvxg7qXA3jCmdJJ378zoJPwl8o52EMCaecqdfvht+c4w884z+UsWz7Z23jMvsW2t+LfZ90leXlhbIYBV24jQn+MIlP6RZkgQWFXAU+v3X7WSFb//sSGQcOMhgfbvVqyn5NfPn5YZ1bAMc70DAazjnhV+KLzcMMvpZyVPmBltO9n0Z4dZSOcs1MdnpwfoEs3fcVhO41mNJYuXL96g8WuSE2i/Y1hW6GtTTYUA1taj4aU8XtL81JoGbM6++H7YQd+SL8M8U82zWhz88wzbFsuVUiL1ksFnz/7zPZmvH9FlCgEs54d7WjTsuvY808qJ2h0wjdqwJsfh+m/Fy/u922pNhQBWTaNBXzYVIIDFidGygPPseCt4b+NbqhyUcraUan/Mdr2lvXcmc2LcWgoBrJ1Hwgl8naTW0+VrL3476yBbiTeMzg3mZKmejRVZPPPAD8Hnjmx0Q1sfqnA31mU5nNTd1/jTLVtBhu8RwNoc1bnWvHTLwdMWi2dEOD9NqeJr1aOH2UtPLtWBEds9qyQ/BJfclMGzrxwYiA5w9B7A8qqHnw67x3oWVoni4JXvu6+7xa6lJfq0Spu+7/ZvXE1BLAJYq4wo3w0RIIAVwkwjmQS8hMoPa6US/no3JS858Br8XoqXEfoBzTegNRQCWDuPgnOM1Laz5XbniZM3e8fLEsUzd6IDfZdOD/DOL1eivD8tGyyZ/2vs4/Y16TOVJAv2sRHAOu4I/0bS1RrJ17TZ+emHx0MKv7y5W1pS1EIen3n+xj371vkZS+665jxN/z1PZ0f8TO8BrNKzr7y89hadBK/WTruLpmeZWoJYBLBGvCBQVR4BAlh5XKk1v4B3+fIa/LPlb2rTFpxXxjfsvyzUfs5mvYTiA5XknyGAtWOkvSTiCUNulsc1kqh07fw8SVpKeOGcJ+wWde+bdvCKavqEKe9WqSVIB0u6gqRfRB1wYDvnSjf4NQTWCWDtPPBeOn+z4dz7cOD5MHZTfiD27KsS98SeKfRASc9t7No+zxh4Z8JPFXwh9t3hhY9/ezw7MKr0HMAqvczWGyx4l2NvTtJb8Ywyv5z0fUTpQgCr9AjQ/kyBEj/WMzvFBxCYQ8AJOp1jp0TxA6K3wz28RONBbV4n5Rgo/WNKAGvHgH9Vkmf3tJgX5YbpXAo6df/VjHPxRM7+KnlNciDdOaOil8tEjuneKaeNX16ULASwjtX3sjf/fb+75ICs2LZnS3rZr3/To4tfTLxI0r06DF6tWXp2iZNtl0r47TxJ3iExqvQcwPLSeM9qdvqO6PLb4YXUhSQdGt1wYHs+V19RyHf9YRLAChx0mlpOgADWcm58q7zAcyTdp0A3fMN5FUkfL9B2ZJO+NnhJw/MLvZVeO1YCWJLzXjnPW0s7Uq0/Vx1wcN93jzyBh10AvcTXicyjipPaenlFiXKtYec+Lx/svdxZ0osLX5MIYO04y7zUzb8R3rDAv4utFif79rKkEsUzLjx7LTpXX/Sxeobb66MbTe05J5tnpkaVngNYXxxeIjggGV38YuYiaZlvdNuR7Tkdiq9Fkfctmx0fAazIUaetpQQIYC3FxpcKCzingh+IdyvQj6cM09EfVqDdEk2eVJIDSN7SvlQhgLVjt5+HlBqAkdr19HgHlCJ/c34wvHk/x0j9n1XNLumadJpZH8zw359RMHCW4XC2rdLXJC9vjnwg3dghAlg7RDwOPSRS9m5mnkUWXb4/LIvdq/MZJWumnrHjeycvlYz8DXD7Xj7omUPevTei9BrA8jJuL8ksUXzP7Z1Ne8kPt52hf+OcO65UKgL3jQBWibOcNhcSiP4hWahzfBiBLQTuNORnemkBne8ND+EX63yZzkZWBwuda6zUbkJTD2B52rxnX/26wPk+ZpMnSze/TsgdVXyzewpJ3pEwd7m1pANyN7JJ/T9JOV56Sto+i9HBQj/8R8/oW+sXASzp52k5j/NftVx8ffCOatE7pXrG1eULpkEoMWY2/lyhXaPfNCx9u3lQAKTXAJYT4nt5W3TpaVfdee2unZbLl9oMhgDWvCPF54oJEMAqRk/DKwg434ZzNEUWJ1p18Mrb3U6tPELSEwsd9NQDWNH5O3IO89sLTI337MGIXHnvHdrxMr7I4muSl3N4Q4mplZI7YRHAku5Y6GF27PP8yYVmVL9kmHl117EPpoH69pDkF4HRD+Zehn/2oE13eg1g+XfUeR6jy8Uleeni1Io3dXBuvBKFAFYJddpcSIAA1kJcfLgCAU9F95bd0Vsze/nTTTrbunfe4fSUZm9jX2InuSkHsHzT7V3XfL73UK6UkvlGHkvUg7Y3doieEXRQCuT/PRK0krZOlPIQemOD6DL1ANanB/urBu/slmOM/bv2TUkOqkSWb6ffUgegp1hKPJh7Nq43gfAudrlLjwEsL2fzRgfRz4wOMPsF6hSLd1h3GoRoc1sTwJriGdfYMZf4w2iMiO5WJlAi4aqXSXj9f+vLJVYZSuc6edcqFSz53SkHsDzr7VFLutX6tZ9JilxGGHEDXCIw5x1Q/VBhz6kWL7N4T4GDn3IA68gh99VlO5kR4cCVd1Q7SfA5dLthNtCrgtusqbnTp111o9MSHJiWEea26DGA9XBJT8oNt6F+L/137jK/HJpqce5T546LLgSwosVpb2EBAlgLk/GFggI+Xz+VbqAju+F8W3eJbLDCtjzjwUlQo2eZTDWA5ZxGpw7K2RF5ujkXyb6BDb5m2LnoNpnbc46Oq2VuY2P13vnNO/JNuXjHJufnO2cwwpQDWF+WdIlOds17cEoMHXn6lDx3Io9zVltePvmiWR8a+b97FpY32cj9IrLHAJY3bLjmyOMxq7oeNq+ZdYyz/rt/4zwL6yyzPjjyfyeANTIo1Y0vQABrfFNqzCfgB/pDJJ0yXxPHqdk3PZ595XanXpz/wEsJI68bUw1geWaJZ731VrI9NPqk3GSLIi8ZyXnj7aXMTgLtxOKR5UITzce30dhbq/tm2zf6UaVkEOLfCi4p/mea9eclcK0XXy48e/EMwQfia3qJWYPBhzmzOQeSPLMm8u/WnbqlpDfM7N1qH+gxgOU0Br72RJVD09Jez/icenl62r0z0oEAVqQ2bS0lEPkgulQH+RIC6wTOm6aenzBQxVP9PeWfsuNm0wmjzxOIMdUA1n7D9PnXBTpHNbWPpPdFNSbpk5KukLE9B5KcYDYyKfGbh7/Dm2Y8ppaqPnH6TfBSk6gy1QCWZz/vFYWcuR3v7Or8V5HFM5jd7p8jG624rUcOAawnBPfvhZLukbnN3gJYl0srHzKz7VT9VDc52MzYS2298YF3TI0qBLCipGlnaQECWEvT8cUCAneS5OV8keWKw/KgT0Q2WHlb0bs2TTGA9Ye0VPOvlZ8Ly3TPiUl/uMwXl/zO5zPvnORAo5cpRhVPMnPOLa5Jx4pHPwhPNYB1n2FZ8/5RJ3rmdry7639nbmN99f67vdGwa+g7AtusvSk/f/w6eGaPl8B659acpbcAlperezOUqOKZnt6cw0EUyg4BP/f4+SeqEMCKkqadpQUIYC1NxxcLCHg50NUD2/2HpN0keTc4yg4BvwXyTWfULLgpBrBeK+nWnZ5w/s05Ysg94x3AIspXJXmZ2SarC0dp3rOhvDtpVPmbpNNJcpCTskPAs7B+K+lkQSBTDGD5t9BLiLx5QA/lxcF5LX+eUhEw+2rns8cbw0QulXdwxCkonCA8V+kpgOX7POdgOlMurE3q7Wmm51hs3kHz/WNVNkc9BLDmQOIjZQUIYJX1p/X5BbxT0GHBOwZF7GA2v0A9n4y86ZxiAMvBKwexei3Oo+Y3rBHFS169zC9HAOt4KZjr3HxRxYmP7x7VWEPtvDXNcIno8hQDWF7O7NmGvRTPxPn3wIN5Wwp057gOBR7G6E3dYHjB8PbRa92+wty/rz0FsEosX/NMo5cHnxO1N7erJOcF878jCgGsCGXaWEmAANZKfHw5UMA3m77pjCqe6eDtnr0bHGVngcgdhKYYwPKMoa90fNJ56Y6X8ESUb6XE0zkeHJ13ybvgRZW/SzprupGNarOVdrxLrGfVRJQpBrC8/C060JBrLD0Dx0mpIxOIX0XSR3MdUMP1OnfgT9K9VtRheCfcm2VsrKcAln/jvh44497DcoEC+ekyng6jVf3s4XnkvqPVtn1FBLCCoGlmeQECWMvb8c1YAe8eE5nU+rsp4aqnnFN2FrhwYIBlagEsn29+y9bzstVHDztZPi7oj8p/x978IUcAy4nUDww6DjfjRK6RycoDD23lpryxRNTueFMMYHkn3oNXHqU6Koie9eNdSs9Sx6FX2Qsn7L5zYM98HXWQ5KhMbfYUwLrhMFPRswejiu97Ti7JL2uylC12K87S1siVnn+Yxfk1SZ75nbsQwMotTP0rCxDAWpmQCoIEohP1vlOSb3QpxxXwm2tPZ/b08txlagGsj0i6am7UwvU7IawTw0aUnAGsRwy7Dz4x4iBSG166e/3A9lpqyvcyfjA9Z0CnpxbAcr4157/K9lAZMGbrm/hPSQ8NbPMASbcNbK+1pjwb6o2Bnf5F2kk5Vx7BngJYTxtyVj4ocGw8y+j+ge211JRTFfh+xtfi3IUAVm5h6l9ZgADWyoRUECTwymH3stsFteVm7jkkS35BYHutNeXtqO8W0OmpBbDuLel5Aa4lm/ByJOcsiig5A1jO03GHiINIbTxw2FTimYHttdZU1MPW1AJYveVde5+kfQJPbu4ltsf2zBLnKowqTqR/jiGX4C8zNdhTAMu73e6VyWljtZ4l7XyVkedC0KGN0oyX23oGlmeU5y4EsHILU//KAgSwViakgiCByB9SH9Kekg4JOrYWm7mmpA8EdHxKASzfwPlmPmopVMDwbdqEZ5h9OKjxnAEsH0PkbLmLDbNCvxTk1mIzV5bkGYy5y9QCWH6A9c5gPRQvv/lC2pk06ni8YcXnohprsB3vdOfZUN6oJ6o4DYKDATlKLwEs/614x+CocfEmTWeQ5PyzlM0Fol4cE8DiDKxegABW9UNEB5PA9yWdPUjjVympaI68OUGHkL2Zs6UE1t7CPmeZUgDLN4verrqXreq3Oi/8QOyAdETJGcDym2IHHCOKZw04N8g/IhprtA3nafJDae5r0pQCWM5J46TnRzZ6Tmzstpe/e6lp1L2E7yF2S4GATgizHIZTNlwvS82bV+pNRF6dqb1eAli7D7PsvdwyqnhDlAt2tFQ5h5v/Rvy3krsQwMotTP0rCxDAWpmQCgIEfJ76AS7qTZB3C/KuQZStBU6TAlhel5+zTCmA5ZtFz/xzIKvncllJnw46wJwBLO9kFpGPwlSeweGZHJStBZyTz7NmHTDIWaYUwPIOcQ729BI49TIcLx3L/bu1dv52pOqhAAAgAElEQVR5N1nvKkvZXuAeQ07N5wci5cy11EsAK3KzHg+9Z3leIdOGK4GnVtam/BLLM9VyJ3IngJV1GKl8DAECWGMoUkdugTMOu9T8LHcj6+p/qSRvy75iaXi/k9lHvktKKOkZQznLlAJY3uXLbyB7n0LfQwDLwXQH1aN+Q18VnAMw5990rro9Jt7xLXdQcUoBrC8Pb/y9dLWX2cienfenYfMFB7IiyouDckVGHEvONv49LY+Oup7mvK/oJYB1DUkH5Rz0DXV7RpxnxlG2F/AGSqfPjEQAKzMw1a8uEPVjsXpPqWHKApeR5IeGqPLwYRmKdyqibC3ga4dnt3jGUM6S80Zznn77bf3p5vngCJ/x2/qLdzTbYSuSHgJY504zEEcY9rmqeFTwjodzdarCD30rIMntlAJYvc1G9tL3Hwaet3eV9JLA9lptyr+xPwqcZe9zINcy0l4CWDcfrqVvCDyhvDPoUwPba7UpB5d8n5izEMDKqUvdowgQwBqFkUoyC9xgmIb/9sxtrK/+TpK8wxhlewEncXcy95xlSgGskg/GOcdwY909BLCuJMkP91HljpJeEdVYw+28RdKNM/e/5N+pZ5d56WpUed2QM2q/qMYC2rnikB7gYwHtrDXhVASR14nAQxu1qVOl5b/+d0Q5KuXKyzGzsJcA1p2Dg683k/SmiMFvvI33SrpW5mMggJUZmOpXFyCAtbohNeQX8HI+T8WPKjeR9Naoxhpux9ur+w1zzjKlANbbAh6+c47VvHX3EMCKfjvNNWm+s+tpQw65B8330aU/NaUA1lOGJc0PW1qqvi/edph54+W4EeWfKf9Vrt3uIo4hqg3nrXMSb+9CF1XcppeTjl16CWA9QNIzxsbZpr7LBa+0CDy0UZs6QNKtR63xuJURwMoMTPWrCxDAWt2QGvILPGSYWu4b6aiyjyTPLhq/9JUW67FDbpTHjI+0U41TCmB51p9n//Veeghg3X1YWvqCwIHKd00KPIiApu437Nb4rMztTCmAdZ8h4fn+mT0jq3+gpKcHNehZPhcKXmocdGijN+Ocmt+U5CWeUcXLFn+dobFeAliPHnI8Pi6Dz1ZVehdZ5wGlbC/gzQ686UHOQgArpy51jyJAAGsURirJLOAgiYMlUcXLgz4e1VjD7UTcqE0pgOUHqwc3fD7M2/UeAlj3H3a7e+a8BzzC564cvPRphC4XqSJihs2UAlj29Bv/XkrkvcRf06Yc3hmTsr2AN2D4+nCunTMQyhvQ/DxDexH3RWvdzpk384mSHpHBZ6sqcwUUAw8hpKmIWcYEsEKGkkZWESCAtYoe340ScEJ1J3iMKkxlnk86YmnnlAJYT5Dkt569lywBrC0mN3qjgfNm2EXNGz08KXCgvL34JwPba7Wpm0o6MHPnpxTAuv6QMPhdmT0jq494+Fs7nr8MOX0uMOys9oPIA2y0Le8O6aWWnoUTVTzb68cZGuslgOVVD179EFVOIekPUY013I7vEx+Zuf8EsDIDU/3qAgSwVjekhvwCnpniqf9RxQ/Yn4lqrOF27hCQ7H5KASzflEQGRUqdelkCWFscTK4AVuRMDh/a5YcNEz5dasAaatcJ3J3IPWeZUgBrb0kH5cQMrvs5krwsMqI4gHX+4F0PI44rRxsnSgEs7+4aVc6RKbjYSwDL+a+cByuq5MpJFtX/qHYi7j0IYEWNJu0sLUAAa2k6vhgo8OTgRLJ7SfpU4PG12pTX4Xs9fs4ypQCWkyVH5nrLOW7b1d1DAMtj5etSVGFZ83zStxpmcbx2vo8u/akpBbCuKukjS0vV98WnBi7TZgnh/OPvGVheQrjn/F9Z+ZNnlfSTlWs5bgW9BLCiZ2CdegguH5ZhPHqrMmJpJwGs3s6aDo+HAFaHg9rhIUUnk+ztpj3XKeF8TX4gyFkIYOXULVN3DwGsiGTh60fn6pI+XGa4mmrVu6J6d9ScZUoBrKtI+mhOzOC6I+8ljkxJ3D0LlLK9wEklfWPYIfLsgVBnHHZRPjRDe70EsCKWqq3nP8uwic1PM4xHb1VGrEghgNXbWdPh8RDA6nBQOzykiEDJerbe8n7kOiWcxNrJrHMWAlg5dcvU3UMA626SXhjIxzVpPuyI5RUEsOYbixo/Fbn5wj8kXTQtjavRoqY+7Srp25KcWD2qnFbSbzI01ksA61GSHp/BZ6sqLyLJSekp2wv4vsP3HzkLAaycutQ9igABrFEYqSSzwB0lvSxzG+ur30/S6wLba7Wp1w83nbfI3HkCWJmBC1TfQwBr3yFB85sC7W45JKN/Q2B7rTb1Ekl3ztx5AliZgTNWH7HEdH33yV0332A6gff3hpQEDipFlZMNy0n/nKGxXgJY0bOMrznkevxghvHorUovkfd1LGchgJVTl7pHESCANQojlWQWuG7wTkj3lfRfmY+ph+q/mN4w5zwWAlg5dcvU3UMAyw+mkbsCznlN2mIvxjLjXKJVj4nHJmchgJVTN2/d3mE4Mr+lX769Iu8hdVH7aVKyeweVIorzk+2SYXda972XAFb0i2PPKnpxxOA33sYHhg1dHOzLWQhg5dSl7lEECGCNwkglmQUuIenzmdtYX73XmHvZImVrgROmN6beijpnIYCVU7dM3T0EsM4p6eBAvmcHLNcNPJwsTR0/5VA5fZbaj62UAFZm4IzVO+/RzzLWv7Fq73romSyU7QX2kHTIsGTteEFQbitXwvheAlg3HXbRPDBoPNyMdz18UGB7rTb1JUlebpmzEMDKqUvdowgQwBqFkUoyC5xO0i8zt7G++rcOeStuEthei015yr+T03pschYCWDl1y9TdQwDL277/JfCB671DEP86ZYarmVZ9TfqhpFNm7jEBrMzAGav3i5cjJPnfEeUzkny9o2wv4PutNwcieRbLPpna6yWAdTVJH8pktFm175d0rcD2Wm3q15I8YzFnIYCVU5e6RxEggDUKI5UECPxxeEPjRJ8RxbvhXDCioYbbOIOk70jaLfMxEMDKDFyg+h4CWGZzUD13AHdteH4kybMUKFsLeBcrJ4L20qCchQBWTt28dZ8g7TyX+wFw7Sj+LsnL4rwjIWVrgedLukcgkHdPfmim9noJYF1A0tczGW1WrVNSXFLSPwPbbK0p32/8QlLuZ3cCWK2dGRPsb+4/ggmScsiZBDzb51yZ6t5Y7VGSTi3pT0HttdjMhSR9OWAGCgGsFs+O7fvcSwDrq5L8dxBRjh7ygzhoHDkTNeK4xmzj3yV9QZKXEuYsBLBy6uat20vUfC/hJcBRhd3Vtpf2c8hPgncgzLkpRi8BLAd5PdsnqvxU0jkk+f6bsrnArYdr1wEBOASwApBpYjUBAlir+fHtOAEHMq4S15z2lnRQYHutNRV1k0YAq7UzY3Z/ewlgRSRTXa/pZTZe3kzZXOAOkl4egEMAKwA5UxO+53U+zYtnqn+zav9jeDB/dWB7rTV1ppS7LqrffhngGfbfzNRg1L2Ru/+VdC7/I8Ox+G/l8IBZ9mtd9yzF3SX9PsOx9FJlxM7ftiKA1csZ0/FxEMDqeHA7O7SI7dHXk+0v6T6dGY55ON7JyTs65S4EsHILx9ffSwDrRcNypLsG8nmHJu/URNlc4D2Srh2AQwArADljE+8Ozif3wuDlcRnpslTtHdX8MiCqeGa9Z/rkml3USwDL4+GXuNeIGhhJtw2aYRR4SKM1deK0RD4ilQABrNGGjYpyCRDAyiVLvWMLeFdA5y2IKp9NyVf9to6ys8BpUx6R3Et13CoBrP7Ovl4CWN4x6WmBw1MycBJ4mEs1dfIhSPArSb7Jz11KjsO/SfpN7gNcV79nPX80sL2Iph41LH1/fERDqQ1yam6P/bgh79GjA8fjUEnnkeS8qjlKTwGs6LHxffdlcgxKB3U6/5WXP3uzktyFAFZuYepfWYAA1sqEVBAkcOMh38xbgtpyM35I8HbsOaZmBx5Glqa8G5rfYkcUAlgRyrFt9BLAup6kdwbSHSbJwWOuScdF945i7wsaCwJYQdCZmoneXc0vwc6fZk9kOqSmq/2SJOcJiyrfGpZiX1iSE+znKD0FsKJnx3k8vIzQLyMoOwtcOb3QjXhuJ4DF2Ve9QMQfQvUIdLAJAb8x8w5TkeWqkj4S2WAjbT1jeHv5gKC+EsAKgg5sppcA1lkleXfAyLJvcCA/8thWaevpw6YbD1ylggW+SwBrAawKP+pZes7tEzFbb+3wXzAsWbtnhRalu+RAkvM4RZZXSbpdxgZ7CmB5swPPIIz8W/GSxQ9lHJ9Wq3b+yxsFdZ4AVhA0zSwvQABreTu+GSvg3YM8A8FLRaLK19Kbuqj2Wmnn+5LOHtRZAlhB0IHN9BLA8u+nA1hnCbQ7RNK52Wr8OOLe7t3bvkcUAlgRynnb+HRKEZC3lWNrPzglDv9bVIONtOP8YNF5/W4o6R0ZfXoKYHk3bp+7p8rotbHq5w8rIO4V2F4LTXkHYu/UGZG2wx4EsFo4KybeRwJYEz8BGjv8A4e3QTcN7vOekvzQSNkh4CTJTpYcVQhgRUnHtdNLAMti3vXOu99FFS97OV96qIhqs/Z2rjDsUPsxSVH3MwSwaj8jZvfvmZLuP/tjo33iKEmXkvTl0Wrso6LvSfI9VlT5q6TTSDoiY4M9BbAcMPHKh8gx8otqvyD1LEnKDgEnt/fMwahCACtKmnaWFoi64Vu6g3wRgXUCDl45iBVZ7j7kwvJuY5QdD4jelebqgRgEsAKxg5rqKYDlt/lvC3Jba8YPSM8NbrPW5jwz17mvnKslqhDAipLO146X4r4pX/Wb1uwgq/NvkcNuB4/vIz4YPAafCZh511MAy8PjjUq8YUlk8XJbL7ul7BB4v6S9AzEIYAVi09RyAgSwlnPjW2UE/BbIS0Ui1+P/TJJz3fyzzCFX1epJUnLN3QJ7RQArEDuoqZ4CWM7N56XGJwyyczO/T4lujwxss9amvCPTDyWdMrCDBLACsTM1dbZ03mSqfstqLyHpC9GNVtie7+F+GbSj2vrDf3bAzLveAlgl8s+WvMbW9ufiDQ6+GDjD2MdPAKu2s4D+HEeAABYnRUsCzn/l/EveSjyy3HEIYr0issFK2/JMtLsG940AVjB4QHM9BbB2TQ9iuwS4rW/CeWNeHNxmjc09WdLDgjtW8uHKv33eITeqXEXSR6MaC2zH975ezuck4pHlZZLuHNlgpW15xqRnlUQ/g+TOf2Xu3gJYPqYfB+d69FL5yw8pKz5X6fkb1S3/fXiG9w2iGkztEMAKBqe5xQWifzwW7yHfQGBnASffvH4wii/mlwxus7bmPPvN+SqiCwGsaPH87fUUwLLWa4a/jf3ys+3Ugree92yOKc8MdZ4UJxj2MsLIQgArUjtfW7eR9Op81W9asx/ML51mVAQ3XU1znsntJPoXDe7RnySdaZiB9YfM7fYYwIrcAW9teLz74cWHFxRT3vhgd0nfDd68yv4EsDJfJKh+dQECWKsbUkOsgN/KfDK2yWNau6WkNxRot5YmnyHpAQU6QwCrAHrmJnsLYHmJxbcKzCaYen6+ErOv/KdxbADLd1BHZ/5r2bl6ZmCNx+2dvfxw6FmUkeXDwXkkI49tnra8w1yJHH4vCZpB3mMAy7810TmpnCvuSpI+Nc9J1eFn/GLG9782iC4EsKLFaW9hAQJYC5PxhcICPmc9nfnMwf34Vdr963fB7dbQnGefOWh4ogKdIYBVAD1zk70FsMzlpc2eERRZfjFsanF+Sd61aWrlAuktsWdzRBdmYEWL52nPeeucU/PcearfslbPwvJStsjdfIMPccvm/PfqmdzR92+eqXrFoGBIjwGsM0r6aYGXNM5v6N+4v9RyAgf2w7vrfjywvfVNEcAqBE+z8wsQwJrfik/WI/Da4c3prYK74/fsTy2QbyX4MDdtzkEk50IpUQhglVDP22aPAawSywg9SvsPSd3vGz4PKO/5MU/t3r0scjfU9X0igDXPCLXxGed0LLHL8OHphdihbTCN0ksHDL3zY3Q+H3f+j5KcuD8i2N9jAMuG7xpeGlx3lDNhsUoeMbw89WzbKZWTDTuWfqLAMts1YwJYUzrbGj1WAliNDtzEu+0boLcXMrjyEMzxdthTKL4+OOFsyWTRBLD6O9N6DGA5KfEHCg2V247ejr7QoR6T9Pnmw6yZ1xWYDbB2zASwSo3++O36fPJMxtONX/XMGv0i7vaSjpr5yT4+4OCHE1KfoMDhPE/SvYPa7TWA5dyzzkEbXRx89E58nuU8lVJqeTwBrKmcYR0cJwGsDgZxgofgG6CfFbrp/E56cxqb+aTMIJ9T0teGmWcnLdP8Ma0SwCqIn6npHgNYzlfhpTHnyGS2XbU/kOQ8XFN4ED5XuiaduIAzAayC6Bmb9g7DDiRFF99D3F/Sc6IbLtDeBSV9oVAagr+mnav/HHTcvQawnADfywhLFC/1dUL3I0s0Htymf8u/IqnkbxwzsIIHneYWFyCAtbgZ36hD4EGSnlaoK2+RdAtJzmXRaznNkDzyI5J841myEMAqqZ+n7R4DWJbyw+gz85DNrNUzUm/c+VLCU0hyAmw/yJQszMAqqT9+25HXo4299454N0ovasY/sjpq9N+t7yWidx1cO/r3S7pWIEWvASwTlkjf4XYd7PVSX28A0PPOu54J6kBvdI64jX8eBLACLxg0tZwAAazl3PhWeYHzpp2/SvTEu6PcT9LzO/0x9Qy3VxXIM7bZWBLAKnGG520z8oHRu4z5WhExY9LJoL9daGmbj+/Bkp4tyden3opnuL1yWEZy2woOjABWBYMwchdK5lT77bAE2Lsre3Z3b8UbvzhZfal8dfb00sXIhPk9B7C8C+pPCs7Kv5Okl/f2R5KO5+TDTOrXS7p2BcdHAKuCQaAL2wsQwOIMaVng85IuUfAA9pXk2Vg9FV8TXhi03fQ8bgSw5lFq6zO9BrA8Cu+TtE/B4bjpMGvyzQXbz9G0r0nPSsnqc9S/aJ0EsBYVq//ze6Udv0rdE3t52/nSDsv1a83XQ78I8+ynq8338Syf8oO4d1GOLD0HsOzo699lIkHXteUXNddIM3ELdSFLs77uONesc87WUAhg1TAK9GFbgVI/1gwLAmMInCXlnSm1VvxP6QfnDWMcTAV1+Hrw2LTToncMqqEQwKphFMbtQ88BLO909a2Cb6j9IOyd1bwrYi/lIUPi5ycWSv68mSEBrF7OrGOP4yTp73aPgod28BAc2LuTZNW+fzggbbhQkFQ3LJB4vPcAlpe8vrXgoHonSW9c4iBLD8Wzi1+QniX8v2soBLBqGAX6sK0AASxOkJYFfP5+XJLfnpYq3g77jukHPWKZUq7j9A/no4bKHcCqqRDAqmk0xulLzwGs40v6aOFrkvPq3G2Y0fHGxpc4+/r+MElPGue0G60WAlijUVZVkWfqfGo430q+vPlxyon1xapkFuvMbimA7l3rShZvbuEcnlHJ29eOtfcAlq/Lnyu8+sGJ+b0b+UElT7AR2vYGSU9Is4t971BLIYBVy0jQjy0FCGBxcrQu4PXi75JU8s2Fk0reLq1fbzGxu2/Y908PvbWdDwSwahuR1fvTcwDLOldMSZlL3pD6OnSX9CDZ4u6EviY9Q5IfBmsrBLBqG5Hx+uPfm6uMV93SNTlvk5cjt5aw2jPY/FLRs+NLFl//vMzNCbGjS+8BLHveKiV0j7Zd355fGHszpQNLdmKFtk+W7rvvsEIdub5KACuXLPWOJkAAazRKKiok4HPYAazrFGp/rVknTvYa9nsW7seizZ9qSCDrBLbeIahkEHCrfhPAWnRE6/987wEsj8DbpGOWr5Qsfvh9RUV5Nea1OKWkD6Q3/DVekwhgzTuS7X3OO1w6t2bpe+Mjh53IXtbY/YR3QXWCbf/9li6fHvIkXaFQAHAKASyn7fheBYHKv6WcrQ9sbPMSL1l2oDc6P9u8f5cEsOaV4nPFBEr/SBc7cBruSuCqFSV1/ERaUugf99qLk0171zLv0lZrIYBV68gs368pBLA8C+tjyxON+k0/zHmZs3dIrL04Qe9zhrfq56+4owSwKh6cEbr2vIoCR5+RdJ+0ZGuEQ8tShQNWz5R0a0nedbB08ZLBS0n6RqGOTCGAZVoHCD9ceMmt++EXNd4swO6HFBrzRZq9SdrBfPdFvhT8WQJYweA0t7gAAazFzfhGfQI+j51UsvSMhzUZT1+/R1pS6ETvtRVvhfwgSX5rVXKZ0zwuBLDmUWrrM1MIYHlEXjUkZL5tJUPj5Ra+Jr1W0h8r6dP6bvia5AcQ57wqmYNoHhoCWPMotfuZs0v66rCEdddKDsF/u0+V9NxhWfDPK+mTu7HLkEjbSx1fMrwIO0VF/XIwzfc2pcpUAlgOVnoW0aVLQW9o93eS7p5mP9e4bP6Mkh6Z+lgJ2ZbdIIBV+wjRv+LTpBkCBMYSOL2k7wzbrZ98rApXrMc3nT9K+TR+uGJdY379epLe0sBD4toxE8Aac/TrqGsqAawzpVlPtTwIe/R9TbpW2nGtjrNhx/LvN0vysooWCgGsFkZptT56dvJ7K1hKuP4onLjaAV7nqyydG8vJ0e1z5sqMHJz3dbdkkH4qASyfmw7K+P62ppcO3gjhypKcxL+WcvO0nN9B3xYKAawWRmnifWQG1sRPgI4O3+fy49MbjpoOyzeaDsL8Z/p3ib6dYAju3TLNcLhYpbmutnIhgFXijMnb5lQCWL4mPXgIzDwlL+fCtfua5OWNviY5/12J4mvSTSXdT5KvSbXPBF1vRACrxBkT26bPT//2eJlUbcVB6HekTQ5+Etg5z7jxUmT/47/Z2p4fPOtmb0kfCTTZrKkpBbB8/F7y7WWuNRUHe/3b5t84X69LFc969qwwB3xbKgSwWhqtifa1th+giQ4Dhz2SgM9n54xw/oPaimdkOT+WE7N+dLgJzH3j6eTHew65M7xL450kXaA2kDn7QwBrTqiGPjaVANbakHxq2O77chWOj69Jzo/10vTQ5zfXOYuvSedMM8B8TbpQzsYy1k0AKyNuRVV7Js/n0iyTirr1r644EP2eNHvR9z3Ou+m/6TGLl/ZeYriv8oy02wzLGP1/11oOGGaY3r6CZN5TC2CdJm184B0oayv+G3Eg67/TS5tDAzroYJXvu72h01kD2svRBAGsHKrUOaoAAaxROamsAoErSfqQJL9BrbX4JtNbZHub+K8M+aiOGJYGeDeVVYr/lr0Ex1vzehtwLzXwzoKtFwJYrY/gcfs/tQCWc4Q4eF3TMovNzqqDUjJm37yOfU3yTBZfk2rddWmRvzICWItotf1ZJyZ/dYWzjTZTdQDaQRwvx/ULMs9C8W6G8+QD8gxIz7Dy7nK+h/ASLAeD/O8WZkd+bciDeuFKTrWpBbDM7uu7X8zWuGvs2mnh3LTeHdhLcJ3g379x/vtYpfi++6TD7+Zuafbfo9NLmlXqrOG7BLBqGAX6sK0AASxOkN4EfE4/JE0dbuHYfj+8qfl1envqZT2eEfF1Sf7/zyrO++WbNu94tpeksw27m5w23YDO+m4r/50AVisjNX8/pxbAsswDUsB6fqVynzw8XZMOTm+tPYPM16TD5uiSd1byNckPNL4m+a28r0k15QGb4zC2/QgBrFUF2/m+gzd+0XTfdrp8zCwsbx7jv2P/2/mgfibpF5L+kF6W+QWfH7z9t+k8Rmv3Dc4h6n9qD7avHw4HJjzD9fOVjNEUA1j+O3lFRZuWbHcq+O/Dv2W/kfTNlIh+7b7bQa3tip8vPDPzIuk3zr9z/vs5Xfp7quQUXLkbBLBWJqSC3AIEsHILU38JAd+AecZDLW/kFjXwD6xvPh3E8s2n3xL9I80q8xtS7/hzqs4CVVsZEcBa9Oyp//NTDGA5gOPcLF6O02LxNckPv74m+d+e1eEHRz8Ie+aGr0mnnsg1iQBWi2fw8n32/YRfLvmhlVKfwB2Gl3evrKhbUwxgmd+/BQ4itvx34sDW+vtuL0F0MHf9fXcridhX+ZMggLWKHt8NESCAFcJMIwUE/ED13fRmpEDzNDmSAAGskSArqmaKASzz+8b3EEmeOUlpV4AAVrtjt2zPHcTysiPvukepQ8DBhQOH2ev7VbAr43qRqQawbODl8s455SV1lHYFCGC1O3aT6TkBrMkM9SQP9Pppt55JHnwnB00Aq5OBXHcYUw1gmeCqKUcfv73tntcEsNodu1V67odzLzWqOc/PKsfX2nc/nq6nnp1eU5lyAMvj4IDia2oaEPqysAABrIXJ+EK0ADfR0eK0Fy3w8GEK8JOiG6W90QQIYI1GWU1FUw5geRAePOTLeGo1o0FHFhUggLWoWD+fv2ma9dPPEbV5JN4d8jopj1FtRzD1AJaX3D1lWGp+/9oGhv7MLUAAa24qPlhKgABWKXnajRJwfhbvInSzRnYSinJppR0CWK2M1Pz9nHoAy7lCXirpP7gmzX/SVPRJAlgVDUaBrtwnPaB7119KvMAP0o5v34tveq4Wpx7AMpKDWO+UtM9cYnyoNgECWLWNCP05jgABLE6KKQj4x9RT/1tNoFzbGDmhc9S1gwBWbaO/en+mHsCyoAPr3t2Pa9Lq55NriLwmEcAaZ8xaruXRwzn3GJYThg/hryRdoNKZV2sYBLB2SPge0UndLx5+lvTZYORvHAGsPs+hro4q6iG0KzQOpkkB79r3riHB5OWb7H09nfbOY2+QdOugLhHACoIObIYA1g5sJ4b2NemKgfY9NuUb+7dI2jfo4AhgBUFX3IzvnR8w7Lr59Ir72FvXPPPqmsO9x8GVHxgBrGMH6Cxp991zVj5mtXfvF+le4c5BHSWAFQRNM8sLEMBa3o5vtifgH9O38UZo6YHzg+IdJXmHx2cvXctiXySAtZhXC58mgHXsKJ0xBV8u08LAVdhHJ3C+xxBIONkQEHxWUP8IYAVBV96M75/vPewu+jRJJ668r61371spDcTXGzgQAlg7D9JZJX1M0h4NjF2NXfRvnF8Yn9/KQBIAACAASURBVF/So4I6SAArCJpmlhcggLW8Hd9sU+C0aTnhnm12v1ivvWX1q1IAyzlACGCNPxQPS7lVxq+5rhoJYO08HlyTljs/fU16Y7q59zWJANZyjtt96yqSPjp+tV3VeJd07jmIShlf4PvDzq17STp0/Kqz1EgA67isp5b02WF3Qu67Fzvl/NLYm748Y1iu/HgCWIvh8em+BQhg9T2+HN3mArsOSwk/KIlZD/OfIW+XdBNJfmi8LwGs+eEW+CQBrAWw5vzod4clr+dNOZLm/EqRj+0yPKR9SJKDe5T5BLz88kbDTb3fUN+PANZ8aAt+igDWfGBXkHTQ8AKiocTuvv3383HVxfdp/hs/oupe7tw5AlibD9buaSbWeRoay9Jd9UvjO0ly6g4CWKVHg/arEiCAVdVw0JlAAc96eGEKygQ222RTB6Yf0T+m3hPAyjOMBLDGd20lgOUj91vq50u6xfgM3dXopeB3GILpv09HRgArzxATwJrf9cJDgvE3STr3/F/hk9sIeJb3I4cZKH9uTIkA1tYD5iXzryfv41xntHdPv926KDMBrLnY+NBUBAhgTWWkOc7NBJy34sWSbpW2/UVpZwHPtvKsECdHXgte+RMEsPKcKQSwxndtKYDlo/fuhPun4Ix3T6XsLOApI86ncsNh1tXh6/4TAaw8ZwoBrMVcjz/kqvELH5+fx1vsq3w6CTgo/UBJL29UhADW9gPnv4vXppxm/I1sbuWZV7ffMEWSAFajFwS6nUeAAFYeV2ptS+DuaeYDfw87j5t39rp5WqKz/r8QwMpzfhPAGt+1tQDWmoDfvPoBjhv8nc+J9UuZ1/8XAljj/+24RgJYy7neS9Jzl/vqpL/147SM+ucNKxDAmm/wnNvpqfN9dFKfsonvBTeu7yWANanTgIOdJcAD+ywh/vtUBJx7xgmBvVMhRXqopGemtfcbPQhg5TlDCGCN79pqAMsSl0rLLc4xPkuTNXoHJu/4duQmvSeAlWdICWAt5+p764tI8jKgCy5XxaS+5Tx2T0/Jqn/b+JETwJpvAP03cuW07Pbf5vtK15/6qySfO6/Y5KWxD5wAVtfDz8EtKkAAa1ExPt+zgHPQPC8tmZvq8p3fpHxX79hmoAlg5fkrIIA1vmvLASxr+Jr0X2m5hZcXTrH4gdazZJ1faKtCACvPmUEAazVXJ3V/jKR7Di+Edlutqm6//XVJj5DkTRmqzyo/xygQwJoDad1HzpTuu73sdqrlh5LuNsw+/MA2AASwpnp2cNybChDA4sRA4LgCzonlZMqnnBCObxw/L+lqQ/6JP804bgJYeU4MAljju44UwCq+Y9dNJb1kgtekL0i6pqTDZpwaBLDG/9txjQSwxnH1zG7vqLenJOfJokh/kfSiYYfBB20x46RVIwJYy42cN+Vw4v6TL/f1Jr/lmYf+jdt73YYkWx0IAawmh5hO5xIggJVLlnpbFzj9kNj9SSmR4hT+Tu6dpi7Ps+NP5A3a/6SgWqnz6WdD4MA750SUqQSwLi3pMxGgwwYNIwWwgnq7fTOnS8sI7jyB3FgOqDso9bLhAfeIOfTvMwT3njPH58b4yP9KutwYFS1RxynmeNBZototv0IAazxNbxrjYKw3jjnDeNU2WdN7JDlPmHNeebOYnopn23kmf0T5yjBz7eKdBAB9n+37btvdOAKvcBteMniPIaj9mmEG4lFz9OWxaTbnHB9d+SP/l1IY9DAjcmUMKqhTYAoP5nXK06tWBPZJCRWv2EqHF+inf5w8bd+Bk28u8D3PUPMuMhGldADrw5KuGnGgaRyeEtRWyWacE+ZLkk4Q0ImeAljm8m/21Yc8UA9P+UMCCMObeG/6W/jqAi3fIuULW+ArS3+0ZADL4++gelQAhADW0qfJll88laS7pADOmcevvtoaHajy7/mzJL2/k+WCm2H7+uzZdhGlpwDWmpevcV5O6N84B+d6e079e9qp1EuLD17gJIn8jSOAtcDA8NEyAr1dGMoo0mrvAt4J7DbpoepcHcx+cODKD/a+QXjrEoN3nhTwitghrXQAy+PuLY0jrpVTmYF1GknfC1oO11sAa/1N/i2HN+9ObO5rUuvLkvxwe0i6Jr15iWvSHumaFpG7sGQAyzSPHMb7CUsYLfMVAljLqM33Hee0e7Sk2w4zDR3IiviNma9n437Kmy58eTi+x0l6X8eBqzU1B5f9u7PruIyb1tZjAGvtQH1/6Vl6Tllx9gDL3E34vtsvZR4yI9fVVv3wNcLn1Ulzd1QSAawAZJpYTaDXH8zVVPg2ApsL+IbTSwAc0HBy5RbL71KySG9HP8+05a2O0fl4vJQpdykdwHIetO9I8vKt3GUqASw7+gHcD+K5S68BrDU3X5P8xv/laflFbs8c9R+eklw7SftmOwzO26Z3Tb3/vB9e4XOlA1h+QPY1KSIpOAGsFU6UOb/qRO/XlfTchv+GtzrUT0i63ZCK4UedLHObZ0j9XOUZZr5XzF16DmCt2Xnp7fXTfXdE8CbHmPk37ibDbP6Pr3Df7ZdUnxzOrcvk6OCGOglgBSDTxGoCBLBW8+Pb0xQ42TAV3ksKvWvI9Rp4c+o3P59LCTJ9Y+Uf01WLAzuflnS+VSua8f3SASx3z0sIHfDL/cA4pQCWb8bePeTC8hLdnKX3ANaana9Je0m667A88waNzBL1TbKXE3lWxu9HOAm8NMs3+Ocfoa7tqigdwHLfHFjy7NncG40QwMp8Mq2r3n/Dfjj1UiH/EzGDJ8fReSblC4ccOl4K/K0cDTRQp/8unX7gYpn7OoUA1hqhk7t7kyHnjfJLmxbKR4aX3funGVfetGDV4heprjP3bxwBrFVHiu9nFyCAlZ2YBjoXcADHD40Ocvh/R+T1mZfUuVL8BtQ3k37zM3ZxQmHP/HAQzzNBcpQaAlg+Lu8S8wxJzt+Uq0wpgGVDP6D91zAt3jnVPAshR5lKAGu9nZf4OseOb/YvUNk16dAUZPI1yTfiY5ddJL0yvbHPdU7VEMCy22WHvxvnzHNC+Vy/OwSwxj5D56vPy6z3k3StlAfI/3etZS0lgf8u3jicjwd1mJh9GXsv+fJ1zmOYa4n3lAJY68fAgcE7pTyQ563sJbI3JvhoSkbvQNDYidDPkc4rB/FypfEggLXMXzzfCRUggBXKTWOdCzgPi7eEdm4av03NFdTZitF5ZP4m6RvDB7xjid+Ajv3juVnbfivkXAUXHXZuHDsHjW/QnDOghuLrpWe5OC+Wt0Uf+/r5ipTcs4ZjjeyDAw3e2dIP4mMHHRzE9Y1uxN9BpNm8bZ1N0gPSOevgjv8+xz5vt+vL2jXJMzG8Dfg7g8bC1yS/qfeDztjXYR+Ld0ispfhvxgF27+A19th6vH5ey4FOuB9+SeTf2LVrZK6A5TzEvpZ6qa93Bz0gzez2EkHK5gIOPvr3zdeiscft++m86G0nx0XOpT2HZXmPSInffd899j3orL78I913+17VLyE/NusLI/13LyX3eXXhDAFS5yh13VO9bxppiOqrxjcIvQzq2Dc79Y0WPUIgXsAPFA5wOLmyl/M4v8UZM3bj80Pw6B1pmvJPhwe3X/EGNKM2VSPQnoDziJw1XZP8MOxrUs4d0L6Qlt1+YAgg+pr0S65J7Z009Lg6Ac96PpMkP7R7+fV10t917o5657TPpHsMz4p2UNP/rJKzLnefqX9aAg5e+b773EOy9Bunv4/dMxE4aOUZhw7weyaxZ135vpuCAAJBAgSwgqBpZvICflvi5WdeZugHST88OqjlXAnO3eIbU88U8NujtWnB/pH0uvk/pBwx/oH8haSfpF3cvi3Jb3383ykIIIDAIgKepeS3t74meaaWH4x9TfL1yNcl/7PVNemPkg4bkq//epNr0teHt7feLIKCAAL5BbyhjJcNOy+O7y38N+z7Dc/88X2F/3H+Rv8tewbQ2v2Fg1L+x/cYzovpf5yLzsFmB6c8e9UzfLwM2zMyPLubgkArAn6+9W/ahdLfh3/jfN/tmaprv3HOq+WXO+tnJvu++8/pvnrtN85L3x2k8t+BN9Dwb9wYuWRbsaSfCFQnQACruiGhQwgc84PqG0v/kFIQQACB0gJck0qPAO0jMI6A/5a9A/GUl52NI0ktPQnwG9fTaHIs3QsQwOp+iDlABBBAAAEEEEAAAQQQQAABBBBAoG0BAlhtjx+9RwABBBBAAAEEEEAAAQQQQAABBLoXIIDV/RBzgAjUJdDTLhh1ydIbBBBAAAEEEEAAAQQQQKBfAQJY/Y4tR4YAAggggAACCCCAAAIIIIAAAgh0IUAAq4th5CAQQAABBBBAAAEEEEAAAQQQQACBfgUIYPU7thwZAggggAACCCCAAAIIIIAAAggg0IUAAawuhpGDQAABBBBAAAEEEEAAAQQQQAABBPoVIIDV79hyZAgggAACCCCAAAIIIIAAAggggEAXAgSwuhhGDgIBBBBAAAEEEEAAAQQQQAABBBDoV4AAVr9jy5EhgAACCCCAAAIIIIAAAggggAACXQgQwOpiGDkIBBBAAAEEEEAAAQQQQAABBBBAoF8BAlj9ji1HhgACCCCAAAIIIIAAAggggAACCHQhQACri2HkIBBAAAEEEEAAAQQQQAABBBBAAIF+BQhg9Tu2HBkCCCCAAAIIIIAAAggggAACCCDQhQABrC6GkYNAAIHeBXyxPrr3g+T4EEAAgVYFuEi3OnL0GwEEEECgIQECWA0NFl1FAAEEEEAAAQQQQAABBBBAAAEEpihAAGuKo84xI4AAAggggAACCCCAAAIIIIAAAg0JEMBqaLDoKgIIIIAAAggggAACCCCAAAIIIDBFAQJYUxx1jhkBBBBAAAEEEEAAAQQQQAABBBBoSIAAVkODRVcRQAABBBBAAAEEEEAAAQQQQACBKQoQwJriqHPMCCCAAAIIIIAAAggggAACCCCAQEMCBLAaGiy6igACCCCAAAIIIIAAAggggAACCExRgADWFEedY0YAAQQQQAABBBBAAIElBfwIdfSS3+VrCCCAAALLChDAWlaO7yGAAAIIIIAAAggggAACCCCAAAIIhAgQwAphphEEEEAAAQQQQAABBBBAAAEEEEAAgWUFCGAtK8f3EEAAAQQQQAABBBBAAAEEEECgSgEW+1Y5LCt1igDWSnx8GQEEEEAAAQQQQAABBBBAAAEEEEAgtwABrNzC1I8AAggggAACCCCAAAIIIIAAAgggsJIAAayV+PgyAggggAACCCCAAAIIIIAAAggggEBuAQJYuYWpHwEEEEAAAQQQQAABBBBAAAEEEEBgJQECWCvx8eUWBUjm1+Ko0WcEEEAAAQQQQAABBBBAAIEpCxDAmvLoc+wIIIAAAggggAACCCCAAAIIIIBAAwIEsBoYJLqIAAIIIIAAAggggAACCCCAAAIITFmAANaUR59jRwABBBBAAAEEEEAAAQQQQAABBBoQIIDVwCDRRQQQQAABBBBAAAEEEEAAAQQQQGDKAgSwpjz6HDsCCCCAAAIIIIAAAggggAACCCDQgAABrAYGiS4igAACCCCAAAIIIIAAAggggAACUxYggDXl0efYEUAAAQQQQAABBBBAAAEEEEAAgQYECGA1MEh0EQEEEEAAAQQQQAABBBBAAAEEEBhfwGGho8evNkONBLAyoFIlAggggAACCCCAAAIIIIAAAggggMB4AgSwxrOkJgQQQAABBBBAAAEEEEAAAQQQQACBDAIEsDKgUmX7Au1MomzfmiNAAAEEEEAAAQQQQAABBBBAYJYAAaxZQvx3BBBAAAEEEEAAAQQQQAABBBBAAIGiAgSwivLTOAIIIIAAAggggAACCCCAAAIIIIDALAECWLOE+O8IIIAAAggggAACCCCAAAIIIIAAAkUFCGAV5adxBBBAAAEEEEAAAQQQQAABBBBAAIFZAgSwZgnx3xFAAAEEEEAAAQQQQAABBBBAAAEEigoQwCrKT+MIIIAAAggggAACCCCAAAIIIIAAArMECGDNEuK/I4AAAggggAACCCCAAAIIIIAAAggUFSCAVZSfxhFAAAEEEEAAAQQQQAABBBBAAAEEZgkQwJolxH9HAAEEEEAAAQQQQAABBBBAAAEEECgqQACrKD+NI4AAAggggAACCCCAAAIIIIAAAgjMEiCANUuI/44AAggggAACCCCAAAIIIIAAAgggUFSAAFZRfhpHAAEEEEAAAQQQQAABBBBAAAEEEJglQABrlhD/HQEEEEAAAQQQQAABBBBAoEoBP9AeXWXP6BQCCIwtQABrbFHqQwABBBBAAAEEEEAAAQQQQAABBBAYVYAA1qicVIYAAggggAACCCCAAAIIIIAAAgggMLYAAayxRakPAQQQQAABBBBAAAEEEEAAAQQQQGBUAQJYo3JSGQIIIIAAAggggAACCCCAAAIIIIDA2AIEsMYWpT4EEEAAAQQQQAABBBBAAAEEEEAAgVEFCGCNykllCCCAAAIIIIAAAggggAACCCCAAAJjCxDAGluU+hBAAAEEEEAAAQQQQAABBBBAAAEERhUggDUqJ5UhgAACCCCAAAIIIIAAAggggAACCIwtQABrbFHqQwABBBBAAAEEEEAAAQQQQAABBBAYVYAA1qicVIYAAggggAACCCCAAAIIIIAAAgggMLYAAayxRakPAQQQQAABBBBAAAEEEEAAAQQQQGBUAQJYo3JSGQIIIIAAAggggAACCCCAAAIIIIDA2AIEsMYWpT4EEEAAAQQQQAABBBBAAAEEEEAAgVEFCGCNykllCCCAAAIIIIAAAggggAACCCCAAAJjCxDAGluU+hBAAAEEEEAAAQQQQAABBBBAAAEERhUggDUqJ5UhgAACCCCAAAIIIIAAAggggAACCIwtQABrbFHqQwABBBBAAAEEEEAAAQQQQAABBBAYVYAA1qicVIYAAggggAACCCCAAAIIIIAAAgggMLYAAayxRakPAQQQQAABBBBAoCEB3w4f3VB/6SoCCCCAAALTFCCANc1x56gRQAABBBBAAAEEEEAAAQQQQACBZgQIYDUzVHQUAQQQQAABBBBAAAEEEEAAAQQQmKYAAaxpjjtHjQACCCCAAAIIIIAAAggggAACCDQjQACrmaGiowgggAACCCCAAAIIIIAAAggggMA0BQhgTXPcOWoEEEAAAQQQQAABBBBAAAEEEECgGQECWM0MFR1FAAEEEEAAAQQQQAABBBBAAAEEpilAAGua485RI4AAAggggAACCCCAAAIIIIAAAs0IEMBqZqjoKAIIIIAAAggggAACCCCAAAIIIDBNAQJY0xx3jhoBBBBAAAEEEEAAAQQQQAABBBBoRoAAVjNDRUcRQAABBBBAAAEEEEAAAQQQQACBaQoQwJrmuHPUCCCAAAIIIIAAAggggAACCCCAQDMCBLCaGSo6igACCCCAAAIIIIAAAggggAACCExTgADWNMedo0YAAQQQQAABBBBAAAEEEEAAAQSaESCA1cxQ0VEEEEAAAQQQQAABBBBAAAEEEEBgmgIEsKY57hw1AggggAACCCCAAAIIIIAAAggg0IwAAaxmhoqOIoAAAggggAACmQV8Z3h05jaoHgEEEEAAAQQQWEKAANYSaHwFAQQQQAABBBBAAAEEEEAAAQQQQCBOgABWnDUtIYAAAgggsJAAk2EW4uLDCCCAAAIITFaAe4bJDv2kDpwA1qSGm4NFAAEEEEAAAQQQQAABBBBAAAEE2hMggNXemNFjBBBAAAEEEEAAAQQQQAABBBBAYFICBLAmNdwcLAIIIIAAAggggAACCCCAAAIIINCeAAGs9saMHiOAAAIIIIAAAggggAACCCCAAAKTEiCANanh5mARQAABBBBAAAEEEEAAAQQQQACB9gQIYLU3ZvQYAQQQ6FyAfXQ6H2AODwEEEEAAAQQQQACBhQUIYC1MxhcQQAABBBBAAAEEEEAAAQQQQAABBCIFCGBFatMWAggggAACCCCAAAIIIIAAAggggMDCAgSwFibjCwgggAACCCCAAAIIIIAAAggggAACkQIEsCK1aQsBBBBAAAEEEEAAAQQQQAABBBBAYGEBAlgLk/EFBBBAAAEEEEAAAQQQQAABBBCoS4CNgOoaj/F7QwBrfFNqRAABBBBAAAEEEEAAAQQQQAABBBAYUYAA1oiYVIUAAggggAACCCCAAAIIIIAAAgggML4AAazxTakRAQQQQAABBBBAAAEEEEAAAQQQQGBEAQJYI2JSFQIIIIAAAggggAACCCCAAAIIIIDA+AIEsMY3pUYEEEAAAQQQaF6ARLDNDyEHgAACCCCAAAJdCRDA6mo4ORgEEEAAAQQQQAABBBBAAAEEEECgPwECWP2NKUeEAAIIIIAAAggggAACCCCAAAIIdCVAAKur4eRgEEAAAQQQQAABBBBAAAEEEEAAgf4ECGD1N6YcEQIIIIAAAggggAACCCCAAAIIINCVAAGsroaTg0EAAQQQQAABBBBAAAEEEEAAAQT6EyCA1d+YckQIIIAAAggggAACCCCAAAIIIIBAVwIEsLoaTg4GAQQQQAABBBBAAAEEEEAAAQQQ6E+AAFZ/Y8oRIYAAAggggAACCCCAAAIIIIAAAl0JEMDqajg5GAQQQAABBBBAAAEEEEAAAQRGEnDE4OiR6qIaBFYUIIC1IiBfRwABBBBAAAEEEEAAAQQQQAABBBDIK0AAK68vtSOAAAIIIIAAAggggAACCCCAAAIIrChAAGtFQL6OAAIIIIAAAggggAACCCCAAAIIIJBXgABWXl9qRwABBBBAAAEEEEAAAQQQQAABBBBYUYAA1oqAfB0BBBBAAAEEEEAAAQQQQAABBBBAIK8AAay8vtSOAAIIIIAAAggggAACCCCAAAIIILCiAAGsFQH5OgIIIIAAAggggAACCCCAAAIIIIBAXgECWHl9qR0BBBBAAAEEEEAAAQQQQAABBBBAYEUBAlgrAvJ1BBBAAAEEEEAAAQQQQAABBBBAAIG8AgSw8vpSOwIIIIAAAggggAACCCCAAAIIIIDAigIEsFYE5OsIIIAAAggggAACCCCAAAIIIIAAAnkFCGDl9aV2BBBAAAEEEEAAAQQQQAABBBBAAIEVBQhgrQjI1xFAAAEEEEAAAQQQQAABBBBAAAEE8goQwMrrS+0IIIAAAggggAACCCCAAAIIIIAAAisKEMBaEZCvI4AAAggggAACCCCAAAIIIIAAAgjkFSCAldeX2hFAAAEEEEAAAQQQQAABBBBAAAEEVhQggLUiIF9HAAEEEEAAAQQQQAABBBBAAAEEEMgrQAArry+1///27iA5khgEAuD/X92OPvkOjUZAPkBIZDk27Ir1mAABAgQIECBAgAABAgQIECBAICmgwEoCOk6AAAECBAgQKBV4v1t7Sm8wnAABAgQIECBwvYAC6/qIPJAAAQIECBAgQIAAAQIECBAgsFtAgbU7f9sTIECAAAECBAgQIECAAAECBK4XUGBdH5EHEiBAgAABAgQIECBAgAABAgR2CyiwdudvewIECBAgQIAAAQIECBAgQIDA9QIKrOsj8kACBAgQIECAAAECBAgQIECAwG4BBdbu/G1PgAABAgQIECBAgAABAgQIELheQIF1fUQeSIAAAQIECBAgQIAAAQIECBDYLaDA2p2/7QkQIECAAAECBAgQIECAAAEC1wsosK6PyAMJ/EDg/Zfh+cG9riRAgAABAgQIEIgJ+P4t5uYUAQJtBBRYbaLyUAIECBAgQIAAAQIECBAgQIDATgEF1s7cbU2AAAECBAgQIECAAAECBAgQaCOgwGoTlYcSIECAAAECBAgQIECAAAECBHYKKLB25m7rpQI+GmFp8NYmQIAAAQIECBAgQIBAcwEFVvMAPZ8AAQIECBAgQIAAAQIECBAgMF1AgTU9YfsRIECAAAECBAgQIECAAAECBJoLKLCaB+j5+wT8GuC+zG1MgAABAgQIECBAgACB7QIKrO1fAfYnQIAAAQIECBAgQIAAAQIECFwuoMC6PCDPI0CAAAECBAgQIECAAAECLQT8ukiLmLo+UoHVNTnvJkCAAAECBAgQIECAwNUC2oyr4/E4As0EFFjNAvNcAgQIECBAgAABAgQIECBAgMA2AQXWtsTtS4AAAQIECBAgQIAAAQIECBBoJqDAahaY5xIgQIAAAQIECBAgQIAAAQIEtgkosLYlbl8CBAgQIECAAAECBAgQIECAQDMBBVazwDyXAAECBAgQIECAQA8BH+DdIyevJECAQA8BBVaPnLySAAECBAgQIECAAAECBAgQILBWQIG1NnqLEyBAgAABAgQIECBAgAABAgR6CCiweuTklQQIECBAgAABAgQIECBAgACBtQIKrLXRW5wAAQIECBAgQIAAgfECPoosFjG3mJtTBAoFFFiFuEYTIECAAAECBAgQIECAAAECBAjkBRRYeUMTCBAgQIAAAQIECBAgQIAAAQIECgUUWIW4RhMgQIAAAQIECBAgQIAAAQIECOQFFFh5QxMIECBAgAABAgQIECBAgAABAgQKBRRYhbhGEyBAgAABAgQIECBAgAABAgQI5AUUWHlDEwgQIECAAIEPBPzBpw8QjSBAgAABAgQIDBVQYA0N1loECBAgQIAAAQIECBAgQIAAgSkCCqwpSdqDAAECBAgQIECAAAECBAgQIDBUQIE1NFhrESBAgAABAgQIECBAgAABAgSmCCiwpiRpDwIECBAgQIAAAQIECBAgQIDAUAEF1tBgrUWAAAECBAgQIECAAAECBAgQmCKgwJqSpD0IECBAgAABAgQIECBAgAABAkMFFFhDg7UWAQIECBAgQIAAAQIECBAgQGCKgAJrSpL2IECAAAECBAgQIECAAAECBAgMFVBgDQ3WWgQIECBAgAABAgQIECBAgACBKQIKrClJ2oMAAQIECBAgQIAAAQIECBAgMFRAgTU0WGsRIECAAAECBAgQIECAAAECBKYIKLCmJGkPAgQIECBATijiMAAAA+hJREFUgAABAgQIECBAgMBQAQXW0GBja71fDk/sqFMECBAgQIAAAQIECBAgQIAAgSIBBVYRrLEECBAgQIAAAQIECBAgQIDALwT854xfqFffqcCqFjafAAECBAgQIECAAAECBAgQIEAgJaDASvE5TIAAAQIECBAgQIAAAQIECBAgUC2gwKoWNp8AAQIECBAgQIAAAQIECBAgQCAloMBK8TlMgAABAgQIECBAgAABAgQIECBQLaDAqhY2nwABAgQIECBAgAABAgQIECBAICWgwErxOUyAAAECBAgQIECAAAECBAgQIFAtoMCqFjafAAECBAgQIECAAAECBAgQIEAgJaDASvE5TIAAAQIECBAgQIAAAQIECBAgUC2gwKoWNp8AAQIECBAgQIAAAQIECBAgQCAloMBK8TlMgAABAgQIECBAgAABAgQIECBQLaDAqhY2nwABAgQIECBAgAABAgQIECBAICWgwErxOUyAAAECBAgQIECAAAECNwi8P9w+NzzEGwgQKBFQYJWwGkqAAAECBAgQIECAAAECBAgQIPCVgALrK0lzCBAgQIAAAQIECBAgQIAAAQIESgQUWCWshhIgQIAAAQIECBAgQIAAAQIECHwloMD6StIcAgQIECBAgAABAgQIECBAgACBEgEFVgmroQQIECBAgAABAgQIECBAgAABAl8JKLC+kjSHAAECBAgQIECAAAECBAgQIECgRECBVcJqKAECBAgQIECAAAECBAgQIECAwFcCCqyvJM0hQIAAAQIECBAgQIAAAQIECBAoEVBglbAaSoAAAQIECBAgQIDAv8D7Y8cDhAABAgQIhAUUWGE6BwkQIECAAAECBAgQIECAAAECBE4IKLBOKLuDAAECBAgQIECAAAECBAgQIEAgLKDACtM5SIAAAQIECBAgQIAAAQIECBAgcEJAgXVC2R0ECBAgQIAAAQIECBAgQIAAAQJhAQVWmM5BAgQIECBAgAABAgQIECBAgACBEwIKrBPK7iBAgAABAgQIECBAgAABAgQIEAgLKLDCdA4SIECAAAECBAgQIECAAAECBAicEFBgnVB2BwECBAgQIECAAAECBAgQIECAQFhAgRWmc5AAAQIECBAgQIAAAQIECBAgQOCEgALrhLI7CBAgQIAAAQIECBAgQIAAAQIEwgIKrDCdgwQIECBAgAABAgQIECBAgAABAicEFFgnlN1BgAABAgQIECBAgAABAgQIECAQFlBghekcJECAAAECBAgQIECAAAECBAgQOCGgwDqh7A4CBAgQIECAAAECBAgQIECAAIGwgAIrTOcgAQIECBAgQIAAAQIECBAgQIDACYE/i/F+gewjJP4AAAAASUVORK5CYII=;" vertex="1" parent="1">
          <mxGeometry x="140" y="105" width="90" height="90" as="geometry" />
        </mxCell>
        <mxCell id="qRXKXqMlxCZ7JL6eJb9L-5" value="" style="shape=image;verticalLabelPosition=bottom;labelBackgroundColor=default;verticalAlign=top;aspect=fixed;imageAspect=0;image=data:image/webp,UklGRh4OAABXRUJQVlA4WAoAAAAYAAAAbwIAjwEAQUxQSIIKAAABsEcA2DXF3uP1+YwxxhgZI0nWyEqSlc5trCQrK517knNNVs79JFnJkrGSc8k495OcS5IknVvnlmRlJenc1kiSjGSNkWSMMT6f55+9NO83p+d53t+liJgAOPf/uf/P/X/u/3P//1dLu6at551eQybYMjCbKiAi7hsw/nhiw8H7n/gNl8DVr7L44E7QZFGtU1l8aJOlYiiFp1pnqjR8VsRTbjRSrNZFF0/dRLHab2MpDZTGFSypU2GaVE9iiZ2gWeIfPEajJv43lv7QMkj87zmo4T6Yo03bqOWSMWINFlHPr0yRyBLqOmqINKRR2+eMEPVMAfVtMEHUGy7q6wYMEJVEnbfB/FRJ1HrS/FBJ1Lvf+FBJ1Dxmeqgkar5nmR6voe5fgOHZgdp3GB6NBe2yPrMjeoDafwVGp72K+rcbHWoM9T/0GR3trgcmwOSMHKL+TszomEMPLoHJ2YtebDU5agpeuKVMjgX0YicYnM+gF3dtgyOY9kQnGJyj6MUtZXBETzwRB4NzCr34PRictUUv5KpNjs/Qi2+BwVld8MKfPpPjA/Rg8RIYnOFjL4yCyTmIHtywjY4dD+RqweRsRQ/2gdE544FPwOiM5PX7zTY7XkDt0xVgdn6vXb4ezM7giW5uOxienai52wemZ1K3BJie1o5m48r4iDp6jSswPp9DrWdtMD8TWo0pMEB/0WlcgQma0ccdVmCCVqC2+V4wQx/V5rAVDNFuXf6sBVN0WJNfgmCMfqGF+44F5uiMDtuPgkl6S4OJABilWyX7sxkM01Jl37HBpCl+FALztBTFz6rBRD2948+qwUxdPx1365UwmKozp7E70aDAXJ18mOziUL0FRuv1+xTzf37/Xne9BZqrgC11FZFIJFLhCbvm3n7Q2V/X+VZy7rftdPou5tLp9PJCcrAnHrEFzF/31FvJuc2dbBbvmT3Ymh/vbQ5qpbsVbRtd3M7jKZ/cWUx01/qlyv/4wMx2Hk+5uP1Vf8wqPyrWO7vnYOmPbt98KiJN/sdvLOew5NmZF6pVGQk/9cU+auz8PXHFL0aRV77Poa5uKnnZVxZiQ7cc1D//42tVAuTv+aWAmh991RX0WENiBz3r3OoNyU7zFyfoyfxMq+WZqqG/0eOF6WaxCfZuoIeznz1ueyD02iqWxZ03whITHr6LXt8duaCX/+psActmZqRSWsKJYyyHxV9eCOlixZMHWF5P3otKim/gGMtmfq7Dp0HT+D6W4dxoWEpU9wGW19xnLVYpVGwkheU6e80SkYZVLMOHn8R9p1R7fQvL+uYl+Qgli1imM9PPhB/Genx8B8u+kwwJR8chlvPi+o0W330qu7/J4L/jXptkBL7B8p/b+GLwrYGZlIv/ouM+sWjaRaKux4RiyEGyZjskIjyLlHWH5OFiCombtIShPYfknQ+IQq+LBF4OCsJ1pPFGjRRYnyCV96MyYE0jnddDEmDNIKWX/fynPkFaf2Nxn0ogtccV8113yYWv8V6Pi/R22zgv7iDFM1G+ix0izVdtrgtuIdUTTGd9g2RfsXmuG6l+fE0By1/MU20xCjxvryPNj14Arh9Hmt+qBq6POyRzEj7gensXKZ5pA74fQYpvVALf1xYoNuUHvldLSPBBBYzfifQuPgWcb6fodRQH1n8NyX3UBKwfPCbXURPw/kdI7aMm4P2qArWOmoD5P0FiFzuB+aty1OoF7h9BYt8E7g9mibVksd81pPVOBXC/laJVoQnY/zLSegj4f5pWyxb/hXKkOrkA/N+PpB4AAdwk1boSgJhLKacJBPA6UnoKBFD9Tal8VAIuIqXHQQIHKZWLiMAqpd4DCawoEqpQKQKdSOivQAQ/olRcBv4k1LYlAlGHUAMggh1IZ6dKBsYI9SPI4AqhemXAztDJjcpAHdL5NshgD6GGhWCMUJeFYIlOhaAMqF06rYMMBnJ0+kgIqpHOLwhBC6EahOAFOhWCQjBKpx0lBJN0WgIh/J5On0jBNp1GpSBNpx4pQDq3CoGPUI1CUPefK05QCB41bp45x0jItMHG/3rTZtz0GDfvGDcTxs2PQtBGqJQQ1BHqxGfaYEwGIpR6TgaAUqNCUCTUL0KwTaiMJQObhMJaGVikVJ8MfEapGRlIUOrIEoGXKIVxEWgj1UciUE+qQ0sCQi6lMC4B9hGppiUANkmVC0nALKmwXwIStNpUAvACrTAuAI3EWhSAUIFWbiP/qV1a4QL/wSyx3Cb+GyYWrir2u0ot7GC/Kpdau37usw6phWPcBwvkcuu57wa5cMNmvqv0wuvMF3Hp5TTzHmzTC/dCvDdJMFxQrHeNYjjCejGSuZ2cZ6UphoVLjAfTJMNMNeO9RDNMRfku6tAMU1G2gy2iYaqS7caohqlKrmshG6aiTBc8IRumG3gOFumGmTjP9REOC10sV1kkHOJNxXBwi3T4fQXDDdAO95v57YJDOywOWtym1omHuBxjNhgiH+besXntoks+xM1mxWkqxQDoTFUzGtzgAMTjGyE+q+MBxKPhAJfBbSZAzA5FmKyfDRDzEzwWLPABLvIYTDNCF5O18MGxj8nsAzaYAS4fZYM2NqtxmSBtsxmsMsF7wOftTFDLaNYOC6wCpw+yQBerRRwGyAZYDWYZYAp4/XEGaGI2tUa+TcVs0EW+PuB2a5d4h352gz7ijQK/+7KkK4YZDgZJNwEcH8wQzqllORgi3JziuWCGbpeA6QfJtqK4LnRMtRZg+wTRbiu+Cx/T7Cow/hDJ1oDz7X2CuS2sB68QbB5439oil9vIfHDFpdZHwP1qnli5KvaDWJ5WoyCACVId+iQgeJdSXSCC3YRas2RArZLJeRSEsLZApUkQwxEiHUXkwJeiURcIYtyl0G8gih8RqFgjC8E9+gyBMLY41Fm3pAHeI06hDsTR9zdthkEgGwqUuQ0i+QZhTmplQi3Q5TkQyopDqkwpqYDWIk32AiCXCZI4zSCY9hpFhkE0qzP0WLFkAzpcamSrQTrHiOF2gnjat2jxHgho5V1KrNkSApcdOhxWgowOkKHYAkJqzVNhAMQ0eIcG80pOoOqIAnf8IKnNhbPf3WqQ1Rfcs16+BaT1xlmvF8TVmjzb3QSBtZfOcvMgsqGts9uKLTMQ3jyrbYZBasO7Z7M7YZDb2MFZ7CAGklu3d/baj4HsRv4+a21WgfRG1spRsXDPYjnaCIP82otlpLAzP9bfXl8TsO/pr7nY3j+2tOOUkUUbJNieKA93vnqpIQCnHGp+Y+6gPEzYIMPqHc/tTDwVVVBiVdM3f+y1whsKxLgt66Hiyhs1oKu6/N62lw4eBUmObXnEXemvBL2txuSBVxYrQZYD444H9oZqwYt250LRA8ev2SDOLbua5edaLPBsxeCObvMVINGBRF6j1EAYvK2uzBQ02moHqa5d0CQz8SiUw4q+dVePvV4bBLtp3inZ3c/abCibNa+tFkvlLl/1gWyrxql8KbYnrthQXlWkazpdgvQHFxUIePiVpfxpuJnZaxcUlGWrru+bO8WHy2+MP26DmAdaby5l3fvl9n68+VylBeXd39A9Mrm6ls1ms/tr8x/0NvlA3sP1l+8Z8cG5/8/9f+7/c/+f+1+yAVZQOCC0AgAAEEoAnQEqcAKQAT5tNJhJJCKioSMeyACADYlpbuF2ngD+ADTzdx/QD+AfgB+gH5+9/gMvn/z9nB/z/5+zg/5/8/Zwf8/+fs4P+f/P2cH/P/n7OD/n/z9nB/z/5+zg/xr3TaQcH/P/n7OD/n/z9nB/z/2rcPxIgZxLSSj/P/n7OD/n/z9nB/yiKRFQQm+gBm1ezg/5/8/Zwf8/+fs3aBmN2RiaunH/z9nB/z/5+zg/5/82y8XbwKug+6cf/P2cH/P/n7OD/E/Pyxr1LGH1AA/VBQk6+nTAh5YKbMs27Z4/5/8/Zwf8/+fq3FAKuTsTG4P+fG3dV8LMXo4/+fs4P+f/PqoAf9YqXs4P+f/Nhp98R8/Zwf8/+fs4Lgj5+zg/5/oddjvtXs4P+f/P2cFoLtUXu6vZwf8+KZdOP/n7OD/n/zb5eJjcH/P9IhXj7L3dXs4P+f/P2btAzavZwf8+MtnB/z/5+zg/5/7bXR/n/z9m7UMtnB/z/5+zg/5/qIOD/n/z9m6yO3z/W6cf/P2cH/P/m4cCPn7OD/n+pMraLQZXR/n/z9nB/z/2ommLV+hSSj/P/n1YagLEij3dXs4P+f/Nvl4mNwf8/+bZfP/n7OD/n/z9X6dofz/5+zgtBdqqcbV7OD/n/z9nB8tCLNQGBm1ezg/5UDYP+f/P2cH/P/n1YagLEij3dXstk7J0jbL3dXs4P+f/P2cHzb2v1qKrsT8/LnvkmtAJDwXWJHZP/n7OD/n/z9nB/z/UnXvrR1fqNlNt6b+f/P2cH/P/n7OD/n/z9nB/z/5+zg/5QAD+6C0AACR2F7//+l8l/m+AZcTKgO89WSNOYVXV7Aol92L33wHDrdyjS0iBBsWh2wkiRI2UOMwm+tAAmVaAAAAAAAAevAzg2QkHfwM4FszMwIvzY/6tAAAAAABFWElGugAAAEV4aWYAAElJKgAIAAAABgASAQMAAQAAAAEAAAAaAQUAAQAAAFYAAAAbAQUAAQAAAF4AAAAoAQMAAQAAAAIAAAATAgMAAQAAAAEAAABphwQAAQAAAGYAAAAAAAAASAAAAAEAAABIAAAAAQAAAAYAAJAHAAQAAAAwMjEwAZEHAAQAAAABAgMAAKAHAAQAAAAwMTAwAaADAAEAAAD//wAAAqAEAAEAAABwAgAAA6AEAAEAAACQAQAAAAAAAA==;" vertex="1" parent="1">
          <mxGeometry x="336" y="105" width="104" height="66.67" as="geometry" />
        </mxCell>
        <mxCell id="qRXKXqMlxCZ7JL6eJb9L-6" value="" style="shape=image;verticalLabelPosition=bottom;labelBackgroundColor=default;verticalAlign=top;aspect=fixed;imageAspect=0;image=data:image/webp,UklGRgpHAABXRUJQVlA4WAoAAAAYAAAA/wEA/wEAQUxQSM09AAAB8IBtmyKr1f49VTVrLWDh7q4xII5EIO4uO5u4e7bF2EQIcTfiriRb4sECESRCgge3EHwhCwsw3fUcR3XP4qmqp7vXfN/3++2IgAXJbtvmkQwpqFgA2MSabyj6zf/8x//8x/97ByGkVDZGSilEURrbpMqZSOUuRsXiZs68Z1GYy6ichKpMebMOex10xBVPv/3GQ/c9PvyVt95698MP33n7tZdffvOVe/56xbknHHrA3h0bl0JVRkaPE0VaTqMUFJiSJj2PueT2J9//euaSNVtCtDThllULfhn9zhO3XXhc72Y5KDBRkVRcXSvib9CgyxGXPvDh5N8qA6zK6DAgmzDcTaQMKpdMGPHQNUd2rFMFQ1IUQddCzDTsddqQ935YpauIbPl8FK+01mhtzKuFJmbm81W8YX7ZxPcGn7xnwa1R/aVoORePD00Pu3r4hNVBYSaTD0xsQ0/GxMAgHxS89K7fJr103SEN47WRouOUKChp6va+5IUpmwsqEIF5HjIxOuIBY2bDhGcv61W3kNdiIb/JxfTfZODgUb/HKwy7v5fTrRgzy7+4Y2CTGM85Wf1/bkzxDY+/Z1xFPLfJV30tz0vz8Ryo4uthx8YKoer8Y+MVjfIDb/l8fSxKBKaKkABTNYcbR968f1k89lfLKdF9Lc59c2nss4KY3bDPgCJO9fzX/tQ69lhZ/aaIff4+dlNUzSDlNwn6mehJlWNv7CZihOo0JXfA0J8ipYfmXMJNGPsiyU8ZekCuekwQSpjA/vfNjKKbp88Lph8k0X0zhkUEUY2thhYka7HHP38JYhRMFRMjhL8M2SdWJarOljctrplkNKwNJW1MYREYfHdty2rqL0XZefnJ71cS7k+h2zeNOLGG+aXq5OUFSux+/9IqKSlHWHRfj1hSqTY+W5rrT/lkZ/wrI/VMQaG464tTakQSqy4+u80d0fWFlHQkmOvm39m2GvhoEYX6vLU5lp+nrIku3/JWn2rdh2g80ZadOcHi+jSsgeivTi2LKiDVt1C9q2ebXNyE0tpEApt9bb3qWUBKAc3uWmGS724/NNL40Sv+2TgKVL+uaHX/+vQPIcYlt+7+VgBSVK9CHZ7YZF/dSNevkI1PtIsuqD59a7R+fKvP6oaL1/XCkN8O7pgItz7Zqpr0DWJU0+LByijkbViYk6IA/SAfFA5s8xbYdH/TalA7hJLQYOiGKORvCACGs7dbU//4TnvB9ptu/HR+WMCgr8DawfWqOb2SUkLN61b4CFXRE7ltyrOXtBxmGzs1nnsClaS1ZXSd1xFqdbvg2Z+3xU9pP4EV15SBlNWYkDp7rodQYZvk9p+Hn9MOJFxvfdnW0+Fc6skQQ0u7qjdE9Ya2pz4yJZa1BaGXwKxTIwlXV6qbfSdE+YKfsX+L37ywU6RMBX+zjDwBru4DcBYVD/6KgWWUXdETylQsiXQ87/XFfqqi2jA85gDzG9USats3TcIPfZQ2OybecVCN+BSAErjK2i3oBmVUaDypyRzMW771qj1BmUgTizU1Dh787TYPJVAk2eD1NoZY7QiVD95kQh4oGz+5vEsV0z9ycL5l5SHA6a3NG1IR4jnQ9Btru7w7RJTCU+0u+7giTnAd2Pi3asZvGB0eP8dEJPd1jYoPLmwe/1opeP3TAjuXxwmNzctZ4EyQNT+wtku6gipMLLnovqZnvL/BfR3ERNMZR5ubqhHUDv+KlOGaUvnfCxrH5wBXEXuP3ImW7svaIMEOJQKexsDSLupQYGOPjTHd8Mx/VzomxJLYB+2rB8Qo9ZXestnlXfEIumv85S1jFFFl5tWnEkM7936pcZZQQsKdpuprZ+e2jN5+t4SWV47bGUUn7fSmyr8ow2h1gHrQFJejSuJvOOeePQspVbo9Vtq6N4UQYI0oGdxgXXf5pUlkCYRud8x1fHkQ4g/7GmLmU+s+ssvZXQVa3fr+sSVAaMI3ny3z7VyAL4EQ4ABR5fWCwNZOrLdbWyCGkiPeMb+kA5c37bq/tiFmO/XYhc7uKlDorH+0o43rl9DoZwzsws9GHb8uELOn7bCNwmNrgqAIMXrpVv+YHb2ZdnjTvCMMMcupzxs1unz2zk9PKIkUTGEBao6zYyDAJ6J+fyeI22O22tk8fiwptiA5lBz70U6Hj45k9UxEzGrqke6osdereKI7QExHJFh+Lwb4UDTsww0K7GEbbe3rIOlpCaDH42sjSTkkHp7NRAW1nzZUh6EFf2sSXU+NwvCkncvjA1GMcoRCe2CFnQ3w0Tgn5Msb3zTfMBI4I+qHaoLKXKqCA2e7SZsFpfjP59W0mc2n4Gbbs4+AFI5hXmC/1bZ2MCgroULNQVOcVUEj6U8/MGuvUiBvM58b7kLfnqRAWCgmB39GbX0HgGuYN+i5yk4wIV5jk1fEhCSPG+8uYD5AbjasZuqvdRjniBp7ubEDhSnPreLwETtR2/4QeIB5hb1W2AU1nmUZU0xAHDFWOxNvgF+2NMTs/LUzKjDQrkJfDQC7kIlTPdZiaOVeBCm8wLzDnr9haIXth4EC2wAcOgodBXSAq07Oyh9TUPok6tBV6NuBtiEQ0MjUX6xy9FdBCHCK3QRXYmBFWrMHSLAPHPmNq0Co8fEyUJnouv3gghovsX8+RUbj9CydGoWBlXs7amz2BfMW+6y2jNPzW1jbKCcRx09B7UrQkztmnxVG6ZUYOKpuLhqUczBKU8JLmLc6+1G0a4A/mNfovcrSTqwFwj6dScgNmu+oAhrgupOy7hEmFT5oLnNzV8XNtVyM0VVwu2V4TA0TL7ygyh+tsLQfRnARqPW3NRgGbq4aapSTaZc1H2MucxLa+XQLEMoFH2eitu8g8gvIQZ8tVjaPjxS8q/3PNXt2p/kNJ1eNbAoqM0BS4nIXl0VvNqZn1M7gwu272QYBzmwGElyD9lW7zTJuX2vEaW9iQuz5JTpJcwEuPRBymfWMi3di4IS64AxwU/yaxDzPJk8IcUlHkOAf5lVO2GFlUZuqgiupw6nzDdGF3T7IPCKbnvGIEbuLjHfHvXWcfYDnRmNg49btYyIEB0AOzrTauULjpt6OagqRLGsP2+6AGOnmPhAyg57R8HMHMo9ebMxeIJUrTp62ebrG7YeAAh8g2ktN9mYTwec3iz/MTQW0xygHXyDRi/2nHqjMcV1mYd4+xQW47kJwlukquNwqNuhYJPICqv27VXkZ4Jicy6IXLljlIvfN44zOGWNzcOga+2dE7/VOi6jt1ZXr+4dNdSCMVQf5wLzOMAwsezaUyzb3xq+hExWs7ge5THn++eary0Fuu/jkwm9NN09YYMNJgENNTOAEkPCMZfB6l7mEEnDCUgez60L84+zsCAoJg1FrB9QX60f1bXf4wiYi5PFlkMALIOB9u2IzOAaU01TY4EV7YhQx/wpSZIOLzeXQ9tRlJ8SpzmgP2SjOtN2UgOCHml/ZcKpxdRdw+KUQRafjfnOiiidAZIGVUMPM5XKQyN5uAEq4dOfYnA1xeiPjuAFMfWGaXVT/PhqK7JTY6K2C9nf7iTIZ4BqMw8D+so0XuP3SltBjPWqb2eFdjbb4wbDS3lQXbET3ShRF3BLPXe9CH6Nqp75V0PoXzNtnsOPau25pqzHZIgZo3BENB/EH21bujaitH+CW2NYkyNA6OLkZqJR3neZZp64AwzsFKMfMPIuBDe0iyAFPmJc63u5zIT8QlGudiMF5B0r5tWOqWwX7LHUg2aUDQEnHzFxkl//fY/TEFZCzW9UixOVtCq5x2QZx2CIHalm2T4rbHBy0FgPryz5q4lquEnpuQW2hpndBAl+Y13rARo4BjlUe0mXjT83P2trVvSCX2uH+BbN3bNKqvh2Ec23V+NGCmQB/KAfBGYan9+zs/e6zCCXg9hBDW7v2wJQO5uCwSnuRrjzKfRersloYQuOqziCBOWp8Z2M1nu48hkSJ7shVGNgmzvV9IZfKbuBWezehtYeECudaMRMcbfjgDROrW5vfs8Darh6+E83PTrS3mw9PYavgKFunQ3yh1L2T0KXC6qLrDB/cYd6szzYrzieUetFQ2QsYaltr6uapGz7c1oW461of8ywEjMXAQunPGeXwh3m1QTYCDfBhDxEkkv51eWslbeqXjpayBpCNgtYdaZ7hgZ3BFi7EiWUgkgDzbvfYXXNaFEE8POLodRhY2o3mYanqDqywdrO6+yhKJfS3UviaqOsnETDcvY+BBVa2B+Elm+46w9qu3TdFrYLeay1dHj+v70eKdWZiaIETDCcJgYC6UzG06fT0AsNw/S8wb2lX7JWaVkGX5XZOB/i8AAk+/OesLrrdaCUpAAl7b0RtKQEvQpUvYqDt7LJOIFMREprPw8DyJ4f4GVGh4FSr1P5vEMAITua7WCWsXYf6iR9Cwu2obVc8bJaKVkCDn+xciMHFfsbVC2i+DDWdlwVNkgXzfndjYCHY2XWjk14ef2GAoZ2dXAdECrqa42zdluMh5yk7e8eGn/yhoCBRAAH/sSoDnwfl62P9hC229ouS9LNCjLAcoIdrfX1BK/gzhhbM/N3wkjg0+NVCDiGe48sq6GvZUZfHd1IPCp6ydYv29KQSAe1W0WkBjgAJSYN5w4P/QJv+jzYgfAX3XGxrnwSVcu52DOzcnA6+5CZhBJ0hjYsag0gezCteY0X6F0hvims321ZzN6eaVXCxbbn5cwua1Nw19tJxlGEmgTAR6w0rezkob6prOcW23nZu8q3PFcAmNfKVHAW0XGlDu9soIpEQUHcaPTFo3NDJWw1BQsNJVkW3xm39U8tK6LYaQyv3TV2Q3jh6GwN6OhxjeEkmQEKvLTap4QsQ/tRX71srG+KKLiBT6gcbzbByAY7z5xScYZPA15kEnlSYt7zCinQtKI92vNXJAKc2AJFKUJ9jYBUeX9ubE9BwoU2L0yCj3sTCyPEtDCxIXUH6s+XjMW9l/5NKUPAo5u3O1gHp81s2oKvgTcNNgiGg4VwM6SL5zMQOf7bON5bB+0GlkLvU8uykBj5T4eHaohK2pAmIJAMkHBbaVBCuAOXR1p8Ys1a5beq4fn+gtnFToh/yZkqnYEjHiUb+iYZ50SE2pHXtvQYbWf2oxq0HpIwV0GIxhjZudjOPTsGtNrTHjfQTDhBipA3pfZDg0TabHVmLjrZmKXODHI2B7QpgHmN0580W/MwoB5F8QMcKm0rxGaB82o5L7JLyF0KkCu1BO7d6byN+j/jAgqVwgInOiYd51QswtGgRbwTCpzL3WmVj83gvKPaOyTIAGiv7gPLJ0ul0loLYmp/swK1DPIi6iXwP3tU2+jyVu+WyDIDG/Al+J03UMd27dFptgFSAgOa/WYg9PMznNUZdJ+atFLomPcahlX1v44d4Mc1xGN+j8QiQDOGLj9NsTk8WAF7tpXYa/baEG81vs5CLUZieknTXrWjzRAkM4Y2R4XTJh3gDKL86vS3SqdVnVyq4s03asJoLJMErRmBADs8xtNSAgPpzyLLXWNEGvBIlPI95m+DpKWAFdFyL2ubrSHqVuoITDEtknASKJfxxchxdQAG+7jvliS/sJrmYSJ38q21mAoY43XcPWYlpcbTob1CQIgBlsoeAHjmO9m0bTMfQIl1/mngo+KdVsljTFaRfnq6zyM1XtwWRKhDQeBE5GOL3ynO6hq5rrDL2f4BK+G/1yVuNkToWSoT0ZoSCpissdHm1V45K4GwqzoYSf0IqgdPpkSPE62L8+GTp2BAtzM6DEv5Ttc3QKwv/CqJIOKwtGuJnvvPKM2hxRMdbiT0GX7DJJJuD8Jy4r7DwQpxaO9n+01YXfdGqe7euHk339kdsRro5s3UPnxz1aHkjFTe07OFVTP03kWNHgC8Zhnyabt1bfo6h3Q7YCb7oeJMgLMzm7X9s92usRt5s3uGZo53kPNwvLzu27LQpgD0rwKhvs90CLkck1gpoON+kh2qR0Tx4spzmmFR/uKEVASZI7FwkGWsVKgqMxuMS+sB684sHLG0OIom0x6vjNKu27QTS+mERYTQekkBbOhnD4gEhTi5JHu2WajrNbuWNhDU5dN+Eurg43NgVRLLO/yvyiwvvQ5CJcifHw8VF8ORE2fKZxQhmlidwsEmxQbo9MbcI6LIx8osPb31HEEk5/+bu/GK79VFCfyxWTHJaH8dhWJwgxK8Scs/5kStW7J8ScUuN2cUMZpUlwb+Bfk8YsDA2Qg04mTAJrNl8l7EWXIA3sPcENK1yknUx8gvLGnv9Bc+bbmn8ZNgjD/k2Dz/84Gp6rH733kce4mIeGfYxFR8PY8Ta0ClU+WlcwIG5R4Z9gtpmEV7mfuv1dIHO4zD8VcJeO+klaimntEOdI6RZzeKV0FfTJ6FwyBkE1J1L135FSxC8/YcxsFgPu1R5N6XwCpWtAK+siisO3J1DnnfGibcSeB9Des5QykRyZO9B1p6ATpustlvjwFY76kI7GueSOlWYzjtl5O2fp1cNGvCIACPptf8NHTl70maJkZ0HUNq8GC3iGEaLOCcavFajCiIZsojWO21mIUjGftdtzJdAqbOY7C+oA5C+2F/T18sqZT7qe2sXvp6iTzPVuK7F7pn1toKfxez6pIDh0Cwqf5JDFtByHeqkrUYkoL3F+VuZ8Po1ERpXNQGRxjiErqTRVUuR33K8Gje2BZGw1UU1zqnDZA0Lu2XW0xdG95+abJRoDuRRNagzh+49wNQT0Iqc1YV4PigWeJFclG42Vek0hoQjLPalNGBcSmtc1woET38ovSD9XvKI1i2pTVoBvgwS0hggYDS5HN3AJGLIH6g2wDtZegKarkTNecirgpvIPh6U1lBwEmrOmwdKOIUeD5Y3AsHR/yvdH8uES/EzhkS2RhkhpjMAxE8Ycm5FFzCW7t3E0qs5hx7NjwLJIhUdRq/UnAEqraHgMgypqjqeiaqOpseEOTUtfV77Poc4BgQPvl7CgMjWzFKAtIagN6QF+AEwqaqNwTBBA5C+w5CzL6DJGrKK/gIqSUjOBI1tnUCw8I6i59XfMOxxGIjkZtTPufiXYUD9iGoJIr0hoO1G1JwniQj40mQGRBPf74BbNwpnH0TU5mjxjZ7eMCJ7iZycZpcwYesYqhfgW8wgoPNWi7HOgocAe9NXGeyT9jjYYjVqLt44srelMwheqrqb7p8Migdfw8hXjweAZIGhGUvOT1/noq9T6N5dzIRYZyFqapMjm61rfsWQiAtBpTsUnIuhTU8tC/M9ma+FtRPy5D8bXTGuQGv8rQGItP9TPo+cYq/k4g2ix4hzOElRwChy9WluTS4x4WUiXwE+YaJCykPB3dxL1JpzUVsOBOSRLfQMkfWAEAH1V1GLTzwAZNpDQPft5Ft6geQhxJsxQGKwJ0g+inoAA4tRzowjgnmXCQDpf4mA/2JInyLAp7uW/Qjkcnrz6VNMWJPwLvn4alBJB+dPgxBnCN6DATUuqsVHcmci9SC/Nw9fQNO1qIkjqEzdPP0BUDqHXKj2BcmkUkA+4LMxrYT/kLOF/4JkEg/Ow8Bi3/bEge14HdYDRAV8jAHrpegEtKkkR+yTmEDCv4kI8bRsgIS9Q6SOpi/nwtcp5GKhsg0INjPNWc9yF9Cignq8uC6ILAAIi/HUR3NJV2WzMSR614Ni0+PMerC5gj9haFGrzQQouJJcMAxno7jbMGDc+yxhP03NNivbg2B9N2J/c5wRf1qSM9aFNbjw1aGSWrMNe4Nk0iXEumtTQD3T6EQs1kwoG2DU8xY5ZR3FpuL2NgaMmzbEdHKpeQxIPt/l9NkmWQEFp6Km7xjFBMeiJh5OY9xzrnF2KZtE+QIG9BEHWQGA2r9RDxeUsmnamI2aPmSfxWQz5h3bZYuox9NyAJkBBS/YVK34dG6xbXsunUk8xvyebMrMvohEkd0DKjsg4Wjy4TA2h3sFSG3bznGIFpo+3oxLJLgTA3qXY3YAoNY8aub6Ixe2BIzHkOehgnvJOdrlfJQ0EUN6iskQKPqCLWEPNodXYMA0Y5NTMCROnWzN5I+Ajjuox4+ByhJIOBI16xliAtpspGZsP0uenVoB/pvP8aXEDFPjESCTCcaHS1HT8DkX/Qly3yAGPUF6H9ViMd6Qc5OJxmW1ADIFknqzxo1NjGUz/pDjhnQCvqEer+ezEkyNJdT0+ArIbIEi79Sl8VQ2h003UA/HgfDbor2ZGi1GxKIFm1Yt6hqQKlsgoN5Kqgaf4JOBf0jN2Co7gPA73jywGdTMetRkZXMQCQXnw/cxIH5fcZ/gEPitIaiow4S+ui2fAe0hTVijjMsYKLgYQ/LYPcmoc5OGNz1CQO1FVF4+AcnFNV5NZew2UFkDAZ22U7/gruDCrYTPMCBPQBI+95bX3GU10DBGM/uDTCpY24nULHYEFyi4iliEa5/DW3NwB7VWsI3N0qaKyliIc8oAUgWMZEwefShYLwoc4GDIMasVhPgto8rYKBoCfA1kUpHM7fr25SPk7zDkNQFNQOMNzGsFAhqvoTI2CFT2AKDmMqqQb+JzOJiasW1o4ssqOBE174UAJRxKZeyPbiAyCBLew4B5G04f8gihE0H5wn0Y8J7QlIPB1DPTAdKGzLpiqHFZDT7TA8ltuMN8QcAkDMlfsryXZg/waRMBMunPntRcPOzFxVPwNjUZfweC1YzWEM/no5+yJVTG/pRNACidRU3Hl4HiggsxJLYStvBjFRyNIbFWwGZJIwl7UReb2tEeRCZBRYuQsV5XW0CXHcR8DY8BxWgwY4g/MtLDBVTGpprkn1G4gMrvDEas/YQhefoBq0aBJ0DxHowV4KugEgzuJ4j5OG4zGTlzRY70krEJaLQKNW/1CPieqv/LsgoAJXOoDJ8Eio1AadD4u5fVuyQcQP2K3dIBBO9OJ8SeIJON5PU9BziUCwR03IqaTTeOgmuptYJfGGnhYGrEXlgLIKOg4BoqPmWU0KZiSGPsGlB+asl5CvKMZoMruJQYsWNayKw/fagpbUEtPieeocaVF/1IdApVO+czwovUVDgEVFYBoA61pNXdQDD/svnJAwsCmpH3AO7OqFHgO6qQTs4ywHgqx2dx4VjAHsSogpXNQLhXzpHUPHIRNY9k9F2D27uAyCwoeJhaLgyDHBPQVwjEASDd4zrM09caY9PqSC6ETeLPMAyicRzgvxgp8yNaWZ73caHkXytQcDZVBx+CyC4I6EEtF+bmAFjP4g3MhZJNo9BRbJJIDu6m5sFDIJdlqL0ENQlbW4Pg8udoqkh/cM6XgIbUXSa3tAfBuxFGR7l/osHffkkTNprUrLjw1WELMWNb0RCE89XGELkvBiVn0LSPugfIDIOCJ6j1gmv5sKxmEbWJvUF6aMLmfaWAhhuJWfDKeiAyDRdhSBxpw+jCj6mMnQHKNe7ifqWEfUNixvY1AGQYJByImrx3J/cL73IO+jS5M0BxWsycOghDpRU4rbFLwnxGN55JxQhQPPYz2rUXSDb4B7Vd46b0AuueIY2b2vG5cZ88MTuf7L5RcDW1VlCLUQ78MjVjOwZkWoH3UFuNffmIu3wVMcKscnyjhB7UOydxyoG/pd65V8qBySq+3GfaTCbqE7uDdIvjURN3S2QUK3LziRnwysYgMg4XWNQL2WRsb2BA3uneda9DwLtRUEAragVsKgBk3MFhiLzncuTgDmJ9znXLRo7aQRbiuYySR2+q/D8CmW0Q0G4LahLGMXrUeTSh5vFhyLmNFh9gwHuOrILjMCRvlpZtAChZSsxv59Tkk7HtT03QH7iOMT9iSMLmpoySx9XUgu2K7AN5E5rNbLZYE9BsCxJ7nlwvB7eS+PUypwYj3T9IQ4gnpQmStgfF3iBZb0Sr8fcyt5G39RZi7jgeGOEdovj1/llHhhzcR6vRaTwOJKeMjYTNLUE4Lbw0sfB6l49mJIwmQWNlKxCZh2uoGe6lbJhW8B6DFK3gBNTct4JR1PbX5aVZ9yDD2UmoyV/0vDeJDt2uPpGDS6nPupINBNRbjppcO8o8ck9EGoYz+nMVtUZ/CeRcvvsQi04BNmj9B30586yDgObbkDqgQ7DBsRjSGLvdpVQlDOfe7CBhb4vUl32oswy18x4dDyPGaHgGpPdFjHFrJxBsMIBa+g6FXIqBe41rvmK0wOk29D62XcC31E6hRiB4qz7A6zMQAsZiQMK6cj5ovAq1/9WHZpIQ4twSEExMLmp2pPZr5AR/k6PjLMN0Irj+gIgtbUAyYQxK52LofXWT2kupXwV8aoU5+CfmvcyP4j3kTe/2T+K2oMrvw6hO/wMJGpeUu13DnIiPoU45E1MPnqHiQFmnnL+pC4NQ0zAI6pYnguu7qHX6Y9kotQ58TMS65iDcofN2pJl1s5Ys5mIWbkai+W3R4iSYhWuoTK9ZuDgZXFdQuV7Nhusls9ZZrG7ksm2kGDXaFGwu18fQRISaj6ELJykm6Uyz5zqksoV93EHBURgWn36IR4Ny+GFenOIsl7gUg+ITAV7kEtcXp7jOJW4uTnGrS9xVnGKoSzxYnOIhl3i6OMWTLvFicYrnXeKV4hSvucTrxSnedIm3ilO87RLvFqd4zyVGFKcYUfyj6D94p+i/5E0GDwoYmZAKHViZBHAdBkkxJmZw1yq53aHob3d62X+7845X3/30Ex7m04++1sShcfP+89knCTCf/mcKFVP+82kiuP70o01EbPqIjVLffWUHES847XeiT40RbKZGdKOKZmhSZn6cSZx34GJNZTZC/wVD1pN6BLSlLm32lP9+5109QQkeRkHn7UQ8CiXJmPl1dqLnnUkhZxPxDSOl9txFVOoDLnEnEXo/RlOjWlOTxjOQS8Qfm3mHKhl+6XwiRlkrlcGiQXcwGHfWjxGabiLiJXOQffPOqXvDBfgxI/RHIv7hfdypxiNAsUH99US8Bbnsg4D6y4l43wI+dozU5JVnve8IfCIjxdRaR8QHoLIQTVcT8QYjnIQhDZeA8r4nyJ8YoXQ5EZ+CzEK02UjEc4xwHjXXONMljqQhj1czgppDX305+yCh6w4kr7jMBtdgnoYj3EHCwdSSazAnxfyEIXXZuSxETyTin4zwT9ofjQeBdLh5jUYaHuGE8UTMLEl1eE7UebyBER6jAcO93UFA521EvMqnWiDgU5JsNC4uB5GBOApDGi6GHBvGXqMuGtcRhMPd0aifBR/xgYT3iFjTIAOh4AyLVi82+BgDz+vOAJQvISHEiSD4CP9F4rpD21tkIi6nQeNxbCBgEobUPN2lmYEhCb+y8SEHD1HXneqaibiNWCxw2nlOzfG/7pyAb4hRd0UjEGxwK1X4fUBmIB4lYuceXCCg8UrynhHC6bZD3NedVXAFNfM9AVTmIQdv0qoFTjae8f7RMAKkSzxLzRZMxyMbnElV/fkZCAmfELG2FvuNp54GyWDd+aNB8l53OsAbs3DdafiW+brTMlp33nu7Vg4uwTx5cxQ22AdJJo/DshCl1GEnk7l/1wRu2zUUfdvZYWwgoO0uROrAg6yDgIZryV1ugg3uw8D7d62E/ULq1EVGaLiKLv3sQ7u8txTne9JQ2Buk012BifvOseoXLKPmvj8CZB0kHMi/xP0aQwbfNWUrSNA4tyb72teyXOZBwcnUIv06PkzXnIeaw45uPyCNtKUZo9LxvxiQsKEJiMzDlRiQmWa+7+z3jnNH+szjXiDZ4Dnq0Pa9QGYccjAU8+Qxvcw3dH8fJIt958/hPzjiaFAZB0me06nZNOkqOJcm1Dw+CDm3b38tTTp503iRY4PzaQjwgswDwDgS0xpXN+KCHAyh5RiB6zGDEo6j1o5eA8km+R2OIXH0VfZBLiR+0U3L8cnX3qBm6MeAdIvuiEhtHWODPfPUybFZRxbQZAMJAY5kJO/vjVBJphtIBu1CGlfW4iP/ZmuI6W9M1kFCL2p6e4UPz+WriRFmVUPn5dpkYvTduSefeCGpu+PNlpBsJKPZIaRhCBdI2HsXscCYxGT3+hBPs9QNh6EtFS1BZBxupNa3zwPFelRjgO+Cco07qfIZwgaSvrZJb5AZdzCcBm036oxPfHGuGyr+C5KN8m+ltmycCirj8BW1V6ADCC58fUz9c7prSNiPeuMsCWxwLjVi35JxgJI5RCwq4yNU05/H4j8GENCA1vOEuIVRAulDXh0p2yCgbSV9U3AufHXcikgbMex+Qoeg3hjikVwOBbSkLj0yLttuk9AXNfVZkgtfR2NIvVO45+AF7hdCySLiB/JvdUCkEbgPCstHpS2nK20mtbvuecjzvlDASJqIMOyccXgaAxrLp3OBhI+J8LFigIQjkFiCLaoFgo8K8jTGTgSVaeSRvLvbRXzCIMkMAOmhYbiSyILuwQfXUZPI3yGXXRDUNac0rq7NpzeHGFWw0s94oZ+o2rmATxY5kFoFewlklqFjnvg1P4GPRC+iSvQnRlOD8/gUFwhovwvJMsouKDgNNfljm3VZno+2HPOBq6na+YVPGqy1gJgHVzQCkVnIwZ3Uyvw/+JS1U6kSvdIHJOxPvXAro5anL4l1MOwPMsMO/kMTtcYjQPJpddKWrY6Ohx6sRM1aPQoeoV54GajMAqiFxHixncuC3grOpkbr3/0s5yJhJDVePMUHf6JieHZBQJftxKrWjBJWrRouBjU53X3cacXQV8FGXd0mq6DgFBrDAf6bD8NTMCSvOM1ogSzEP2xaBll0bWlc2wxEZuFeDDgPthXQZQcio74iAS0qULNueRAwkaZ/HV2YUZAwjsrw8Uyg4EKjR3JC5hQvAnyLCxQ8QU2GfwWVTRDQiJrRbunI5sq3MUBqpzarbFLjknLgggupeDfJSOSKoyHO5MIYudMhwHtB+cIJqJHz6mASeofEYnJ2KWQTFNxETWdvsFFjX+pefv6KNQGNN3Bff7qcOrZpV2cQGfVnBBXXgWI0lZNXQ66AkeSCjE9B/CWVr0GgEosEdDry3s5nAk2cAX4BwuMcRgOS2cZledAc3EdNiE+nD1jPCNe4ph4IJnv5bUek4XbI+ZNUP9REVq5ioiEJJ1IrYr9kEzkX7ebkMl/w008Y0OK1z1qigNqLqCc+A8llC5ZtREltbg8ik/68T8VdkGPC1uc0aFzocy1/BW9SeVnfik3E+AFD8jC8DALUWEpLxJrLSG4BrdZT84jXQbHbwghDNjtQKXiR3LWVOuD8WahxYwsQXHrxQqThXJ8Q0L6SGpk/BMkEgzAgn8geKLiFKuNvQTCJ1v+iFhEb23rlS0SL2NG42dAUBA9h7bETaWZXVxCZAwFjadwGeB8PbgU0i3az47dUpIJ/mEPeC4TPokaBi0FlDQS02kCNGEeB5CHLCzCk7zbreX1o44jTT9jkls9TT7yVWCRvzIHG1Y15aFDAR0iNIfv4jtZiClVcG9uAYHOCPLsle/As9cxoLq7tJmqu9qN/cQ3DgHPTk4DOOxDJu/BkDKBsDi1i5PFWUJwbnQK8GxSD6eHEE19zqRnKXzCkqeNOUNkCCQch1fQDyWcVH5o50D9bJTOpHAV7g2Q89iTEiVlzoOAOagG7uAaTWL1PiFxHtCq4n5yjDQXFuOtB49bOIDIFEG0GSB1zoHhI8h4TOcgftVwzTM1ldIiA5uTm0otApQf4dApy7mIv+xW1xbF/M90cUjcykTy80dQE+S+QWQIF15J78NtZZK/uVwlm236rYCg5T3uXy4l/UAvkNc1AZMqfMRgybnSW5K1mAh61dwn7aurh5k5M0sz+5A+bM0BlBwR02IbEiHEbC1YFdNpCPQ57geSyRQx1QAsTPcnZ5BpZmsHXHG6a2R8kC64GG5+Yq3ER2vVktn6tAYwfqnF5nVQgsx9gOYtJ0VpjDoZEXAuKyeigSnLRcAqPVBN7KHkP4qyAgHbk40dYcCrhVKLTuJHL6CAJ/yZXaz5hwZeA+muoD30RZFZAwTVExWkmfY4CPsOAvtUQq7WsyXsZ8h2Or/H3epAdf8ZjSGx0rAnA47uAXiywkWN8wDx5iQAmfY8hXW7ZAAl776QeP8/keDg5U1tUzkhR95NZ29AaBN8RGQG+lRVQ8E+y2o4FyUFrrSOtORnQ5H/0CZG3W5iknE+ph6uagMiGAzmVfFwXBI/1+8mRYi9GWhMwipxy5tbiEQ+uIHIVRptxZAEk9EfkvNV0rXlk/0tKovU7/jyk1m0uBMWiVa6SevhpNvxR8JzFsWKz0iR9i1BGpvZC1ET8JHhka5/brHCT/hDQYCVq4nEtHmz9RITGhYXNdpzWMyfydxqPxHMpBvRBs4kGox1WQ6JQn+ShsdOJ+QEGuxm4xaRrw2L8GbC4eTPS16DNgj8jqZkqHsqjWejryCevZcOs8vQ23TuGx8fTx+TK80EgE4YENTqEOL2EBVPHRj59LRNmGIBkbzQIznnz06DSHgoeIJepd3HgUsQG7bjJ1Lj0PtOXtZEM5Nd0FbVutrIxiHSHgPpLqVlDfk+QTMYbuelxZjSvlTizjYf3KjF1htEixAkGn7UA+WpLwDh6XPgTRxHW+JXuHQs54dvkohRExDcg+JkcnE3FWUZ+/AyMJyLAy1ko61i6P6uM66ppVC7Hs2ArZ2J1Yi5WcCa1kDsDFMulBqlpdTWLNvW4T17JjOWO+dEqcUQ+J43+yr8ZtZqsoPkjx33FzoyaiUQzcxQ/DseNnE/W1UYOPI6eFJB19ZuLTeb9rUNedBirNieOXsu15EQUsjB06JCj0UljkbGuyP6alpHP9RO6OPLvjXyeXtuNxZDTuL515DP1niyGvAAf4zx8vsvWIsjjPWNbRl7x4z8RddXx9TpsKILO816zV8FDRYXnfrQxn9Vtixt/XQsrn80qBMWNP5T/3lmNTT96MeMvbRz5zL3rihkvxGuMz96UzcKwKHBWGxiz9wYVMzjX+Akw0QLqxYobC4kwEvoVL+S+IBNiXy9ObgnwFTeOyWLhG4qRX9BY4Wy3Nj4LnfEdUWMj2vQcd5RInWAQW8E+MabWjOqap1lzNLMckmMknGSD/NQZM2ZM92dmTPs1pGPONMMQBzNj6jIqlk1lwdaM6TN/XkPHFr+SM+qcmrfBiSATZT+kkzReBKXSo1GKPk83xNsNQyxMKZxD4yzEs5nwpUSdaCVV8lzDEs8CuyiW3J0uMsd5HfVNqMnY4HnTOAlHUznSuLY1iDScd6bgZqrTuKYpCM/DvjZYKHu9n736WWxIR9PfV0II/2t0k1dqyPHGWTwgoWWFiR0cpxobZX6FId3/u7knYaZkko0Q7gDFcjYt4rYeIHj/4YKnqSlS44pmIFhsXUMT2aQSSJqR0Ffb1IGO8ZzAbObTvQ0y9SDhgJ1MPwwVHK0tNB32iZ9PGOkxm1uWtgDheyVqMkMDQKYdBHxJ95fUA+GVn5bLkIwAHwIFCTR159kI4mPfBcR445GnoQNz8FieQZN1cZPvzPgTG9ocn00O/usHdDsYlFeOjo9xRN6QOOX+1FtAhcZ5tVmsXWu58ksCSc9YyeJEUJ4z75DKzuL6IFiDxwZwLFOMghOs0vgzbtIL0xUV52JIx5pOIH16h9gNrEwxSNhnG5Ld99IvP53XoLagxZJiMj1L0oQyED4F/RE9S9uyF8g0w+cW/qk+mRJQY6JVDn903E/oNU9hYGGf9+sdHNDZ+Yg3OCwyRXYjPfPzgpV6Hzcuwab2VAwtJHIjKJ/2FbKodRQ9UgoCmvxOz4cDrw0DCm40jk6bGqvOJtg7aJfVMIHjPCpSQOctSMa8OpBSkPA8BhZDgpTX0t1m9RLcWcXKrIm95narEnFtN5AeGXrUQon3gEolKDjCoha2qQsIj7G5+zrU1oNNkk0cbZUpTm8AwmM72wq6uP/YF2Qq/SmfhiHDjhgB9Qv2fWa/uYRHubRfY5UsvpQgvG53Se/YBJFCUHCfRU1pXrlPtcov7TL2Dj7AchXH0GIMkt/NA0tj6Zi+oWbqQEK/XSyng0h4sdAx7SlntHGsVQN0zp/IT0FNn13dDkTq/CmJbwDCbfucHAyx0+mjxqWCKZtsEwzxEp/2v2ShB/geSKbwvDEL/dOgF0h/7hI7jX7HbrCBz5pxhcU1WgenQM4beltm5akCCX3yyLBTOAcn520Uiuu7gWRmfSvSQj5b+nsTvLQo0TQubwEiVf7U/JkseY3L/H17KThkS9xZbSyWGvZBzNsIaPXeviQkoFm01LXFxiopAgUP02khXuSNGwX7rMHQdoGh9DBCjsTAxi7x1gep4CoMrercqQEFR6KmR4/PvYUldFpi574QAtIE0GKxnZDmtPCWS4hxGNLHtjUHkRIQ0HCOETq3blIJLefZJeWFzSCGFCH12Y7axv7cEKSvfo3Agpd3QDIEu3nYAd7uj5fGv9g4jdv7RrSUsRcbz8ZObODNPh6J32LPW35g1ttsXmdKqbez9SfGnd3wu9SxD2Peztb3YwU0oK9zprGiE4gUgIRu620+Dgd4S231vrNyAT5YlUuVB3xqJas8flvbjw4UXIChVZ0uFf6Mt6ENB+XJ1f7WMg3/19yRRoAG0yxPjqvrK/iZjV7/CirxUDCMLhaNixqD8OPqjrcMT2+YTgAJXVdZ2u/8nJTQY5NFvr6rD0hm4DUgWEdjDT3d8Y3lHauqaG9MoWsG7ERtdfKHJp6iyV8xoOtgeh0QiYaAdjZDzfBlkH5ckx+szmr847CoMEste5HxrIJTmvuRmfqGzk2AL4BKNuQYdjQFLaeasJX/58ilmL0VAzv7a0cfUpOw304bNZwPihX8XURj42RQXhTX/ldbzd0auVSzT9qKbenekPPBzN02qXt9d5CJhYpGRlhI+EUvtBzss8xWb08al25GwPuYtxNcRV8v3dBlv9BJIU4qhaRCQte1dGhc2MBPjah/hZ3L43vmh1IPNb+yLTc3n+DBSui/yyYmPw0qmRBQ6wcMec0FzcEJWzG0S7SjSg3Sz9b/0daGl4ESnPa8DfECUImEhJctZBHgIx7KB6Hg0sDW/VQ/uc6xPprPtbM6xCEg3cuvZCJdJRor9waZQCi4wSop/FjmIb1Kk7ZCbefmVtl7m3IP6PwbhlY2wOclSPdj0LbZ5GS/1AGROCg40qp6tdXDzAijCDPC2MqFuLRT5FLS9lptZzGPIxuC8rTQmcV6REmDhM4rrZ54Ayj3qmo4CvNo51btFTGTmvaACksb4Oxu7h8vxljZf0AuWRBQ/r2RAqNVd3LQwzQ3WLr1B0UuRW2fSmu79ijXj5exVRftprgmChLesYgmGpe3cQ2h4Jj11q6yX+Kd+4R02GZLG2L+RpCSSw80alzdBSQLcPgMQq1dT7eOpH9DYK2kzYfEZ2+kavCILUaWlr/4cg1Q7tcisOnSMA/gANcjjZisLqqg7GXzk7bu8Hg4ZYOH21rM44S2bsUpoM4sC04CHAEyKVBw+A6rJ4wS7nsaJpvLLN3WAVE4he2hm2xtgGuOc/sICf3sRuPcDSoZkNBlpVUBuKIdCNfPWGXvNh1W6FL3ZL8NljZ6qSFG9Fy6NUMcBLkkQEDjaCEALuvtKRB3aHvdVBSMMU7l4AFrbNOUDvCTZk6lKqKpqDaDsQ8FxR8Caph+FTYXKWhqBtVp27x5de94OKWDey811lauvx0JSrqcibbIIpmGuMI8nD0kvI15LiNCpYQjlzlQy7J9onCK2w5zHEg2vFOAcsjI4YEVC1MbgmAOBY/YyDHEeU1cQoEcGjpQyq+dIpfqtuUUzKP1VeM6OPwxBX/DwGo2Xg6EX/it+GjcfiA4zEHN98Y3BZfZjdRsnvIOjB7qj7VOXOa1Nl4IQrpj5H07+zJIzlBwuSn1bPxLHUYSKeDPG4w+rN2YOlFETn1bNsI6GLW6vNPQGVFAg9kY2th7QfFFDs5ArW1iyROgHFIbv486tHcjahiX/kaIaO6gtr/qt5OcESXsuxm1jb0eclyRg4E77Bj+wtkzogR24u9OVPFkpDPIAivhNgeJLEB8uYEhMtj5XuNZkOMJBQdbtaOFOMc8wRm14StG0A6y4r+DTFNnrek/7zRRxT6dLTsRhHK3zIkNdh4JOY5Q0MtqGRCNm3qBdEY9dZk91TC4M5pfkB0mB4esNinNAfGtZo76IkW0GKNVFDgQFD8o6L4cQ6t4crqbaBJJtfk76EQFqw4taG3KjmDnGfaPxzDEtRdFKdMBoOk8uyJg5Z6guEFBh8UYeJ8OEstVL12HQYi2yOPUDlE4Y2yDjx3kttGLjd4bpHIyDHETahu7sANIXlDQZl7kfO+xoCTsNS6qgTkogT+ua1zWGCnEQxg6kfkf99ZxcZOC01HbDWtrCZITJLSeZek+zwkXgpdQ774/HKS9SDcPRa0w2WOEggt2YIAuxL7wdBc35eBmy5gwrRFIPlDQYrotkw1BOLnrnMVRwnPwjO0XRfMyMsnk4ODfjHVBxDG9jKKEg1FIdqMQJtUDyQUKWs404rKq5nSzpsWE2HtsJFIXbtEBmfB8usabjjIZrxPirueaW3+DCigZY5kZfF0XJA8oaG3nNG51sK6qCbUavstQnaS50U0MF9llJIj7ooqXk8Dav9cCqSxtY9MAbWXHlYN0D+LTLIeEa30aKPvqZq3b1sdDDhqb7hdV52HZ9IjTN8aucvEFsvCiEsuAhB5rrWwevzLWPxR0nm/kZEW7GnLWodLzF7q5y7BXcUrWPIOo9a7fO7nKKErjlBOEXQ1cwcCdlr8zpjZI31DQfYmdC/BOULYhedp01I4EjRPjrQ3ZZ0sfc3NVLKP+9miw+rkcDDKwCo6vA9IvFPRaaefyONyqmIjlIUdOiEnQzWWPl2aDc/MBfuo6Q3QVGHeYVUDB322jxYQGIH0iB4dUYGi9DoRtaFws5Ia6+pTdzMPJuke0Hxupw1FAjzlamoDN9nR5u2JhcmNQ/qDgpO227stSEHah8ehQvCNbZdQz6NEFbt7p5scwNiNnwgmS3g4h4G1bO70lKF/IwaBddi7ACXWpLpZMcqd+Z5hxJNsAd94SKSNLjVRwwExXaTJWQk0ZVAtMtkxD6Ze2dk5HUF4gooUltLbjaFpT2kVx+dS8YDpGtStX1Gn7VUHNUmL5k+iKGIufC//aKIquJFvXaonuiLNle4LyACHhTutlQOa0ornYIPpmtyyMScsVFR+umXlUcuocMN8ox2Fg3dN7AFDSp4Sm023tmj6Qcw4JMtpE2I6bJe1BEZ8NPZ5aj04FunBgRv4aTUd1nnFGjJfguz4/sYRyuYT2i+zePsStx0POMYxEPsY82vGyvAco2vVlJ36yE6OhBc6o+pl6hZdlM/Foh8R4092sm9sUKLjqiNRjFYZ2kWTnIFBOoaD1T9ZuVc/duYLk0ObWuVFs0uiO+uvhVVCzmlj+4C6Heoq94JYPjiqN3lhUbXuvs7M6xFtM4naHHPQ0jY2Wbu2+VbsCMZSdMGJL7FPDYTrKP1xeBTXDifv/5FBXBVpdMHRPESV0UZXtu9HSBviUENIRhILjNto7852wWwrsefdcdPjs+Bt+f0AV1Gwn5v62yeFNGG/Dz4+/oi1USVAwYKudNfHow5ogHSD2k9eHGFq6dQdW5USsDGx57be7MN655PCujderKqiZT2w3AqObHF++5b/nNYoRZLysOHoH2r15Hr9rCsoBJOSetV8FpuIAUFVTmp3/UaXb6+MRdETbiFo9MFHqO+7XWKp1TagYMah57L1lZI/7wzq4oCfkrKGg0WjzfNunFdwhY/c1P+/fm1xTYkls5jHRN2r1wchoaMZGpzdhoao3fHxZlxhBlcCJ9nbTySaK26EM9p5v6wL8fR9QBc+Fjld9sTFKBFGe6fauDX8ri1OrF4E2rwXOAzpG2DFxyEHRMr8lcOouy5Oh1n8zDJKh8WyAc7diYOuW9YCyWIZRq/+dk/4ooLgOBa+1rj6Edld5P/ibKHKga0Isnix84/xOUsBR26xfEl9QUGrz51HUoe3ZBV1BAKjOF77zWyweuqbE2BpzQFV3VTuI8ozZhWN03NdBcPtPj59Tb0BFFLQcitICqEC89kPryq/GyY1AdDh7+LQ/YkyErgUUE+msUyA+n7S6Eqhx9fLCgI8SCHeO+9nAut4wAM4hQu8w0dHWTe9z9stTt2NBaeMltPya2I9UY4ySUP/OdQUBD491kw+Yd7vgZHLkdPDeK7dVwaCf0Npb6xRMqqvWBAQ0e2CTr0BUa3Fig9ka/ZkwbypGvkKV9zcl/ki1pALa6tEtsQBTo0P0a/yFHmtd0FlSLQoAtHtkAyLjQOJCiJWPtoplqdUmE3URtbq/AqN2iNQ3oQmtu7/NbkPVpMc0G/Jb+geiGuqKwY13H6o+Pab2VTNjpXY6o0Bgc66tXxiqngVKTvtWRxWQtH62/uqMGrsPVb8eAwe+ujnSYho/e8vbB0H1LgRQoLY2gxdjml5ekEjmD2kTyzqrfybWTlt+SjSaN0xHgo6u3/Xl6TViEqsWmoLU223oIkzDz5Agun7BPd1Iz64GPrrWie9tjhXpKVfeVI44rozy7GrhoyNNtrhqQlSdTyNCQaG4a/y1reLzIqqhpkCdosfgqUHs9hS6P5g2ZI94AqnGGhH9ktpv2PSYntOiGqpjFD192P4KSF1L1dRfyvW646cAE/8lUtUYhPyPQw/IVVneVI8JYo+bRm1Cdo/1M+axcsxNe4gqKdVpArQ4+/XFsRiQD3XyCpt8xKme9+o5raFKSjWbEKX2Wgfe/MX6glwgEaeq5nD95zfvXxZVhqwp1dtqaOyxDY4Z9vW6KoaFsc9uAoyd++qOoxvEnqsEVPONzMUU32jAHV8uL2z7CzXTz4v4tXrJJ4OPbBqL9jkJxYERBYm/zj6XPPfjpvi5kNOtOuIBY2bDxOev7FleBa9FhRGyoPRv1O/K4RNXBoVVhLx5nLdf0eZ5+cLKzK7lE4Zf0a9BQY1HVnGu6DhV0OZXv+epg9+ZvDKsIgrl8ybvCLWLKKhNbAuDWHwrMPllE9+5/aQ96xS0fVZ9rni5NB4zRP3OR1754IhJyzYHuytFyCYMd1NSBZWLv3nngSsHdii4V+zu2iLo0iqa/0ua9Tru4tueeG/cjMWrNwe2flC5csG08e8++vdBx/RumoMCY5iQUIwZYR63m0+DWk077HXQERc//s6bD9z72LMvvfH2Ox9+8PZbr7780rtvDPvrleeddPhBe7ZrVLqbjxqT1wgo+kz0OKVcjgKSJtdyUsgUazmRVDZGyiiXKfrN//zH//zH/3MHAABWUDggVAgAAFCCAJ0BKgACAAI+bTCWRqQjIiEs/EgYgA2JaW7hau6d/k/4AeuQkrwB+wGcCbAajxq4QfqN+AH4AaXPTYbmt4/AJn/npUbfhP+AfgB+f/7m9/gt0hWXqdg0S5a1jfHSFZep2DRLlrWN7Ov/wAkL6Xh3dT6BPl6xerVl6nYNEuWtYeM5a/r61sJTHmdp8Vcs39IVl6nYNErRXLX6TqUepZSSjvjvgaLQ1eslrG+Oj0n/sexLzGFOlcpNaevp6yx35zGL1I9wl7MWtY3xzpwH/XPWh6yEVS0BrZeQcrI1V5VDp0/LnH9O0evpvHYwPREvZi1rG9qXqxJaolRU0d94TSWN95TV7RpvfaHuYBtepxcy5bakFZ/RLjMTkHOV61qeCVzAYUJK73L0kA3OLNA9JeQhHD1vcxbjDZx0svIMyWsb46Sht91VrG+OeraqJXA9q+wRWH3OlvIvWak8E3eKUefRrx695/NNFYfc6XNu+ygeMvILXva6PXem1le7u79gKNvAOCaD45MuvQtxl4QduATtX2XVylklA3LNNF6/Hr1E0SMVKNP+rEgrfZQRVAwIFXGFfuZkbP4yVs1SojSJReeKrD5OgqP2RjjSkYagMXXllDOHk0iFhcZLVM8zNe1XMP11hZIyLfQcO9Ul+UDOB0c5if03RYBC6SJWMiSu9Od5CnkG1Rf82pY0rxSSQGP7VBguwmy36c0kMdElsNK2XF/Yw6wp3Ho8S76vK1qIYszxEuC9k6psV83ENCMcdF8dX5T26o3/D/7uQKWrcEvx8EvuhV4BGQWsEl0pPyOaubTo5Ol6Jq/JqnLDO8Mcv5LVM8zNfFMRzJl2pqyfNElkHUiWBbEPuLMqIadvTRevx69Ti/PLsvNvZS7t/DEsgXzMly6/ftcu9RyMs/dqu2o3aaKDhPKJMtb7KCKoL9VRmlPdsbBTwJ73YrII+Arl/g/NMrlAW67Teq6BFuMvCWU6+43W2S851csEgu1csvqzF2kON0YejEiADq+sN11ZWlNasn1wuRWJzi/WXE7uYm3YllCnuPbfZ+I0plspGGoGGjSWngqrN2PvbdgmXaM3YkEmE5zN2FXbxzJGKa0LSGWbCbX8AK5ATwbQI7kDrehcCN5itEfzYQWlgtjqlX+oB8D3rhgItOJWfVjfGh88Fcgdi3jD002UnzlcJhs5icTqoAv0/ntNPjLtqrQx0bu7zvUDu3H/epxztGjTfM8n6f8srkTHO0aNN1WCTJFiPz2x1rqZg5Soq3vgeDAFMtlrG2BGOyw3JFMLnUgKbAu9rcNmtefs6ZsCguWr6pw4SWsb46QrQQsV83Woy09NWrL1FIi81Zj6ushQJbP8zG3bs6XlxSNNWrL1ONgG3h8LddXr7oVzzS2ZTYcbrWFUylAA/nbQAAAAAGwJjXwTGJIdAmDCjh3NkXDoZfqiJm0H90AARIb05A3qIcTcOOIgAWJzpZkwBChaemGybw6TyeYvpc6yAWsr4G+qlN7m5L9XdYJbDbyi24wFsjs/tn9+F//x4e3KSvh2Zg0iQSzOR7eHxihV//Kv/Ee//47x2r/VgXG/DnhSIApnxm/43wOnBOxLrAxtguhRrkIoWxo6DEE+Q2Yfh7FRsOr/FbKVklTeryGN199JFzmkZ6G14er/vFK7EnRdQlZwIKkznSPLao7uMKklqJ4u6B4fodEIaQEU1IE1NenNoHnCqWXMjfA65O+2xsZ3R2xFuH8I3gSQ7dwEfq+8eqOKt7WWx5AI+AsmlAArBDmMGqHzuhscbQJBimrfZ423Zz9W2JIL1xoRj1xZmbrjfBIMWLrzGKXG0DszPaVnjjOc0UHkz6KauFd7kUdN529cNUK7UEA7//6wl3TkHb/EuNu91OBEcxI/GzfjIAnz44MnmndWMNhyISgl5tChlcWkFG30+tHeMqnBJ0ptBZ0IbK1AE/osAnmwR+vLsx9aPs3hCYeoMdEsjt3TtD6whHiBZ4YBIYzAmvv7ZbEg2itcXloOsjl9cIzAWzQupS28rfJKCtgr2pDP7viEBgLWj1p5P9/WapsCkK0luDjLT3p/QWN/PWyPv2GEar4CF915DLjm2WBc+60OCVeQMC6jANtG5KwZJAu0ew0nZKUv0ty8TnRvky9EaZHUO++Bvt+mE738T5YHk1feV/9tTANcocKczjrknarAIFyMHJGadpdFeyR1EJY8zvAALWeEQBW3ib49Dz3a65YRKz0D34J9HoEA9ThTU04TYvdMNyXwliqEKbU+zjAQDxzMUZZU5xVASWXSGl1Rrwc4QLhTeWIpgOFtHPN5g9MD+ZtDHzKCCC+OW3QOoAAABLbVUBbYxYKI+GGwmZavmfvdpRFGSR7hKncAGfbNfH01yh3JvZrXuw5tDY2uiBpBuBoruAU6MlmmgaclfpU7gAz7Zr4+mt8NPlV39iPPFWXHQbmneNcpViDbCTIDJYHmzOOJkGxNJesRMZn8gGTlmGc4CRf1Du+pNkCtMGr/TjR5eAJiwcNXa08e426uD5CRtiWJzLithuz4ioHLhG8OeOTveaggmvLXcWJF+ECR9OtrIPcXhMNDaR8L3DrWaeKEQUNf4rTOATawontlmpArCqtmjfz3NoAHUJVHZbZBfxyIdSeBypFvflZ2WFilgSKK4k2TGlUbsf4p9JQxnyhW0+b/lCllj5DtQl6DBDlu4H0Dqh5Xb/Y9JK6BSZnnYTkWTbRvSmvIHqhkIlVAdQb/B0rp7ITy1QHc1Q+Ofk+XAxAmpgnysEAg4jzz9FuKMcl5QVzxWJvHqyIzIK8YvfjC7VqB/rI8PICec+PiGBBWEKog0OfG/zxKvAAAAAAAAAAARVhJRroAAABFeGlmAABJSSoACAAAAAYAEgEDAAEAAAABAAAAGgEFAAEAAABWAAAAGwEFAAEAAABeAAAAKAEDAAEAAAACAAAAEwIDAAEAAAABAAAAaYcEAAEAAABmAAAAAAAAAEgAAAABAAAASAAAAAEAAAAGAACQBwAEAAAAMDIxMAGRBwAEAAAAAQIDAACgBwAEAAAAMDEwMAGgAwABAAAA//8AAAKgBAABAAAAAAIAAAOgBAABAAAAAAIAAAAAAAA=;" vertex="1" parent="1">
          <mxGeometry x="240" y="208" width="82" height="82" as="geometry" />
        </mxCell>
      </root>
    </mxGraphModel>
  </diagram>
</mxfile>
